ISO-10303-21;
HEADER;
/* Generated by software containing ST-Developer
 * from STEP Tools, Inc. (www.steptools.com) 
 */

FILE_DESCRIPTION(
/* description */ (''),
/* implementation_level */ '2;1');

FILE_NAME(
/* name */ '15EDGVC-3.81-PIN.stp',
/* time_stamp */ '2026-08-09T02:32:40+03:00',
/* author */ ('murashkindv'),
/* organization */ (''),
/* preprocessor_version */ 'ST-DEVELOPER v19.2',
/* originating_system */ 'Autodesk Inventor 2024',
/* authorisation */ '');

FILE_SCHEMA (('AUTOMOTIVE_DESIGN { 1 0 10303 214 3 1 1 }'));
ENDSEC;

DATA;
#10=MECHANICAL_DESIGN_GEOMETRIC_PRESENTATION_REPRESENTATION('',(#929,#930,
#931,#932,#933,#934,#935,#936,#937,#938,#939,#940,#941,#942,#943,#944,#945,
#946,#947,#948,#949,#950,#951,#952,#953,#954,#955,#956,#957,#958,#959,#960,
#961,#962,#963,#964,#965,#966,#967,#968,#969,#970,#971,#972,#973,#974,#975,
#976,#977,#978,#979,#980,#981,#982,#983),#1664);
#11=SHAPE_REPRESENTATION_RELATIONSHIP('SRR','None',#1671,#12);
#12=ADVANCED_BREP_SHAPE_REPRESENTATION('',(#13),#1663);
#13=MANIFOLD_SOLID_BREP('Pin',#1038);
#14=B_SPLINE_CURVE_WITH_KNOTS('',3,(#1540,#1541,#1542,#1543,#1544,#1545,
#1546,#1547,#1548,#1549,#1550),.UNSPECIFIED.,.F.,.F.,(4,2,3,2,4),(-0.077262949911489,
-0.0602691995261285,0.,0.0602695256581638,0.0773077832414564),
 .UNSPECIFIED.);
#15=CONICAL_SURFACE('',#1090,1.49998414579,0.244980597274797);
#16=(
BOUNDED_CURVE()
B_SPLINE_CURVE(2,(#1532,#1533,#1534),.UNSPECIFIED.,.F.,.F.)
B_SPLINE_CURVE_WITH_KNOTS((3,3),(-0.177219470157896,-0.0951848162192927),
 .UNSPECIFIED.)
CURVE()
GEOMETRIC_REPRESENTATION_ITEM()
RATIONAL_B_SPLINE_CURVE((1.00000086629206,1.00000098299796,1.00000080603298))
REPRESENTATION_ITEM('')
);
#17=(
BOUNDED_CURVE()
B_SPLINE_CURVE(2,(#1537,#1538,#1539),.UNSPECIFIED.,.F.,.F.)
B_SPLINE_CURVE_WITH_KNOTS((3,3),(0.112023123268976,0.19406043883382),
 .UNSPECIFIED.)
CURVE()
GEOMETRIC_REPRESENTATION_ITEM()
RATIONAL_B_SPLINE_CURVE((1.00000086782757,1.00000098488919,1.00000080798942))
REPRESENTATION_ITEM('')
);
#18=CYLINDRICAL_SURFACE('',#1068,0.50000000076);
#19=CYLINDRICAL_SURFACE('',#1072,0.19999999878);
#20=CYLINDRICAL_SURFACE('',#1104,1.6000000004);
#21=CYLINDRICAL_SURFACE('',#1110,0.94999999992);
#22=FACE_BOUND('',#82,.T.);
#23=FACE_BOUND('',#85,.T.);
#24=FACE_BOUND('',#113,.T.);
#25=FACE_BOUND('',#128,.T.);
#26=FACE_OUTER_BOUND('',#80,.T.);
#27=FACE_OUTER_BOUND('',#81,.T.);
#28=FACE_OUTER_BOUND('',#83,.T.);
#29=FACE_OUTER_BOUND('',#84,.T.);
#30=FACE_OUTER_BOUND('',#86,.T.);
#31=FACE_OUTER_BOUND('',#87,.T.);
#32=FACE_OUTER_BOUND('',#88,.T.);
#33=FACE_OUTER_BOUND('',#89,.T.);
#34=FACE_OUTER_BOUND('',#90,.T.);
#35=FACE_OUTER_BOUND('',#91,.T.);
#36=FACE_OUTER_BOUND('',#92,.T.);
#37=FACE_OUTER_BOUND('',#93,.T.);
#38=FACE_OUTER_BOUND('',#94,.T.);
#39=FACE_OUTER_BOUND('',#95,.T.);
#40=FACE_OUTER_BOUND('',#96,.T.);
#41=FACE_OUTER_BOUND('',#97,.T.);
#42=FACE_OUTER_BOUND('',#98,.T.);
#43=FACE_OUTER_BOUND('',#99,.T.);
#44=FACE_OUTER_BOUND('',#100,.T.);
#45=FACE_OUTER_BOUND('',#101,.T.);
#46=FACE_OUTER_BOUND('',#102,.T.);
#47=FACE_OUTER_BOUND('',#103,.T.);
#48=FACE_OUTER_BOUND('',#104,.T.);
#49=FACE_OUTER_BOUND('',#105,.T.);
#50=FACE_OUTER_BOUND('',#106,.T.);
#51=FACE_OUTER_BOUND('',#107,.T.);
#52=FACE_OUTER_BOUND('',#108,.T.);
#53=FACE_OUTER_BOUND('',#109,.T.);
#54=FACE_OUTER_BOUND('',#110,.T.);
#55=FACE_OUTER_BOUND('',#111,.T.);
#56=FACE_OUTER_BOUND('',#112,.T.);
#57=FACE_OUTER_BOUND('',#114,.T.);
#58=FACE_OUTER_BOUND('',#115,.T.);
#59=FACE_OUTER_BOUND('',#116,.T.);
#60=FACE_OUTER_BOUND('',#117,.T.);
#61=FACE_OUTER_BOUND('',#118,.T.);
#62=FACE_OUTER_BOUND('',#119,.T.);
#63=FACE_OUTER_BOUND('',#120,.T.);
#64=FACE_OUTER_BOUND('',#121,.T.);
#65=FACE_OUTER_BOUND('',#122,.T.);
#66=FACE_OUTER_BOUND('',#123,.T.);
#67=FACE_OUTER_BOUND('',#124,.T.);
#68=FACE_OUTER_BOUND('',#125,.T.);
#69=FACE_OUTER_BOUND('',#126,.T.);
#70=FACE_OUTER_BOUND('',#127,.T.);
#71=FACE_OUTER_BOUND('',#129,.T.);
#72=FACE_OUTER_BOUND('',#130,.T.);
#73=FACE_OUTER_BOUND('',#131,.T.);
#74=FACE_OUTER_BOUND('',#132,.T.);
#75=FACE_OUTER_BOUND('',#133,.T.);
#76=FACE_OUTER_BOUND('',#134,.T.);
#77=FACE_OUTER_BOUND('',#135,.T.);
#78=FACE_OUTER_BOUND('',#136,.T.);
#79=FACE_OUTER_BOUND('',#137,.T.);
#80=EDGE_LOOP('',(#612,#613,#614,#615,#616,#617,#618,#619,#620,#621));
#81=EDGE_LOOP('',(#622,#623,#624,#625));
#82=EDGE_LOOP('',(#626,#627,#628,#629,#630,#631,#632,#633,#634,#635,#636,
#637,#638,#639));
#83=EDGE_LOOP('',(#640,#641,#642,#643));
#84=EDGE_LOOP('',(#644,#645,#646,#647));
#85=EDGE_LOOP('',(#648,#649,#650,#651));
#86=EDGE_LOOP('',(#652,#653,#654,#655));
#87=EDGE_LOOP('',(#656,#657,#658,#659));
#88=EDGE_LOOP('',(#660,#661,#662,#663));
#89=EDGE_LOOP('',(#664,#665,#666,#667));
#90=EDGE_LOOP('',(#668,#669,#670,#671));
#91=EDGE_LOOP('',(#672,#673,#674,#675));
#92=EDGE_LOOP('',(#676,#677,#678,#679));
#93=EDGE_LOOP('',(#680,#681,#682,#683,#684,#685,#686,#687,#688,#689));
#94=EDGE_LOOP('',(#690,#691,#692,#693,#694));
#95=EDGE_LOOP('',(#695,#696,#697,#698));
#96=EDGE_LOOP('',(#699,#700,#701,#702));
#97=EDGE_LOOP('',(#703,#704,#705,#706));
#98=EDGE_LOOP('',(#707,#708,#709,#710));
#99=EDGE_LOOP('',(#711,#712,#713,#714,#715,#716,#717,#718));
#100=EDGE_LOOP('',(#719,#720,#721,#722));
#101=EDGE_LOOP('',(#723,#724,#725,#726));
#102=EDGE_LOOP('',(#727,#728,#729,#730));
#103=EDGE_LOOP('',(#731,#732,#733,#734));
#104=EDGE_LOOP('',(#735,#736,#737,#738,#739));
#105=EDGE_LOOP('',(#740,#741,#742,#743));
#106=EDGE_LOOP('',(#744,#745,#746,#747));
#107=EDGE_LOOP('',(#748,#749,#750,#751));
#108=EDGE_LOOP('',(#752,#753,#754,#755));
#109=EDGE_LOOP('',(#756,#757,#758,#759));
#110=EDGE_LOOP('',(#760,#761,#762,#763));
#111=EDGE_LOOP('',(#764,#765,#766,#767));
#112=EDGE_LOOP('',(#768,#769,#770,#771,#772,#773,#774,#775,#776,#777,#778,
#779,#780,#781,#782,#783,#784,#785));
#113=EDGE_LOOP('',(#786));
#114=EDGE_LOOP('',(#787,#788,#789,#790));
#115=EDGE_LOOP('',(#791,#792,#793,#794));
#116=EDGE_LOOP('',(#795,#796,#797,#798));
#117=EDGE_LOOP('',(#799,#800,#801,#802));
#118=EDGE_LOOP('',(#803,#804,#805,#806));
#119=EDGE_LOOP('',(#807,#808,#809,#810));
#120=EDGE_LOOP('',(#811,#812,#813,#814));
#121=EDGE_LOOP('',(#815,#816,#817,#818));
#122=EDGE_LOOP('',(#819,#820,#821,#822));
#123=EDGE_LOOP('',(#823,#824,#825,#826));
#124=EDGE_LOOP('',(#827,#828,#829,#830));
#125=EDGE_LOOP('',(#831,#832,#833,#834));
#126=EDGE_LOOP('',(#835,#836,#837,#838));
#127=EDGE_LOOP('',(#839));
#128=EDGE_LOOP('',(#840,#841,#842,#843));
#129=EDGE_LOOP('',(#844,#845,#846,#847));
#130=EDGE_LOOP('',(#848,#849,#850,#851));
#131=EDGE_LOOP('',(#852,#853,#854,#855));
#132=EDGE_LOOP('',(#856,#857,#858,#859));
#133=EDGE_LOOP('',(#860,#861,#862,#863));
#134=EDGE_LOOP('',(#864,#865,#866,#867));
#135=EDGE_LOOP('',(#868,#869,#870,#871));
#136=EDGE_LOOP('',(#872,#873,#874,#875));
#137=EDGE_LOOP('',(#876,#877,#878,#879));
#138=CIRCLE('',#1062,0.19999999878);
#139=CIRCLE('',#1063,0.50000000076);
#140=CIRCLE('',#1065,1.399982226518);
#141=CIRCLE('',#1069,0.50000000076);
#142=CIRCLE('',#1073,0.19999999878);
#143=CIRCLE('',#1097,1.6000000004);
#144=CIRCLE('',#1098,0.94999999992);
#145=CIRCLE('',#1111,0.94999999992);
#146=LINE('',#1376,#269);
#147=LINE('',#1378,#270);
#148=LINE('',#1380,#271);
#149=LINE('',#1382,#272);
#150=LINE('',#1386,#273);
#151=LINE('',#1388,#274);
#152=LINE('',#1392,#275);
#153=LINE('',#1393,#276);
#154=LINE('',#1396,#277);
#155=LINE('',#1398,#278);
#156=LINE('',#1399,#279);
#157=LINE('',#1402,#280);
#158=LINE('',#1404,#281);
#159=LINE('',#1406,#282);
#160=LINE('',#1408,#283);
#161=LINE('',#1410,#284);
#162=LINE('',#1412,#285);
#163=LINE('',#1414,#286);
#164=LINE('',#1416,#287);
#165=LINE('',#1418,#288);
#166=LINE('',#1420,#289);
#167=LINE('',#1422,#290);
#168=LINE('',#1424,#291);
#169=LINE('',#1427,#292);
#170=LINE('',#1430,#293);
#171=LINE('',#1431,#294);
#172=LINE('',#1434,#295);
#173=LINE('',#1435,#296);
#174=LINE('',#1438,#297);
#175=LINE('',#1440,#298);
#176=LINE('',#1442,#299);
#177=LINE('',#1443,#300);
#178=LINE('',#1446,#301);
#179=LINE('',#1450,#302);
#180=LINE('',#1451,#303);
#181=LINE('',#1454,#304);
#182=LINE('',#1455,#305);
#183=LINE('',#1458,#306);
#184=LINE('',#1462,#307);
#185=LINE('',#1463,#308);
#186=LINE('',#1466,#309);
#187=LINE('',#1467,#310);
#188=LINE('',#1469,#311);
#189=LINE('',#1474,#312);
#190=LINE('',#1475,#313);
#191=LINE('',#1477,#314);
#192=LINE('',#1478,#315);
#193=LINE('',#1481,#316);
#194=LINE('',#1482,#317);
#195=LINE('',#1485,#318);
#196=LINE('',#1486,#319);
#197=LINE('',#1489,#320);
#198=LINE('',#1490,#321);
#199=LINE('',#1493,#322);
#200=LINE('',#1494,#323);
#201=LINE('',#1497,#324);
#202=LINE('',#1499,#325);
#203=LINE('',#1501,#326);
#204=LINE('',#1503,#327);
#205=LINE('',#1505,#328);
#206=LINE('',#1506,#329);
#207=LINE('',#1509,#330);
#208=LINE('',#1510,#331);
#209=LINE('',#1513,#332);
#210=LINE('',#1514,#333);
#211=LINE('',#1517,#334);
#212=LINE('',#1518,#335);
#213=LINE('',#1521,#336);
#214=LINE('',#1522,#337);
#215=LINE('',#1525,#338);
#216=LINE('',#1527,#339);
#217=LINE('',#1528,#340);
#218=LINE('',#1531,#341);
#219=LINE('',#1552,#342);
#220=LINE('',#1556,#343);
#221=LINE('',#1557,#344);
#222=LINE('',#1558,#345);
#223=LINE('',#1561,#346);
#224=LINE('',#1562,#347);
#225=LINE('',#1565,#348);
#226=LINE('',#1566,#349);
#227=LINE('',#1568,#350);
#228=LINE('',#1571,#351);
#229=LINE('',#1573,#352);
#230=LINE('',#1574,#353);
#231=LINE('',#1576,#354);
#232=LINE('',#1579,#355);
#233=LINE('',#1583,#356);
#234=LINE('',#1586,#357);
#235=LINE('',#1587,#358);
#236=LINE('',#1590,#359);
#237=LINE('',#1591,#360);
#238=LINE('',#1593,#361);
#239=LINE('',#1595,#362);
#240=LINE('',#1599,#363);
#241=LINE('',#1601,#364);
#242=LINE('',#1602,#365);
#243=LINE('',#1605,#366);
#244=LINE('',#1606,#367);
#245=LINE('',#1609,#368);
#246=LINE('',#1610,#369);
#247=LINE('',#1612,#370);
#248=LINE('',#1616,#371);
#249=LINE('',#1622,#372);
#250=LINE('',#1624,#373);
#251=LINE('',#1626,#374);
#252=LINE('',#1627,#375);
#253=LINE('',#1631,#376);
#254=LINE('',#1632,#377);
#255=LINE('',#1633,#378);
#256=LINE('',#1636,#379);
#257=LINE('',#1637,#380);
#258=LINE('',#1640,#381);
#259=LINE('',#1641,#382);
#260=LINE('',#1643,#383);
#261=LINE('',#1646,#384);
#262=LINE('',#1648,#385);
#263=LINE('',#1649,#386);
#264=LINE('',#1652,#387);
#265=LINE('',#1653,#388);
#266=LINE('',#1656,#389);
#267=LINE('',#1657,#390);
#268=LINE('',#1659,#391);
#269=VECTOR('',#1127,10.);
#270=VECTOR('',#1128,10.);
#271=VECTOR('',#1129,10.);
#272=VECTOR('',#1130,10.);
#273=VECTOR('',#1133,10.);
#274=VECTOR('',#1134,10.);
#275=VECTOR('',#1137,10.);
#276=VECTOR('',#1138,10.);
#277=VECTOR('',#1141,12.21999999988);
#278=VECTOR('',#1142,10.);
#279=VECTOR('',#1143,12.21999999988);
#280=VECTOR('',#1144,4.74977685575);
#281=VECTOR('',#1145,0.8250000021059);
#282=VECTOR('',#1146,0.44999999916);
#283=VECTOR('',#1147,0.30000000198);
#284=VECTOR('',#1148,0.965660396049317);
#285=VECTOR('',#1149,2.8000000007);
#286=VECTOR('',#1150,0.965660396969777);
#287=VECTOR('',#1151,0.29999999944);
#288=VECTOR('',#1152,0.44999999916);
#289=VECTOR('',#1153,0.824999989687);
#290=VECTOR('',#1154,4.75000015017);
#291=VECTOR('',#1155,0.853538182409591);
#292=VECTOR('',#1158,0.853887955962275);
#293=VECTOR('',#1161,12.21999999988);
#294=VECTOR('',#1162,10.);
#295=VECTOR('',#1165,12.21999999988);
#296=VECTOR('',#1166,10.);
#297=VECTOR('',#1167,0.8);
#298=VECTOR('',#1168,0.8);
#299=VECTOR('',#1169,0.8);
#300=VECTOR('',#1170,0.8);
#301=VECTOR('',#1173,12.21999999988);
#302=VECTOR('',#1178,12.21999999988);
#303=VECTOR('',#1179,10.);
#304=VECTOR('',#1182,12.21999999988);
#305=VECTOR('',#1183,10.);
#306=VECTOR('',#1186,12.21999999988);
#307=VECTOR('',#1191,12.21999999988);
#308=VECTOR('',#1192,10.);
#309=VECTOR('',#1195,12.21999999988);
#310=VECTOR('',#1196,10.);
#311=VECTOR('',#1199,10.);
#312=VECTOR('',#1204,4.549776715124);
#313=VECTOR('',#1205,6.8002589321832);
#314=VECTOR('',#1206,0.824653367760287);
#315=VECTOR('',#1207,6.00022581762871);
#316=VECTOR('',#1210,0.7656573011359);
#317=VECTOR('',#1211,6.79999999916);
#318=VECTOR('',#1214,0.44999999916);
#319=VECTOR('',#1215,6.79999999916);
#320=VECTOR('',#1218,0.30000000198);
#321=VECTOR('',#1219,6.79999999916);
#322=VECTOR('',#1222,0.965660396049317);
#323=VECTOR('',#1223,6.79999999916);
#324=VECTOR('',#1226,0.9999999989801);
#325=VECTOR('',#1227,1.2000000003);
#326=VECTOR('',#1228,0.8000000002);
#327=VECTOR('',#1229,1.2000000003);
#328=VECTOR('',#1230,1.00000000152);
#329=VECTOR('',#1231,6.79999999916);
#330=VECTOR('',#1234,0.965660396969777);
#331=VECTOR('',#1235,6.79999999916);
#332=VECTOR('',#1238,0.2999999994401);
#333=VECTOR('',#1239,6.79999999916);
#334=VECTOR('',#1242,0.44999999916);
#335=VECTOR('',#1243,6.79999999916);
#336=VECTOR('',#1246,0.7656572887172);
#337=VECTOR('',#1247,6.8002589321832);
#338=VECTOR('',#1250,4.549999854283);
#339=VECTOR('',#1251,6.00022357288894);
#340=VECTOR('',#1252,0.824655630670098);
#341=VECTOR('',#1255,0.793022462592427);
#342=VECTOR('',#1260,0.793421980070087);
#343=VECTOR('',#1263,0.8);
#344=VECTOR('',#1264,2.800000000241);
#345=VECTOR('',#1265,2.800000000241);
#346=VECTOR('',#1268,0.8);
#347=VECTOR('',#1269,2.800000000241);
#348=VECTOR('',#1272,0.8);
#349=VECTOR('',#1273,2.800000000241);
#350=VECTOR('',#1276,0.8);
#351=VECTOR('',#1279,0.19999999878);
#352=VECTOR('',#1280,0.8000000002);
#353=VECTOR('',#1281,0.19999999878);
#354=VECTOR('',#1282,0.741060951885104);
#355=VECTOR('',#1285,0.740658863685771);
#356=VECTOR('',#1290,5.99999389088912);
#357=VECTOR('',#1293,1.2000000003);
#358=VECTOR('',#1294,0.19999999878);
#359=VECTOR('',#1297,0.8000000002);
#360=VECTOR('',#1298,0.19999999878);
#361=VECTOR('',#1301,1.2000000003);
#362=VECTOR('',#1304,5.99999274019395);
#363=VECTOR('',#1309,0.66332495807012);
#364=VECTOR('',#1310,0.3999999999997);
#365=VECTOR('',#1311,0.66332495807012);
#366=VECTOR('',#1314,0.3999999999997);
#367=VECTOR('',#1315,0.66332495807012);
#368=VECTOR('',#1318,0.3999999999998);
#369=VECTOR('',#1319,0.66332495807012);
#370=VECTOR('',#1322,0.3999999999998);
#371=VECTOR('',#1327,0.94999999992);
#372=VECTOR('',#1334,0.8);
#373=VECTOR('',#1335,0.8);
#374=VECTOR('',#1336,0.8);
#375=VECTOR('',#1337,0.8);
#376=VECTOR('',#1340,0.7999999999995);
#377=VECTOR('',#1341,3.499999999523);
#378=VECTOR('',#1342,3.499999999523);
#379=VECTOR('',#1345,0.8);
#380=VECTOR('',#1346,3.49999999952);
#381=VECTOR('',#1349,0.8000000000005);
#382=VECTOR('',#1350,3.49999999952);
#383=VECTOR('',#1353,0.8);
#384=VECTOR('',#1356,0.66332495806772);
#385=VECTOR('',#1357,0.3999999999996);
#386=VECTOR('',#1358,0.66332495806772);
#387=VECTOR('',#1361,0.3999999999996);
#388=VECTOR('',#1362,0.6633249580711);
#389=VECTOR('',#1365,0.3999999999996);
#390=VECTOR('',#1366,0.66332495807112);
#391=VECTOR('',#1369,0.3999999999995);
#392=VERTEX_POINT('',#1374);
#393=VERTEX_POINT('',#1375);
#394=VERTEX_POINT('',#1377);
#395=VERTEX_POINT('',#1379);
#396=VERTEX_POINT('',#1381);
#397=VERTEX_POINT('',#1383);
#398=VERTEX_POINT('',#1385);
#399=VERTEX_POINT('',#1387);
#400=VERTEX_POINT('',#1389);
#401=VERTEX_POINT('',#1391);
#402=VERTEX_POINT('',#1395);
#403=VERTEX_POINT('',#1397);
#404=VERTEX_POINT('',#1400);
#405=VERTEX_POINT('',#1401);
#406=VERTEX_POINT('',#1403);
#407=VERTEX_POINT('',#1405);
#408=VERTEX_POINT('',#1407);
#409=VERTEX_POINT('',#1409);
#410=VERTEX_POINT('',#1411);
#411=VERTEX_POINT('',#1413);
#412=VERTEX_POINT('',#1415);
#413=VERTEX_POINT('',#1417);
#414=VERTEX_POINT('',#1419);
#415=VERTEX_POINT('',#1421);
#416=VERTEX_POINT('',#1423);
#417=VERTEX_POINT('',#1425);
#418=VERTEX_POINT('',#1429);
#419=VERTEX_POINT('',#1433);
#420=VERTEX_POINT('',#1436);
#421=VERTEX_POINT('',#1437);
#422=VERTEX_POINT('',#1439);
#423=VERTEX_POINT('',#1441);
#424=VERTEX_POINT('',#1445);
#425=VERTEX_POINT('',#1449);
#426=VERTEX_POINT('',#1453);
#427=VERTEX_POINT('',#1457);
#428=VERTEX_POINT('',#1461);
#429=VERTEX_POINT('',#1465);
#430=VERTEX_POINT('',#1472);
#431=VERTEX_POINT('',#1473);
#432=VERTEX_POINT('',#1476);
#433=VERTEX_POINT('',#1480);
#434=VERTEX_POINT('',#1484);
#435=VERTEX_POINT('',#1488);
#436=VERTEX_POINT('',#1492);
#437=VERTEX_POINT('',#1496);
#438=VERTEX_POINT('',#1498);
#439=VERTEX_POINT('',#1500);
#440=VERTEX_POINT('',#1502);
#441=VERTEX_POINT('',#1504);
#442=VERTEX_POINT('',#1508);
#443=VERTEX_POINT('',#1512);
#444=VERTEX_POINT('',#1516);
#445=VERTEX_POINT('',#1520);
#446=VERTEX_POINT('',#1524);
#447=VERTEX_POINT('',#1526);
#448=VERTEX_POINT('',#1530);
#449=VERTEX_POINT('',#1536);
#450=VERTEX_POINT('',#1554);
#451=VERTEX_POINT('',#1555);
#452=VERTEX_POINT('',#1560);
#453=VERTEX_POINT('',#1564);
#454=VERTEX_POINT('',#1570);
#455=VERTEX_POINT('',#1572);
#456=VERTEX_POINT('',#1575);
#457=VERTEX_POINT('',#1577);
#458=VERTEX_POINT('',#1580);
#459=VERTEX_POINT('',#1585);
#460=VERTEX_POINT('',#1589);
#461=VERTEX_POINT('',#1598);
#462=VERTEX_POINT('',#1600);
#463=VERTEX_POINT('',#1604);
#464=VERTEX_POINT('',#1608);
#465=VERTEX_POINT('',#1615);
#466=VERTEX_POINT('',#1620);
#467=VERTEX_POINT('',#1621);
#468=VERTEX_POINT('',#1623);
#469=VERTEX_POINT('',#1625);
#470=VERTEX_POINT('',#1629);
#471=VERTEX_POINT('',#1630);
#472=VERTEX_POINT('',#1635);
#473=VERTEX_POINT('',#1639);
#474=VERTEX_POINT('',#1645);
#475=VERTEX_POINT('',#1647);
#476=VERTEX_POINT('',#1651);
#477=VERTEX_POINT('',#1655);
#478=EDGE_CURVE('',#392,#393,#146,.T.);
#479=EDGE_CURVE('',#394,#392,#147,.T.);
#480=EDGE_CURVE('',#395,#394,#148,.T.);
#481=EDGE_CURVE('',#396,#395,#149,.T.);
#482=EDGE_CURVE('',#397,#396,#138,.T.);
#483=EDGE_CURVE('',#398,#397,#150,.T.);
#484=EDGE_CURVE('',#399,#398,#151,.T.);
#485=EDGE_CURVE('',#400,#399,#139,.T.);
#486=EDGE_CURVE('',#401,#400,#152,.T.);
#487=EDGE_CURVE('',#393,#401,#153,.T.);
#488=EDGE_CURVE('',#402,#393,#154,.T.);
#489=EDGE_CURVE('',#403,#402,#155,.T.);
#490=EDGE_CURVE('',#403,#392,#156,.T.);
#491=EDGE_CURVE('',#404,#405,#157,.T.);
#492=EDGE_CURVE('',#406,#405,#158,.T.);
#493=EDGE_CURVE('',#407,#406,#159,.T.);
#494=EDGE_CURVE('',#408,#407,#160,.T.);
#495=EDGE_CURVE('',#409,#408,#161,.T.);
#496=EDGE_CURVE('',#410,#409,#162,.T.);
#497=EDGE_CURVE('',#411,#410,#163,.T.);
#498=EDGE_CURVE('',#412,#411,#164,.T.);
#499=EDGE_CURVE('',#413,#412,#165,.T.);
#500=EDGE_CURVE('',#414,#413,#166,.T.);
#501=EDGE_CURVE('',#414,#415,#167,.T.);
#502=EDGE_CURVE('',#415,#416,#168,.T.);
#503=EDGE_CURVE('',#417,#416,#140,.T.);
#504=EDGE_CURVE('',#417,#404,#169,.T.);
#505=EDGE_CURVE('',#418,#401,#170,.T.);
#506=EDGE_CURVE('',#402,#418,#171,.T.);
#507=EDGE_CURVE('',#400,#419,#172,.T.);
#508=EDGE_CURVE('',#418,#419,#173,.T.);
#509=EDGE_CURVE('',#420,#421,#174,.T.);
#510=EDGE_CURVE('',#421,#422,#175,.T.);
#511=EDGE_CURVE('',#422,#423,#176,.T.);
#512=EDGE_CURVE('',#423,#420,#177,.T.);
#513=EDGE_CURVE('',#424,#399,#178,.T.);
#514=EDGE_CURVE('',#419,#424,#141,.T.);
#515=EDGE_CURVE('',#425,#398,#179,.T.);
#516=EDGE_CURVE('',#424,#425,#180,.T.);
#517=EDGE_CURVE('',#397,#426,#181,.T.);
#518=EDGE_CURVE('',#425,#426,#182,.T.);
#519=EDGE_CURVE('',#427,#396,#183,.T.);
#520=EDGE_CURVE('',#426,#427,#142,.T.);
#521=EDGE_CURVE('',#428,#395,#184,.T.);
#522=EDGE_CURVE('',#427,#428,#185,.T.);
#523=EDGE_CURVE('',#429,#394,#186,.T.);
#524=EDGE_CURVE('',#428,#429,#187,.T.);
#525=EDGE_CURVE('',#429,#403,#188,.T.);
#526=EDGE_CURVE('',#430,#431,#189,.T.);
#527=EDGE_CURVE('',#430,#405,#190,.T.);
#528=EDGE_CURVE('',#404,#432,#191,.T.);
#529=EDGE_CURVE('',#432,#431,#192,.T.);
#530=EDGE_CURVE('',#433,#430,#193,.T.);
#531=EDGE_CURVE('',#433,#406,#194,.T.);
#532=EDGE_CURVE('',#434,#433,#195,.T.);
#533=EDGE_CURVE('',#434,#407,#196,.T.);
#534=EDGE_CURVE('',#435,#434,#197,.T.);
#535=EDGE_CURVE('',#435,#408,#198,.T.);
#536=EDGE_CURVE('',#435,#436,#199,.T.);
#537=EDGE_CURVE('',#436,#409,#200,.T.);
#538=EDGE_CURVE('',#437,#436,#201,.T.);
#539=EDGE_CURVE('',#438,#437,#202,.T.);
#540=EDGE_CURVE('',#439,#438,#203,.T.);
#541=EDGE_CURVE('',#439,#440,#204,.T.);
#542=EDGE_CURVE('',#441,#440,#205,.T.);
#543=EDGE_CURVE('',#441,#410,#206,.T.);
#544=EDGE_CURVE('',#441,#442,#207,.T.);
#545=EDGE_CURVE('',#442,#411,#208,.T.);
#546=EDGE_CURVE('',#443,#442,#209,.T.);
#547=EDGE_CURVE('',#443,#412,#210,.T.);
#548=EDGE_CURVE('',#444,#443,#211,.T.);
#549=EDGE_CURVE('',#444,#413,#212,.T.);
#550=EDGE_CURVE('',#445,#444,#213,.T.);
#551=EDGE_CURVE('',#414,#445,#214,.T.);
#552=EDGE_CURVE('',#446,#445,#215,.T.);
#553=EDGE_CURVE('',#446,#447,#216,.T.);
#554=EDGE_CURVE('',#447,#415,#217,.T.);
#555=EDGE_CURVE('',#447,#448,#218,.T.);
#556=EDGE_CURVE('',#416,#448,#16,.T.);
#557=EDGE_CURVE('',#417,#449,#17,.T.);
#558=EDGE_CURVE('',#449,#448,#14,.T.);
#559=EDGE_CURVE('',#449,#432,#219,.T.);
#560=EDGE_CURVE('',#450,#451,#220,.T.);
#561=EDGE_CURVE('',#421,#450,#221,.T.);
#562=EDGE_CURVE('',#420,#451,#222,.T.);
#563=EDGE_CURVE('',#452,#450,#223,.T.);
#564=EDGE_CURVE('',#422,#452,#224,.T.);
#565=EDGE_CURVE('',#453,#452,#225,.T.);
#566=EDGE_CURVE('',#423,#453,#226,.T.);
#567=EDGE_CURVE('',#451,#453,#227,.T.);
#568=EDGE_CURVE('',#454,#440,#228,.T.);
#569=EDGE_CURVE('',#455,#454,#229,.T.);
#570=EDGE_CURVE('',#437,#455,#230,.T.);
#571=EDGE_CURVE('',#431,#456,#231,.T.);
#572=EDGE_CURVE('',#457,#456,#143,.T.);
#573=EDGE_CURVE('',#457,#446,#232,.T.);
#574=EDGE_CURVE('',#458,#458,#144,.T.);
#575=EDGE_CURVE('',#449,#456,#233,.T.);
#576=EDGE_CURVE('',#459,#455,#234,.T.);
#577=EDGE_CURVE('',#438,#459,#235,.T.);
#578=EDGE_CURVE('',#459,#460,#236,.T.);
#579=EDGE_CURVE('',#460,#439,#237,.T.);
#580=EDGE_CURVE('',#460,#454,#238,.T.);
#581=EDGE_CURVE('',#457,#448,#239,.T.);
#582=EDGE_CURVE('',#461,#451,#240,.T.);
#583=EDGE_CURVE('',#462,#461,#241,.T.);
#584=EDGE_CURVE('',#450,#462,#242,.T.);
#585=EDGE_CURVE('',#463,#462,#243,.T.);
#586=EDGE_CURVE('',#463,#452,#244,.T.);
#587=EDGE_CURVE('',#464,#463,#245,.T.);
#588=EDGE_CURVE('',#453,#464,#246,.T.);
#589=EDGE_CURVE('',#464,#461,#247,.T.);
#590=EDGE_CURVE('',#458,#465,#248,.T.);
#591=EDGE_CURVE('',#465,#465,#145,.T.);
#592=EDGE_CURVE('',#466,#467,#249,.T.);
#593=EDGE_CURVE('',#467,#468,#250,.T.);
#594=EDGE_CURVE('',#468,#469,#251,.T.);
#595=EDGE_CURVE('',#469,#466,#252,.T.);
#596=EDGE_CURVE('',#470,#471,#253,.T.);
#597=EDGE_CURVE('',#467,#470,#254,.T.);
#598=EDGE_CURVE('',#466,#471,#255,.T.);
#599=EDGE_CURVE('',#470,#472,#256,.T.);
#600=EDGE_CURVE('',#468,#472,#257,.T.);
#601=EDGE_CURVE('',#473,#472,#258,.T.);
#602=EDGE_CURVE('',#469,#473,#259,.T.);
#603=EDGE_CURVE('',#473,#471,#260,.T.);
#604=EDGE_CURVE('',#471,#474,#261,.T.);
#605=EDGE_CURVE('',#475,#474,#262,.T.);
#606=EDGE_CURVE('',#475,#470,#263,.T.);
#607=EDGE_CURVE('',#476,#475,#264,.T.);
#608=EDGE_CURVE('',#472,#476,#265,.T.);
#609=EDGE_CURVE('',#477,#476,#266,.T.);
#610=EDGE_CURVE('',#477,#473,#267,.T.);
#611=EDGE_CURVE('',#474,#477,#268,.T.);
#612=ORIENTED_EDGE('',*,*,#478,.F.);
#613=ORIENTED_EDGE('',*,*,#479,.F.);
#614=ORIENTED_EDGE('',*,*,#480,.F.);
#615=ORIENTED_EDGE('',*,*,#481,.F.);
#616=ORIENTED_EDGE('',*,*,#482,.F.);
#617=ORIENTED_EDGE('',*,*,#483,.F.);
#618=ORIENTED_EDGE('',*,*,#484,.F.);
#619=ORIENTED_EDGE('',*,*,#485,.F.);
#620=ORIENTED_EDGE('',*,*,#486,.F.);
#621=ORIENTED_EDGE('',*,*,#487,.F.);
#622=ORIENTED_EDGE('',*,*,#478,.T.);
#623=ORIENTED_EDGE('',*,*,#488,.F.);
#624=ORIENTED_EDGE('',*,*,#489,.F.);
#625=ORIENTED_EDGE('',*,*,#490,.T.);
#626=ORIENTED_EDGE('',*,*,#491,.T.);
#627=ORIENTED_EDGE('',*,*,#492,.F.);
#628=ORIENTED_EDGE('',*,*,#493,.F.);
#629=ORIENTED_EDGE('',*,*,#494,.F.);
#630=ORIENTED_EDGE('',*,*,#495,.F.);
#631=ORIENTED_EDGE('',*,*,#496,.F.);
#632=ORIENTED_EDGE('',*,*,#497,.F.);
#633=ORIENTED_EDGE('',*,*,#498,.F.);
#634=ORIENTED_EDGE('',*,*,#499,.F.);
#635=ORIENTED_EDGE('',*,*,#500,.F.);
#636=ORIENTED_EDGE('',*,*,#501,.T.);
#637=ORIENTED_EDGE('',*,*,#502,.T.);
#638=ORIENTED_EDGE('',*,*,#503,.F.);
#639=ORIENTED_EDGE('',*,*,#504,.T.);
#640=ORIENTED_EDGE('',*,*,#487,.T.);
#641=ORIENTED_EDGE('',*,*,#505,.F.);
#642=ORIENTED_EDGE('',*,*,#506,.F.);
#643=ORIENTED_EDGE('',*,*,#488,.T.);
#644=ORIENTED_EDGE('',*,*,#486,.T.);
#645=ORIENTED_EDGE('',*,*,#507,.T.);
#646=ORIENTED_EDGE('',*,*,#508,.F.);
#647=ORIENTED_EDGE('',*,*,#505,.T.);
#648=ORIENTED_EDGE('',*,*,#509,.T.);
#649=ORIENTED_EDGE('',*,*,#510,.T.);
#650=ORIENTED_EDGE('',*,*,#511,.T.);
#651=ORIENTED_EDGE('',*,*,#512,.T.);
#652=ORIENTED_EDGE('',*,*,#485,.T.);
#653=ORIENTED_EDGE('',*,*,#513,.F.);
#654=ORIENTED_EDGE('',*,*,#514,.F.);
#655=ORIENTED_EDGE('',*,*,#507,.F.);
#656=ORIENTED_EDGE('',*,*,#484,.T.);
#657=ORIENTED_EDGE('',*,*,#515,.F.);
#658=ORIENTED_EDGE('',*,*,#516,.F.);
#659=ORIENTED_EDGE('',*,*,#513,.T.);
#660=ORIENTED_EDGE('',*,*,#483,.T.);
#661=ORIENTED_EDGE('',*,*,#517,.T.);
#662=ORIENTED_EDGE('',*,*,#518,.F.);
#663=ORIENTED_EDGE('',*,*,#515,.T.);
#664=ORIENTED_EDGE('',*,*,#482,.T.);
#665=ORIENTED_EDGE('',*,*,#519,.F.);
#666=ORIENTED_EDGE('',*,*,#520,.F.);
#667=ORIENTED_EDGE('',*,*,#517,.F.);
#668=ORIENTED_EDGE('',*,*,#481,.T.);
#669=ORIENTED_EDGE('',*,*,#521,.F.);
#670=ORIENTED_EDGE('',*,*,#522,.F.);
#671=ORIENTED_EDGE('',*,*,#519,.T.);
#672=ORIENTED_EDGE('',*,*,#480,.T.);
#673=ORIENTED_EDGE('',*,*,#523,.F.);
#674=ORIENTED_EDGE('',*,*,#524,.F.);
#675=ORIENTED_EDGE('',*,*,#521,.T.);
#676=ORIENTED_EDGE('',*,*,#479,.T.);
#677=ORIENTED_EDGE('',*,*,#490,.F.);
#678=ORIENTED_EDGE('',*,*,#525,.F.);
#679=ORIENTED_EDGE('',*,*,#523,.T.);
#680=ORIENTED_EDGE('',*,*,#489,.T.);
#681=ORIENTED_EDGE('',*,*,#506,.T.);
#682=ORIENTED_EDGE('',*,*,#508,.T.);
#683=ORIENTED_EDGE('',*,*,#514,.T.);
#684=ORIENTED_EDGE('',*,*,#516,.T.);
#685=ORIENTED_EDGE('',*,*,#518,.T.);
#686=ORIENTED_EDGE('',*,*,#520,.T.);
#687=ORIENTED_EDGE('',*,*,#522,.T.);
#688=ORIENTED_EDGE('',*,*,#524,.T.);
#689=ORIENTED_EDGE('',*,*,#525,.T.);
#690=ORIENTED_EDGE('',*,*,#526,.F.);
#691=ORIENTED_EDGE('',*,*,#527,.T.);
#692=ORIENTED_EDGE('',*,*,#491,.F.);
#693=ORIENTED_EDGE('',*,*,#528,.T.);
#694=ORIENTED_EDGE('',*,*,#529,.T.);
#695=ORIENTED_EDGE('',*,*,#530,.F.);
#696=ORIENTED_EDGE('',*,*,#531,.T.);
#697=ORIENTED_EDGE('',*,*,#492,.T.);
#698=ORIENTED_EDGE('',*,*,#527,.F.);
#699=ORIENTED_EDGE('',*,*,#532,.F.);
#700=ORIENTED_EDGE('',*,*,#533,.T.);
#701=ORIENTED_EDGE('',*,*,#493,.T.);
#702=ORIENTED_EDGE('',*,*,#531,.F.);
#703=ORIENTED_EDGE('',*,*,#534,.F.);
#704=ORIENTED_EDGE('',*,*,#535,.T.);
#705=ORIENTED_EDGE('',*,*,#494,.T.);
#706=ORIENTED_EDGE('',*,*,#533,.F.);
#707=ORIENTED_EDGE('',*,*,#536,.T.);
#708=ORIENTED_EDGE('',*,*,#537,.T.);
#709=ORIENTED_EDGE('',*,*,#495,.T.);
#710=ORIENTED_EDGE('',*,*,#535,.F.);
#711=ORIENTED_EDGE('',*,*,#538,.F.);
#712=ORIENTED_EDGE('',*,*,#539,.F.);
#713=ORIENTED_EDGE('',*,*,#540,.F.);
#714=ORIENTED_EDGE('',*,*,#541,.T.);
#715=ORIENTED_EDGE('',*,*,#542,.F.);
#716=ORIENTED_EDGE('',*,*,#543,.T.);
#717=ORIENTED_EDGE('',*,*,#496,.T.);
#718=ORIENTED_EDGE('',*,*,#537,.F.);
#719=ORIENTED_EDGE('',*,*,#544,.T.);
#720=ORIENTED_EDGE('',*,*,#545,.T.);
#721=ORIENTED_EDGE('',*,*,#497,.T.);
#722=ORIENTED_EDGE('',*,*,#543,.F.);
#723=ORIENTED_EDGE('',*,*,#546,.F.);
#724=ORIENTED_EDGE('',*,*,#547,.T.);
#725=ORIENTED_EDGE('',*,*,#498,.T.);
#726=ORIENTED_EDGE('',*,*,#545,.F.);
#727=ORIENTED_EDGE('',*,*,#548,.F.);
#728=ORIENTED_EDGE('',*,*,#549,.T.);
#729=ORIENTED_EDGE('',*,*,#499,.T.);
#730=ORIENTED_EDGE('',*,*,#547,.F.);
#731=ORIENTED_EDGE('',*,*,#550,.F.);
#732=ORIENTED_EDGE('',*,*,#551,.F.);
#733=ORIENTED_EDGE('',*,*,#500,.T.);
#734=ORIENTED_EDGE('',*,*,#549,.F.);
#735=ORIENTED_EDGE('',*,*,#552,.F.);
#736=ORIENTED_EDGE('',*,*,#553,.T.);
#737=ORIENTED_EDGE('',*,*,#554,.T.);
#738=ORIENTED_EDGE('',*,*,#501,.F.);
#739=ORIENTED_EDGE('',*,*,#551,.T.);
#740=ORIENTED_EDGE('',*,*,#555,.T.);
#741=ORIENTED_EDGE('',*,*,#556,.F.);
#742=ORIENTED_EDGE('',*,*,#502,.F.);
#743=ORIENTED_EDGE('',*,*,#554,.F.);
#744=ORIENTED_EDGE('',*,*,#557,.F.);
#745=ORIENTED_EDGE('',*,*,#503,.T.);
#746=ORIENTED_EDGE('',*,*,#556,.T.);
#747=ORIENTED_EDGE('',*,*,#558,.F.);
#748=ORIENTED_EDGE('',*,*,#559,.T.);
#749=ORIENTED_EDGE('',*,*,#528,.F.);
#750=ORIENTED_EDGE('',*,*,#504,.F.);
#751=ORIENTED_EDGE('',*,*,#557,.T.);
#752=ORIENTED_EDGE('',*,*,#560,.F.);
#753=ORIENTED_EDGE('',*,*,#561,.F.);
#754=ORIENTED_EDGE('',*,*,#509,.F.);
#755=ORIENTED_EDGE('',*,*,#562,.T.);
#756=ORIENTED_EDGE('',*,*,#563,.F.);
#757=ORIENTED_EDGE('',*,*,#564,.F.);
#758=ORIENTED_EDGE('',*,*,#510,.F.);
#759=ORIENTED_EDGE('',*,*,#561,.T.);
#760=ORIENTED_EDGE('',*,*,#565,.F.);
#761=ORIENTED_EDGE('',*,*,#566,.F.);
#762=ORIENTED_EDGE('',*,*,#511,.F.);
#763=ORIENTED_EDGE('',*,*,#564,.T.);
#764=ORIENTED_EDGE('',*,*,#512,.F.);
#765=ORIENTED_EDGE('',*,*,#566,.T.);
#766=ORIENTED_EDGE('',*,*,#567,.F.);
#767=ORIENTED_EDGE('',*,*,#562,.F.);
#768=ORIENTED_EDGE('',*,*,#552,.T.);
#769=ORIENTED_EDGE('',*,*,#550,.T.);
#770=ORIENTED_EDGE('',*,*,#548,.T.);
#771=ORIENTED_EDGE('',*,*,#546,.T.);
#772=ORIENTED_EDGE('',*,*,#544,.F.);
#773=ORIENTED_EDGE('',*,*,#542,.T.);
#774=ORIENTED_EDGE('',*,*,#568,.F.);
#775=ORIENTED_EDGE('',*,*,#569,.F.);
#776=ORIENTED_EDGE('',*,*,#570,.F.);
#777=ORIENTED_EDGE('',*,*,#538,.T.);
#778=ORIENTED_EDGE('',*,*,#536,.F.);
#779=ORIENTED_EDGE('',*,*,#534,.T.);
#780=ORIENTED_EDGE('',*,*,#532,.T.);
#781=ORIENTED_EDGE('',*,*,#530,.T.);
#782=ORIENTED_EDGE('',*,*,#526,.T.);
#783=ORIENTED_EDGE('',*,*,#571,.T.);
#784=ORIENTED_EDGE('',*,*,#572,.F.);
#785=ORIENTED_EDGE('',*,*,#573,.T.);
#786=ORIENTED_EDGE('',*,*,#574,.F.);
#787=ORIENTED_EDGE('',*,*,#571,.F.);
#788=ORIENTED_EDGE('',*,*,#529,.F.);
#789=ORIENTED_EDGE('',*,*,#559,.F.);
#790=ORIENTED_EDGE('',*,*,#575,.T.);
#791=ORIENTED_EDGE('',*,*,#570,.T.);
#792=ORIENTED_EDGE('',*,*,#576,.F.);
#793=ORIENTED_EDGE('',*,*,#577,.F.);
#794=ORIENTED_EDGE('',*,*,#539,.T.);
#795=ORIENTED_EDGE('',*,*,#578,.T.);
#796=ORIENTED_EDGE('',*,*,#579,.T.);
#797=ORIENTED_EDGE('',*,*,#540,.T.);
#798=ORIENTED_EDGE('',*,*,#577,.T.);
#799=ORIENTED_EDGE('',*,*,#568,.T.);
#800=ORIENTED_EDGE('',*,*,#541,.F.);
#801=ORIENTED_EDGE('',*,*,#579,.F.);
#802=ORIENTED_EDGE('',*,*,#580,.T.);
#803=ORIENTED_EDGE('',*,*,#573,.F.);
#804=ORIENTED_EDGE('',*,*,#581,.T.);
#805=ORIENTED_EDGE('',*,*,#555,.F.);
#806=ORIENTED_EDGE('',*,*,#553,.F.);
#807=ORIENTED_EDGE('',*,*,#575,.F.);
#808=ORIENTED_EDGE('',*,*,#558,.T.);
#809=ORIENTED_EDGE('',*,*,#581,.F.);
#810=ORIENTED_EDGE('',*,*,#572,.T.);
#811=ORIENTED_EDGE('',*,*,#582,.F.);
#812=ORIENTED_EDGE('',*,*,#583,.F.);
#813=ORIENTED_EDGE('',*,*,#584,.F.);
#814=ORIENTED_EDGE('',*,*,#560,.T.);
#815=ORIENTED_EDGE('',*,*,#563,.T.);
#816=ORIENTED_EDGE('',*,*,#584,.T.);
#817=ORIENTED_EDGE('',*,*,#585,.F.);
#818=ORIENTED_EDGE('',*,*,#586,.T.);
#819=ORIENTED_EDGE('',*,*,#586,.F.);
#820=ORIENTED_EDGE('',*,*,#587,.F.);
#821=ORIENTED_EDGE('',*,*,#588,.F.);
#822=ORIENTED_EDGE('',*,*,#565,.T.);
#823=ORIENTED_EDGE('',*,*,#588,.T.);
#824=ORIENTED_EDGE('',*,*,#589,.T.);
#825=ORIENTED_EDGE('',*,*,#582,.T.);
#826=ORIENTED_EDGE('',*,*,#567,.T.);
#827=ORIENTED_EDGE('',*,*,#569,.T.);
#828=ORIENTED_EDGE('',*,*,#580,.F.);
#829=ORIENTED_EDGE('',*,*,#578,.F.);
#830=ORIENTED_EDGE('',*,*,#576,.T.);
#831=ORIENTED_EDGE('',*,*,#574,.T.);
#832=ORIENTED_EDGE('',*,*,#590,.T.);
#833=ORIENTED_EDGE('',*,*,#591,.T.);
#834=ORIENTED_EDGE('',*,*,#590,.F.);
#835=ORIENTED_EDGE('',*,*,#583,.T.);
#836=ORIENTED_EDGE('',*,*,#589,.F.);
#837=ORIENTED_EDGE('',*,*,#587,.T.);
#838=ORIENTED_EDGE('',*,*,#585,.T.);
#839=ORIENTED_EDGE('',*,*,#591,.F.);
#840=ORIENTED_EDGE('',*,*,#592,.T.);
#841=ORIENTED_EDGE('',*,*,#593,.T.);
#842=ORIENTED_EDGE('',*,*,#594,.T.);
#843=ORIENTED_EDGE('',*,*,#595,.T.);
#844=ORIENTED_EDGE('',*,*,#596,.F.);
#845=ORIENTED_EDGE('',*,*,#597,.F.);
#846=ORIENTED_EDGE('',*,*,#592,.F.);
#847=ORIENTED_EDGE('',*,*,#598,.T.);
#848=ORIENTED_EDGE('',*,*,#599,.T.);
#849=ORIENTED_EDGE('',*,*,#600,.F.);
#850=ORIENTED_EDGE('',*,*,#593,.F.);
#851=ORIENTED_EDGE('',*,*,#597,.T.);
#852=ORIENTED_EDGE('',*,*,#601,.F.);
#853=ORIENTED_EDGE('',*,*,#602,.F.);
#854=ORIENTED_EDGE('',*,*,#594,.F.);
#855=ORIENTED_EDGE('',*,*,#600,.T.);
#856=ORIENTED_EDGE('',*,*,#595,.F.);
#857=ORIENTED_EDGE('',*,*,#602,.T.);
#858=ORIENTED_EDGE('',*,*,#603,.T.);
#859=ORIENTED_EDGE('',*,*,#598,.F.);
#860=ORIENTED_EDGE('',*,*,#604,.T.);
#861=ORIENTED_EDGE('',*,*,#605,.F.);
#862=ORIENTED_EDGE('',*,*,#606,.T.);
#863=ORIENTED_EDGE('',*,*,#596,.T.);
#864=ORIENTED_EDGE('',*,*,#599,.F.);
#865=ORIENTED_EDGE('',*,*,#606,.F.);
#866=ORIENTED_EDGE('',*,*,#607,.F.);
#867=ORIENTED_EDGE('',*,*,#608,.F.);
#868=ORIENTED_EDGE('',*,*,#608,.T.);
#869=ORIENTED_EDGE('',*,*,#609,.F.);
#870=ORIENTED_EDGE('',*,*,#610,.T.);
#871=ORIENTED_EDGE('',*,*,#601,.T.);
#872=ORIENTED_EDGE('',*,*,#610,.F.);
#873=ORIENTED_EDGE('',*,*,#611,.F.);
#874=ORIENTED_EDGE('',*,*,#604,.F.);
#875=ORIENTED_EDGE('',*,*,#603,.F.);
#876=ORIENTED_EDGE('',*,*,#609,.T.);
#877=ORIENTED_EDGE('',*,*,#607,.T.);
#878=ORIENTED_EDGE('',*,*,#605,.T.);
#879=ORIENTED_EDGE('',*,*,#611,.T.);
#880=PLANE('',#1061);
#881=PLANE('',#1064);
#882=PLANE('',#1066);
#883=PLANE('',#1067);
#884=PLANE('',#1070);
#885=PLANE('',#1071);
#886=PLANE('',#1074);
#887=PLANE('',#1075);
#888=PLANE('',#1076);
#889=PLANE('',#1077);
#890=PLANE('',#1078);
#891=PLANE('',#1079);
#892=PLANE('',#1080);
#893=PLANE('',#1081);
#894=PLANE('',#1082);
#895=PLANE('',#1083);
#896=PLANE('',#1084);
#897=PLANE('',#1085);
#898=PLANE('',#1086);
#899=PLANE('',#1087);
#900=PLANE('',#1088);
#901=PLANE('',#1089);
#902=PLANE('',#1091);
#903=PLANE('',#1092);
#904=PLANE('',#1093);
#905=PLANE('',#1094);
#906=PLANE('',#1095);
#907=PLANE('',#1096);
#908=PLANE('',#1099);
#909=PLANE('',#1100);
#910=PLANE('',#1101);
#911=PLANE('',#1102);
#912=PLANE('',#1103);
#913=PLANE('',#1105);
#914=PLANE('',#1106);
#915=PLANE('',#1107);
#916=PLANE('',#1108);
#917=PLANE('',#1109);
#918=PLANE('',#1112);
#919=PLANE('',#1113);
#920=PLANE('',#1114);
#921=PLANE('',#1115);
#922=PLANE('',#1116);
#923=PLANE('',#1117);
#924=PLANE('',#1118);
#925=PLANE('',#1119);
#926=PLANE('',#1120);
#927=PLANE('',#1121);
#928=PLANE('',#1122);
#929=STYLED_ITEM('',(#1681),#984);
#930=STYLED_ITEM('',(#1681),#985);
#931=STYLED_ITEM('',(#1681),#986);
#932=STYLED_ITEM('',(#1681),#987);
#933=STYLED_ITEM('',(#1681),#988);
#934=STYLED_ITEM('',(#1681),#989);
#935=STYLED_ITEM('',(#1681),#990);
#936=STYLED_ITEM('',(#1681),#991);
#937=STYLED_ITEM('',(#1681),#992);
#938=STYLED_ITEM('',(#1681),#993);
#939=STYLED_ITEM('',(#1681),#994);
#940=STYLED_ITEM('',(#1681),#995);
#941=STYLED_ITEM('',(#1681),#996);
#942=STYLED_ITEM('',(#1681),#997);
#943=STYLED_ITEM('',(#1681),#998);
#944=STYLED_ITEM('',(#1681),#999);
#945=STYLED_ITEM('',(#1681),#1000);
#946=STYLED_ITEM('',(#1681),#1001);
#947=STYLED_ITEM('',(#1681),#1002);
#948=STYLED_ITEM('',(#1681),#1003);
#949=STYLED_ITEM('',(#1681),#1004);
#950=STYLED_ITEM('',(#1681),#1005);
#951=STYLED_ITEM('',(#1681),#1006);
#952=STYLED_ITEM('',(#1681),#1007);
#953=STYLED_ITEM('',(#1681),#1008);
#954=STYLED_ITEM('',(#1681),#1009);
#955=STYLED_ITEM('',(#1682),#1010);
#956=STYLED_ITEM('',(#1682),#1011);
#957=STYLED_ITEM('',(#1682),#1012);
#958=STYLED_ITEM('',(#1682),#1013);
#959=STYLED_ITEM('',(#1681),#1014);
#960=STYLED_ITEM('',(#1681),#1015);
#961=STYLED_ITEM('',(#1681),#1016);
#962=STYLED_ITEM('',(#1681),#1017);
#963=STYLED_ITEM('',(#1681),#1018);
#964=STYLED_ITEM('',(#1681),#1019);
#965=STYLED_ITEM('',(#1681),#1020);
#966=STYLED_ITEM('',(#1682),#1021);
#967=STYLED_ITEM('',(#1682),#1022);
#968=STYLED_ITEM('',(#1682),#1023);
#969=STYLED_ITEM('',(#1682),#1024);
#970=STYLED_ITEM('',(#1681),#1025);
#971=STYLED_ITEM('',(#1681),#1026);
#972=STYLED_ITEM('',(#1682),#1027);
#973=STYLED_ITEM('',(#1681),#1028);
#974=STYLED_ITEM('',(#1682),#1029);
#975=STYLED_ITEM('',(#1682),#1030);
#976=STYLED_ITEM('',(#1682),#1031);
#977=STYLED_ITEM('',(#1682),#1032);
#978=STYLED_ITEM('',(#1682),#1033);
#979=STYLED_ITEM('',(#1682),#1034);
#980=STYLED_ITEM('',(#1682),#1035);
#981=STYLED_ITEM('',(#1682),#1036);
#982=STYLED_ITEM('',(#1682),#1037);
#983=STYLED_ITEM('',(#1680),#13);
#984=ADVANCED_FACE('',(#26),#880,.F.);
#985=ADVANCED_FACE('',(#27,#22),#881,.T.);
#986=ADVANCED_FACE('',(#28),#882,.T.);
#987=ADVANCED_FACE('',(#29,#23),#883,.T.);
#988=ADVANCED_FACE('',(#30),#18,.T.);
#989=ADVANCED_FACE('',(#31),#884,.T.);
#990=ADVANCED_FACE('',(#32),#885,.T.);
#991=ADVANCED_FACE('',(#33),#19,.T.);
#992=ADVANCED_FACE('',(#34),#886,.T.);
#993=ADVANCED_FACE('',(#35),#887,.T.);
#994=ADVANCED_FACE('',(#36),#888,.T.);
#995=ADVANCED_FACE('',(#37),#889,.T.);
#996=ADVANCED_FACE('',(#38),#890,.T.);
#997=ADVANCED_FACE('',(#39),#891,.T.);
#998=ADVANCED_FACE('',(#40),#892,.T.);
#999=ADVANCED_FACE('',(#41),#893,.T.);
#1000=ADVANCED_FACE('',(#42),#894,.T.);
#1001=ADVANCED_FACE('',(#43),#895,.T.);
#1002=ADVANCED_FACE('',(#44),#896,.T.);
#1003=ADVANCED_FACE('',(#45),#897,.T.);
#1004=ADVANCED_FACE('',(#46),#898,.T.);
#1005=ADVANCED_FACE('',(#47),#899,.T.);
#1006=ADVANCED_FACE('',(#48),#900,.T.);
#1007=ADVANCED_FACE('',(#49),#901,.F.);
#1008=ADVANCED_FACE('',(#50),#15,.T.);
#1009=ADVANCED_FACE('',(#51),#902,.F.);
#1010=ADVANCED_FACE('',(#52),#903,.T.);
#1011=ADVANCED_FACE('',(#53),#904,.F.);
#1012=ADVANCED_FACE('',(#54),#905,.F.);
#1013=ADVANCED_FACE('',(#55),#906,.F.);
#1014=ADVANCED_FACE('',(#56,#24),#907,.F.);
#1015=ADVANCED_FACE('',(#57),#908,.T.);
#1016=ADVANCED_FACE('',(#58),#909,.F.);
#1017=ADVANCED_FACE('',(#59),#910,.F.);
#1018=ADVANCED_FACE('',(#60),#911,.F.);
#1019=ADVANCED_FACE('',(#61),#912,.T.);
#1020=ADVANCED_FACE('',(#62),#20,.T.);
#1021=ADVANCED_FACE('',(#63),#913,.T.);
#1022=ADVANCED_FACE('',(#64),#914,.T.);
#1023=ADVANCED_FACE('',(#65),#915,.F.);
#1024=ADVANCED_FACE('',(#66),#916,.F.);
#1025=ADVANCED_FACE('',(#67),#917,.F.);
#1026=ADVANCED_FACE('',(#68),#21,.T.);
#1027=ADVANCED_FACE('',(#69),#918,.F.);
#1028=ADVANCED_FACE('',(#70,#25),#919,.F.);
#1029=ADVANCED_FACE('',(#71),#920,.F.);
#1030=ADVANCED_FACE('',(#72),#921,.F.);
#1031=ADVANCED_FACE('',(#73),#922,.T.);
#1032=ADVANCED_FACE('',(#74),#923,.F.);
#1033=ADVANCED_FACE('',(#75),#924,.F.);
#1034=ADVANCED_FACE('',(#76),#925,.T.);
#1035=ADVANCED_FACE('',(#77),#926,.T.);
#1036=ADVANCED_FACE('',(#78),#927,.F.);
#1037=ADVANCED_FACE('',(#79),#928,.T.);
#1038=CLOSED_SHELL('',(#984,#985,#986,#987,#988,#989,#990,#991,#992,#993,
#994,#995,#996,#997,#998,#999,#1000,#1001,#1002,#1003,#1004,#1005,#1006,
#1007,#1008,#1009,#1010,#1011,#1012,#1013,#1014,#1015,#1016,#1017,#1018,
#1019,#1020,#1021,#1022,#1023,#1024,#1025,#1026,#1027,#1028,#1029,#1030,
#1031,#1032,#1033,#1034,#1035,#1036,#1037));
#1039=DERIVED_UNIT_ELEMENT(#1042,1.);
#1040=DERIVED_UNIT_ELEMENT(#1666,-3.);
#1041=DIMENSIONAL_EXPONENTS(0.,1.,0.,0.,0.,0.,0.);
#1042=(
CONVERSION_BASED_UNIT('gram',#1044)
MASS_UNIT()
NAMED_UNIT(#1041)
);
#1043=(
MASS_UNIT()
NAMED_UNIT(*)
SI_UNIT(.KILO.,.GRAM.)
);
#1044=MASS_MEASURE_WITH_UNIT(MASS_MEASURE(0.001),#1043);
#1045=DERIVED_UNIT((#1039,#1040));
#1046=MEASURE_REPRESENTATION_ITEM('density measure',
POSITIVE_RATIO_MEASURE(1.),#1045);
#1047=PROPERTY_DEFINITION_REPRESENTATION(#1052,#1049);
#1048=PROPERTY_DEFINITION_REPRESENTATION(#1053,#1050);
#1049=REPRESENTATION('material name',(#1051),#1663);
#1050=REPRESENTATION('density',(#1046),#1663);
#1051=DESCRIPTIVE_REPRESENTATION_ITEM('Generic','Generic');
#1052=PROPERTY_DEFINITION('material property','material name',#1673);
#1053=PROPERTY_DEFINITION('material property','density of part',#1673);
#1054=DATE_TIME_ROLE('creation_date');
#1055=APPLIED_DATE_AND_TIME_ASSIGNMENT(#1056,#1054,(#1673));
#1056=DATE_AND_TIME(#1057,#1058);
#1057=CALENDAR_DATE(2026,9,8);
#1058=LOCAL_TIME(0,0,0.,#1059);
#1059=COORDINATED_UNIVERSAL_TIME_OFFSET(0,0,.BEHIND.);
#1060=AXIS2_PLACEMENT_3D('',#1372,#1123,#1124);
#1061=AXIS2_PLACEMENT_3D('',#1373,#1125,#1126);
#1062=AXIS2_PLACEMENT_3D('',#1384,#1131,#1132);
#1063=AXIS2_PLACEMENT_3D('',#1390,#1135,#1136);
#1064=AXIS2_PLACEMENT_3D('',#1394,#1139,#1140);
#1065=AXIS2_PLACEMENT_3D('',#1426,#1156,#1157);
#1066=AXIS2_PLACEMENT_3D('',#1428,#1159,#1160);
#1067=AXIS2_PLACEMENT_3D('',#1432,#1163,#1164);
#1068=AXIS2_PLACEMENT_3D('',#1444,#1171,#1172);
#1069=AXIS2_PLACEMENT_3D('',#1447,#1174,#1175);
#1070=AXIS2_PLACEMENT_3D('',#1448,#1176,#1177);
#1071=AXIS2_PLACEMENT_3D('',#1452,#1180,#1181);
#1072=AXIS2_PLACEMENT_3D('',#1456,#1184,#1185);
#1073=AXIS2_PLACEMENT_3D('',#1459,#1187,#1188);
#1074=AXIS2_PLACEMENT_3D('',#1460,#1189,#1190);
#1075=AXIS2_PLACEMENT_3D('',#1464,#1193,#1194);
#1076=AXIS2_PLACEMENT_3D('',#1468,#1197,#1198);
#1077=AXIS2_PLACEMENT_3D('',#1470,#1200,#1201);
#1078=AXIS2_PLACEMENT_3D('',#1471,#1202,#1203);
#1079=AXIS2_PLACEMENT_3D('',#1479,#1208,#1209);
#1080=AXIS2_PLACEMENT_3D('',#1483,#1212,#1213);
#1081=AXIS2_PLACEMENT_3D('',#1487,#1216,#1217);
#1082=AXIS2_PLACEMENT_3D('',#1491,#1220,#1221);
#1083=AXIS2_PLACEMENT_3D('',#1495,#1224,#1225);
#1084=AXIS2_PLACEMENT_3D('',#1507,#1232,#1233);
#1085=AXIS2_PLACEMENT_3D('',#1511,#1236,#1237);
#1086=AXIS2_PLACEMENT_3D('',#1515,#1240,#1241);
#1087=AXIS2_PLACEMENT_3D('',#1519,#1244,#1245);
#1088=AXIS2_PLACEMENT_3D('',#1523,#1248,#1249);
#1089=AXIS2_PLACEMENT_3D('',#1529,#1253,#1254);
#1090=AXIS2_PLACEMENT_3D('',#1535,#1256,#1257);
#1091=AXIS2_PLACEMENT_3D('',#1551,#1258,#1259);
#1092=AXIS2_PLACEMENT_3D('',#1553,#1261,#1262);
#1093=AXIS2_PLACEMENT_3D('',#1559,#1266,#1267);
#1094=AXIS2_PLACEMENT_3D('',#1563,#1270,#1271);
#1095=AXIS2_PLACEMENT_3D('',#1567,#1274,#1275);
#1096=AXIS2_PLACEMENT_3D('',#1569,#1277,#1278);
#1097=AXIS2_PLACEMENT_3D('',#1578,#1283,#1284);
#1098=AXIS2_PLACEMENT_3D('',#1581,#1286,#1287);
#1099=AXIS2_PLACEMENT_3D('',#1582,#1288,#1289);
#1100=AXIS2_PLACEMENT_3D('',#1584,#1291,#1292);
#1101=AXIS2_PLACEMENT_3D('',#1588,#1295,#1296);
#1102=AXIS2_PLACEMENT_3D('',#1592,#1299,#1300);
#1103=AXIS2_PLACEMENT_3D('',#1594,#1302,#1303);
#1104=AXIS2_PLACEMENT_3D('',#1596,#1305,#1306);
#1105=AXIS2_PLACEMENT_3D('',#1597,#1307,#1308);
#1106=AXIS2_PLACEMENT_3D('',#1603,#1312,#1313);
#1107=AXIS2_PLACEMENT_3D('',#1607,#1316,#1317);
#1108=AXIS2_PLACEMENT_3D('',#1611,#1320,#1321);
#1109=AXIS2_PLACEMENT_3D('',#1613,#1323,#1324);
#1110=AXIS2_PLACEMENT_3D('',#1614,#1325,#1326);
#1111=AXIS2_PLACEMENT_3D('',#1617,#1328,#1329);
#1112=AXIS2_PLACEMENT_3D('',#1618,#1330,#1331);
#1113=AXIS2_PLACEMENT_3D('',#1619,#1332,#1333);
#1114=AXIS2_PLACEMENT_3D('',#1628,#1338,#1339);
#1115=AXIS2_PLACEMENT_3D('',#1634,#1343,#1344);
#1116=AXIS2_PLACEMENT_3D('',#1638,#1347,#1348);
#1117=AXIS2_PLACEMENT_3D('',#1642,#1351,#1352);
#1118=AXIS2_PLACEMENT_3D('',#1644,#1354,#1355);
#1119=AXIS2_PLACEMENT_3D('',#1650,#1359,#1360);
#1120=AXIS2_PLACEMENT_3D('',#1654,#1363,#1364);
#1121=AXIS2_PLACEMENT_3D('',#1658,#1367,#1368);
#1122=AXIS2_PLACEMENT_3D('',#1660,#1370,#1371);
#1123=DIRECTION('axis',(0.,0.,1.));
#1124=DIRECTION('refdir',(1.,0.,0.));
#1125=DIRECTION('center_axis',(-1.,0.,7.04791630565448E-16));
#1126=DIRECTION('ref_axis',(7.04791630565448E-16,0.,1.));
#1127=DIRECTION('',(4.56071664990238E-29,-1.,6.47101420067E-14));
#1128=DIRECTION('',(-7.04693763219443E-16,-0.0166643530230403,-0.999861140028116));
#1129=DIRECTION('',(4.56071664990238E-29,-1.,6.47101420067E-14));
#1130=DIRECTION('',(-7.04791630565448E-16,-6.026924993751E-14,-1.));
#1131=DIRECTION('center_axis',(-1.,0.,7.04791630565448E-16));
#1132=DIRECTION('ref_axis',(0.,-1.,6.47101420067E-14));
#1133=DIRECTION('',(-1.08205236160924E-28,1.,-1.535279811341E-13));
#1134=DIRECTION('',(-7.04791630565448E-16,0.,-1.));
#1135=DIRECTION('center_axis',(-1.,0.,7.04791630565448E-16));
#1136=DIRECTION('ref_axis',(0.,0.,-1.));
#1137=DIRECTION('',(4.93028852815715E-29,1.,6.995384613466E-14));
#1138=DIRECTION('',(7.04791630565448E-16,0.,1.));
#1139=DIRECTION('center_axis',(0.,-6.47101420067E-14,-1.));
#1140=DIRECTION('ref_axis',(0.,1.,-6.47101420067E-14));
#1141=DIRECTION('',(1.,0.,0.));
#1142=DIRECTION('',(4.56071664819529E-29,-1.,6.47101420067E-14));
#1143=DIRECTION('',(1.,1.817058960124E-14,0.));
#1144=DIRECTION('',(-3.590167131862E-11,1.,4.112917785831E-9));
#1145=DIRECTION('',(1.,0.,2.153159799838E-14));
#1146=DIRECTION('',(0.,-1.,3.94745965048E-14));
#1147=DIRECTION('',(-1.,0.,-1.776356827676E-14));
#1148=DIRECTION('',(-0.362446259504894,-0.932004672182984,2.02347795491496E-14));
#1149=DIRECTION('',(1.,0.,0.));
#1150=DIRECTION('',(-0.362446261789509,0.932004671294522,-2.20743049416705E-14));
#1151=DIRECTION('',(-1.,-2.664535264074E-14,-1.776356842716E-14));
#1152=DIRECTION('',(0.,1.,-4.342205615528E-14));
#1153=DIRECTION('',(1.,0.,2.368475815474E-14));
#1154=DIRECTION('',(-6.097615786616E-11,-1.,-6.987134860145E-9));
#1155=DIRECTION('',(0.99999999999981,-6.16006918521906E-7,0.));
#1156=DIRECTION('center_axis',(0.,6.47101420067E-14,1.));
#1157=DIRECTION('ref_axis',(0.,1.,-6.47101420067E-14));
#1158=DIRECTION('',(0.999999999999929,3.76630039627211E-7,4.36866375347413E-14));
#1159=DIRECTION('center_axis',(0.,-1.,0.));
#1160=DIRECTION('ref_axis',(0.,0.,-1.));
#1161=DIRECTION('',(1.,0.,0.));
#1162=DIRECTION('',(7.04791630301643E-16,0.,1.));
#1163=DIRECTION('center_axis',(0.,-6.995384613466E-14,1.));
#1164=DIRECTION('ref_axis',(0.,-1.,-6.995384613466E-14));
#1165=DIRECTION('',(-1.,-1.387506221951E-13,0.));
#1166=DIRECTION('',(4.93028852631173E-29,1.,6.995384613466E-14));
#1167=DIRECTION('',(-1.,0.,0.));
#1168=DIRECTION('',(0.,1.,6.994731574581E-14));
#1169=DIRECTION('',(1.,0.,0.));
#1170=DIRECTION('',(0.,-1.,-6.994731574581E-14));
#1171=DIRECTION('center_axis',(1.,0.,0.));
#1172=DIRECTION('ref_axis',(0.,0.,-1.));
#1173=DIRECTION('',(1.,0.,-4.226759922285E-10));
#1174=DIRECTION('center_axis',(-1.,0.,7.04791630301643E-16));
#1175=DIRECTION('ref_axis',(0.,0.,-1.));
#1176=DIRECTION('center_axis',(0.,1.,0.));
#1177=DIRECTION('ref_axis',(0.,0.,1.));
#1178=DIRECTION('',(1.,0.,0.));
#1179=DIRECTION('',(-7.04791630301643E-16,0.,-1.));
#1180=DIRECTION('center_axis',(0.,1.535279811341E-13,1.));
#1181=DIRECTION('ref_axis',(0.,-1.,1.535279811341E-13));
#1182=DIRECTION('',(-1.,0.,0.));
#1183=DIRECTION('',(-1.08205236120422E-28,1.,-1.535279811341E-13));
#1184=DIRECTION('center_axis',(1.,0.,0.));
#1185=DIRECTION('ref_axis',(0.,-1.,6.47101420067E-14));
#1186=DIRECTION('',(1.,0.,0.));
#1187=DIRECTION('center_axis',(-1.,0.,7.04791630301643E-16));
#1188=DIRECTION('ref_axis',(0.,-1.,6.47101420067E-14));
#1189=DIRECTION('center_axis',(0.,1.,-6.026924993751E-14));
#1190=DIRECTION('ref_axis',(0.,6.026924993751E-14,1.));
#1191=DIRECTION('',(1.,0.,0.));
#1192=DIRECTION('',(-7.04791630301643E-16,-6.026924993751E-14,-1.));
#1193=DIRECTION('center_axis',(0.,-6.47101420067E-14,-1.));
#1194=DIRECTION('ref_axis',(0.,1.,-6.47101420067E-14));
#1195=DIRECTION('',(1.,1.824327195965E-14,0.));
#1196=DIRECTION('',(4.56071664819529E-29,-1.,6.47101420067E-14));
#1197=DIRECTION('center_axis',(0.,0.999861140028116,-0.0166643530230403));
#1198=DIRECTION('ref_axis',(0.,0.0166643530230403,0.999861140028116));
#1199=DIRECTION('',(-7.04693762955675E-16,-0.0166643530230403,-0.999861140028116));
#1200=DIRECTION('center_axis',(-1.,0.,7.04791630301643E-16));
#1201=DIRECTION('ref_axis',(7.04791630301643E-16,0.,1.));
#1202=DIRECTION('center_axis',(-0.999961923064171,0.,-0.00872653549837375));
#1203=DIRECTION('ref_axis',(0.,1.,0.));
#1204=DIRECTION('',(0.,-1.,0.));
#1205=DIRECTION('',(0.00872653549839375,0.,-0.999961923064171));
#1206=DIRECTION('',(-0.00846600273516513,0.242526631318304,0.970107808389915));
#1207=DIRECTION('',(-0.00872653547798942,-4.37753838465721E-8,0.999961923064348));
#1208=DIRECTION('center_axis',(0.,-1.,0.));
#1209=DIRECTION('ref_axis',(-1.,0.,0.));
#1210=DIRECTION('',(1.,0.,0.));
#1211=DIRECTION('',(0.,0.,-1.));
#1212=DIRECTION('center_axis',(-1.,0.,0.));
#1213=DIRECTION('ref_axis',(0.,1.,0.));
#1214=DIRECTION('',(0.,-1.,0.));
#1215=DIRECTION('',(0.,0.,-1.));
#1216=DIRECTION('center_axis',(0.,1.,0.));
#1217=DIRECTION('ref_axis',(1.,0.,0.));
#1218=DIRECTION('',(-1.,0.,0.));
#1219=DIRECTION('',(0.,0.,-1.));
#1220=DIRECTION('center_axis',(-0.93200467218295,0.362446259504981,0.));
#1221=DIRECTION('ref_axis',(0.362446259504981,0.93200467218295,0.));
#1222=DIRECTION('',(0.362446259504894,0.932004672182984,0.));
#1223=DIRECTION('',(0.,0.,-1.));
#1224=DIRECTION('center_axis',(0.,-1.,0.));
#1225=DIRECTION('ref_axis',(-1.,0.,0.));
#1226=DIRECTION('',(1.,-1.332267630909E-14,0.));
#1227=DIRECTION('',(0.,0.,1.));
#1228=DIRECTION('',(1.,0.,0.));
#1229=DIRECTION('',(0.,0.,1.));
#1230=DIRECTION('',(1.,0.,0.));
#1231=DIRECTION('',(0.,0.,-1.));
#1232=DIRECTION('center_axis',(0.932004671294522,0.362446261789509,0.));
#1233=DIRECTION('ref_axis',(0.362446261789509,-0.932004671294522,0.));
#1234=DIRECTION('',(0.362446261789509,-0.932004671294522,0.));
#1235=DIRECTION('',(0.,0.,-1.));
#1236=DIRECTION('center_axis',(0.,1.,0.));
#1237=DIRECTION('ref_axis',(1.,0.,0.));
#1238=DIRECTION('',(-1.,-2.664535264073E-14,0.));
#1239=DIRECTION('',(0.,0.,-1.));
#1240=DIRECTION('center_axis',(1.,0.,0.));
#1241=DIRECTION('ref_axis',(0.,-1.,0.));
#1242=DIRECTION('',(0.,1.,0.));
#1243=DIRECTION('',(0.,0.,-1.));
#1244=DIRECTION('center_axis',(0.,-1.,0.));
#1245=DIRECTION('ref_axis',(-1.,0.,0.));
#1246=DIRECTION('',(1.,0.,0.));
#1247=DIRECTION('',(0.00872653549838275,0.,0.999961923064171));
#1248=DIRECTION('center_axis',(0.999961923064171,0.,-0.00872653549837375));
#1249=DIRECTION('ref_axis',(0.,-1.,0.));
#1250=DIRECTION('',(-1.659234463567E-14,1.,0.));
#1251=DIRECTION('',(-0.00872653543641209,6.73360682387807E-8,-0.99996192306471));
#1252=DIRECTION('',(-0.00846600370474602,-0.2425263255107,-0.970107884833202));
#1253=DIRECTION('center_axis',(0.,-0.970142500145338,0.242535625036309));
#1254=DIRECTION('ref_axis',(0.,0.242535625036309,0.970142500145338));
#1255=DIRECTION('',(0.999999999994866,-1.18004619332396E-6,2.9791969056849E-6));
#1256=DIRECTION('center_axis',(0.,6.47101420067E-14,1.));
#1257=DIRECTION('ref_axis',(0.,1.,-6.47101420067E-14));
#1258=DIRECTION('center_axis',(0.,-0.970142500145338,0.242535625036309));
#1259=DIRECTION('ref_axis',(0.,0.242535625036309,0.970142500145338));
#1260=DIRECTION('',(0.999999999989716,-1.26072925553102E-6,-4.35648006773607E-6));
#1261=DIRECTION('center_axis',(0.,-1.,0.));
#1262=DIRECTION('ref_axis',(1.,0.,0.));
#1263=DIRECTION('',(1.,0.,0.));
#1264=DIRECTION('',(0.,0.,1.));
#1265=DIRECTION('',(0.,0.,1.));
#1266=DIRECTION('center_axis',(1.,0.,0.));
#1267=DIRECTION('ref_axis',(0.,1.,0.));
#1268=DIRECTION('',(0.,-1.,0.));
#1269=DIRECTION('',(0.,0.,1.));
#1270=DIRECTION('center_axis',(0.,-1.,0.));
#1271=DIRECTION('ref_axis',(1.,0.,0.));
#1272=DIRECTION('',(-1.,0.,0.));
#1273=DIRECTION('',(0.,0.,1.));
#1274=DIRECTION('center_axis',(-1.,0.,0.));
#1275=DIRECTION('ref_axis',(0.,-1.,0.));
#1276=DIRECTION('',(0.,1.,0.));
#1277=DIRECTION('center_axis',(0.,0.,1.));
#1278=DIRECTION('ref_axis',(-1.,0.,0.));
#1279=DIRECTION('',(0.,1.,0.));
#1280=DIRECTION('',(-1.,0.,0.));
#1281=DIRECTION('',(0.,-1.,0.));
#1282=DIRECTION('',(-0.999999999999995,9.95925470023295E-8,0.));
#1283=DIRECTION('center_axis',(0.,0.,-1.));
#1284=DIRECTION('ref_axis',(-0.484374762131717,0.874860611646131,0.));
#1285=DIRECTION('',(-0.999999999999939,-3.48537114896114E-7,0.));
#1286=DIRECTION('center_axis',(0.,0.,-1.));
#1287=DIRECTION('ref_axis',(-1.,0.,0.));
#1288=DIRECTION('center_axis',(0.,1.,0.));
#1289=DIRECTION('ref_axis',(1.,0.,0.));
#1290=DIRECTION('',(-2.58828081972095E-8,-1.98191592280096E-7,0.99999999999998));
#1291=DIRECTION('center_axis',(-1.,0.,0.));
#1292=DIRECTION('ref_axis',(0.,1.,0.));
#1293=DIRECTION('',(0.,0.,1.));
#1294=DIRECTION('',(0.,-1.,0.));
#1295=DIRECTION('center_axis',(0.,0.,1.));
#1296=DIRECTION('ref_axis',(-1.,0.,0.));
#1297=DIRECTION('',(-1.,0.,0.));
#1298=DIRECTION('',(0.,1.,0.));
#1299=DIRECTION('center_axis',(1.,0.,0.));
#1300=DIRECTION('ref_axis',(0.,-1.,0.));
#1301=DIRECTION('',(0.,0.,1.));
#1302=DIRECTION('center_axis',(0.,1.,0.));
#1303=DIRECTION('ref_axis',(1.,0.,0.));
#1304=DIRECTION('',(4.05878384468404E-7,-1.31653288898001E-7,-0.999999999999909));
#1305=DIRECTION('center_axis',(0.,0.,1.));
#1306=DIRECTION('ref_axis',(-1.,0.,0.));
#1307=DIRECTION('center_axis',(0.,-0.948683298050164,0.316227766017888));
#1308=DIRECTION('ref_axis',(-1.,0.,0.));
#1309=DIRECTION('',(0.301511344578391,-0.301511344578391,-0.904534033732873));
#1310=DIRECTION('',(1.,0.,0.));
#1311=DIRECTION('',(0.301511344578391,0.301511344578391,0.904534033732873));
#1312=DIRECTION('center_axis',(-0.948683298050164,0.,0.316227766017888));
#1313=DIRECTION('ref_axis',(0.,-1.,0.));
#1314=DIRECTION('',(0.,-1.,0.));
#1315=DIRECTION('',(-0.301511344578391,0.301511344578391,-0.904534033732873));
#1316=DIRECTION('center_axis',(0.,-0.948683298050164,-0.316227766017888));
#1317=DIRECTION('ref_axis',(-1.,0.,0.));
#1318=DIRECTION('',(-1.,-4.662936703429E-14,0.));
#1319=DIRECTION('',(-0.301511344578391,-0.301511344578391,0.904534033732873));
#1320=DIRECTION('center_axis',(-0.948683298050164,0.,-0.316227766017888));
#1321=DIRECTION('ref_axis',(0.,-1.,0.));
#1322=DIRECTION('',(-4.884981308354E-14,-1.,0.));
#1323=DIRECTION('center_axis',(0.,1.,0.));
#1324=DIRECTION('ref_axis',(1.,0.,0.));
#1325=DIRECTION('center_axis',(0.,0.,1.));
#1326=DIRECTION('ref_axis',(-1.,0.,0.));
#1327=DIRECTION('',(0.,0.,-1.));
#1328=DIRECTION('center_axis',(0.,0.,1.));
#1329=DIRECTION('ref_axis',(1.,0.,0.));
#1330=DIRECTION('center_axis',(0.,0.,-1.));
#1331=DIRECTION('ref_axis',(1.,0.,0.));
#1332=DIRECTION('center_axis',(0.,0.,1.));
#1333=DIRECTION('ref_axis',(-1.,0.,0.));
#1334=DIRECTION('',(-1.,0.,0.));
#1335=DIRECTION('',(0.,-1.,0.));
#1336=DIRECTION('',(1.,0.,0.));
#1337=DIRECTION('',(0.,1.,0.));
#1338=DIRECTION('center_axis',(0.,-1.,0.));
#1339=DIRECTION('ref_axis',(1.,0.,0.));
#1340=DIRECTION('',(1.,0.,0.));
#1341=DIRECTION('',(7.359192621375E-14,7.308439568813E-14,-1.));
#1342=DIRECTION('',(-7.257686516252E-14,7.308439568813E-14,-1.));
#1343=DIRECTION('center_axis',(1.,0.,0.));
#1344=DIRECTION('ref_axis',(0.,1.,0.));
#1345=DIRECTION('',(-6.394884621841E-13,-1.,3.900213485508E-12));
#1346=DIRECTION('',(-7.257686516259E-14,7.30843956882E-14,-1.));
#1347=DIRECTION('center_axis',(0.,-1.,0.));
#1348=DIRECTION('ref_axis',(1.,0.,0.));
#1349=DIRECTION('',(-1.,0.,0.));
#1350=DIRECTION('',(7.359192621381E-14,7.30843956882E-14,-1.));
#1351=DIRECTION('center_axis',(-1.,0.,0.));
#1352=DIRECTION('ref_axis',(0.,-1.,0.));
#1353=DIRECTION('',(-6.394884621841E-13,1.,-3.899103262484E-12));
#1354=DIRECTION('center_axis',(0.,-0.948683298049894,0.316227766018698));
#1355=DIRECTION('ref_axis',(-1.,0.,0.));
#1356=DIRECTION('',(-0.301511344579191,-0.301511344578491,-0.904534033732573));
#1357=DIRECTION('',(1.,0.,0.));
#1358=DIRECTION('',(-0.301511344579191,0.301511344578491,0.904534033732573));
#1359=DIRECTION('center_axis',(-0.948683298049924,-2.04627981226205E-14,
-0.316227766018608));
#1360=DIRECTION('ref_axis',(-1.95653122782655E-17,-1.,6.47677453041705E-14));
#1361=DIRECTION('',(0.,1.,-2.664535259103E-14));
#1362=DIRECTION('',(0.3015113445784,0.3015113445792,-0.9045340337326));
#1363=DIRECTION('center_axis',(0.,-0.948683298049964,-0.316227766018488));
#1364=DIRECTION('ref_axis',(-1.,0.,0.));
#1365=DIRECTION('',(-1.,-2.742250870827E-13,0.));
#1366=DIRECTION('',(0.301511344578391,-0.301511344579291,0.904534033732573));
#1367=DIRECTION('center_axis',(-0.948683298049924,2.04558592287205E-14,
0.316227766018608));
#1368=DIRECTION('ref_axis',(2.54898437521336E-17,-1.,6.47635761894259E-14));
#1369=DIRECTION('',(-3.77475828373E-14,-1.,2.664535259104E-14));
#1370=DIRECTION('center_axis',(0.,-6.472600233565E-14,-1.));
#1371=DIRECTION('ref_axis',(-1.,0.,0.));
#1372=CARTESIAN_POINT('',(0.,0.,0.));
#1373=CARTESIAN_POINT('Origin',(9.52500000493925,0.,-6.71314028461703E-15));
#1374=CARTESIAN_POINT('',(9.52500000493924,7.04999999809315,-9.199999999758));
#1375=CARTESIAN_POINT('',(9.52500000493924,0.05000000000018,-9.19999999976));
#1376=CARTESIAN_POINT('',(9.52500000493924,0.0249999999997923,-9.19999999976));
#1377=CARTESIAN_POINT('',(9.52500000493925,7.10000000000015,-6.20000000028));
#1378=CARTESIAN_POINT('',(9.52500000493925,7.12566648255854,-4.66001111042188));
#1379=CARTESIAN_POINT('',(9.52500000493925,7.289999998,-6.20000000028));
#1380=CARTESIAN_POINT('',(9.52500000493925,3.5499999999998,-6.20000000027977));
#1381=CARTESIAN_POINT('',(9.52500000493925,7.289999998,-5.99999999896));
#1382=CARTESIAN_POINT('',(9.52500000493925,7.28999999800019,-3.10000000014023));
#1383=CARTESIAN_POINT('',(9.52500000493925,7.089999999222,-5.800000000181));
#1384=CARTESIAN_POINT('Origin',(9.52500000493925,7.08999999922,-5.99999999896));
#1385=CARTESIAN_POINT('',(9.52500000493925,7.050000000253,-5.800000000181));
#1386=CARTESIAN_POINT('',(9.52500000493925,3.54499999960955,-5.80000000018046));
#1387=CARTESIAN_POINT('',(9.52500000493925,7.050000001045,-0.499999985054648));
#1388=CARTESIAN_POINT('',(9.52500000493925,7.050000000002,-4.5999999998805));
#1389=CARTESIAN_POINT('',(9.52500000493925,6.55000000174242,7.224155367357E-14));
#1390=CARTESIAN_POINT('Origin',(9.52500000493925,6.550000001782,-0.5000000007603));
#1391=CARTESIAN_POINT('',(9.52500000493925,0.05000000000018,2.855566489306E-14));
#1392=CARTESIAN_POINT('',(9.52500000493925,3.2750000008915,2.25601153846625E-13));
#1393=CARTESIAN_POINT('',(9.52500000493925,0.05000000000018,-1.87474574080638E-15));
#1394=CARTESIAN_POINT('Origin',(13.72999999994,0.05000000000018,-9.19999999976));
#1395=CARTESIAN_POINT('',(5.71500000000003,0.05000000000018,-9.19999999976));
#1396=CARTESIAN_POINT('',(1.51000000006,0.05000000000018,-9.19999999976));
#1397=CARTESIAN_POINT('',(5.71500000000003,7.04999999809308,-9.199999999758));
#1398=CARTESIAN_POINT('',(5.71500000000003,0.0249999999997923,-9.19999999976));
#1399=CARTESIAN_POINT('',(1.51000000006,7.049999998093,-9.199999999758));
#1400=CARTESIAN_POINT('',(9.19500000086072,0.449999912864073,-9.20000001874205));
#1401=CARTESIAN_POINT('',(9.195000000706,5.19977676784,-9.19999999976));
#1402=CARTESIAN_POINT('',(9.195000000876,0.4499999120903,-9.200000019296));
#1403=CARTESIAN_POINT('',(8.3699999986,5.19977676784,-9.19999999976));
#1404=CARTESIAN_POINT('',(8.3699999986,5.19977676784,-9.19999999976));
#1405=CARTESIAN_POINT('',(8.3699999986,5.649776767,-9.19999999976));
#1406=CARTESIAN_POINT('',(8.3699999986,5.649776767,-9.19999999976));
#1407=CARTESIAN_POINT('',(8.67000000058,5.649776767,-9.19999999976));
#1408=CARTESIAN_POINT('',(8.67000000058,5.649776767,-9.19999999976));
#1409=CARTESIAN_POINT('',(9.01999999908,6.54977676786,-9.19999999976));
#1410=CARTESIAN_POINT('',(9.01999999908,6.54977676786,-9.19999999976));
#1411=CARTESIAN_POINT('',(6.21999999838,6.54977676786,-9.19999999976));
#1412=CARTESIAN_POINT('',(6.21999999838,6.54977676786,-9.19999999976));
#1413=CARTESIAN_POINT('',(6.56999999942,5.649776767,-9.19999999976));
#1414=CARTESIAN_POINT('',(6.56999999942,5.649776767,-9.19999999976));
#1415=CARTESIAN_POINT('',(6.86999999886,5.649776767,-9.19999999976));
#1416=CARTESIAN_POINT('',(6.86999999886,5.649776767,-9.19999999976));
#1417=CARTESIAN_POINT('',(6.86999999886,5.19977676784,-9.19999999976));
#1418=CARTESIAN_POINT('',(6.86999999886,5.19977676784,-9.19999999976));
#1419=CARTESIAN_POINT('',(6.045000009173,5.19977676784,-9.19999999976));
#1420=CARTESIAN_POINT('',(6.045000009173,5.19977676784,-9.19999999976));
#1421=CARTESIAN_POINT('',(6.04500000889578,0.44977661821334,-9.20000003254617));
#1422=CARTESIAN_POINT('',(6.045000009173,5.19977676784,-9.19999999976));
#1423=CARTESIAN_POINT('',(6.89854003372568,0.449776497481374,-9.20000004237235));
#1424=CARTESIAN_POINT('',(6.045000008883,0.4497766176699,-9.200000032949));
#1425=CARTESIAN_POINT('',(8.34111082390793,0.449999818113949,-9.20000002531806));
#1426=CARTESIAN_POINT('Origin',(7.620011089339,-0.7499856582499,-9.19999999976));
#1427=CARTESIAN_POINT('',(8.341112044914,0.4499995904905,-9.200000019296));
#1428=CARTESIAN_POINT('Origin',(13.72999999994,0.05000000000018,0.));
#1429=CARTESIAN_POINT('',(5.71500000000003,0.05000000000018,2.855566489306E-14));
#1430=CARTESIAN_POINT('',(1.51000000006,0.05000000000018,2.855566489306E-14));
#1431=CARTESIAN_POINT('',(5.71500000000003,0.05000000000018,8.10510374825724E-16));
#1432=CARTESIAN_POINT('Origin',(13.72999999994,6.550000001783,4.547E-13));
#1433=CARTESIAN_POINT('',(5.71500000000003,6.55000000174189,7.224155367357E-14));
#1434=CARTESIAN_POINT('',(13.72999999994,6.550000001743,7.224155367357E-14));
#1435=CARTESIAN_POINT('',(5.71500000000003,3.2750000008915,2.25601153846625E-13));
#1436=CARTESIAN_POINT('',(8.01999999994,2.65,1.820110506757E-13));
#1437=CARTESIAN_POINT('',(7.21999999994,2.65,1.820110506757E-13));
#1438=CARTESIAN_POINT('',(8.01999999994,2.65,1.820110506757E-13));
#1439=CARTESIAN_POINT('',(7.21999999994,3.45,2.379689032724E-13));
#1440=CARTESIAN_POINT('',(7.21999999994,2.65,1.820110506757E-13));
#1441=CARTESIAN_POINT('',(8.01999999994,3.45,2.379689032724E-13));
#1442=CARTESIAN_POINT('',(7.21999999994,3.45,2.379689032724E-13));
#1443=CARTESIAN_POINT('',(8.01999999994,3.45,2.379689032724E-13));
#1444=CARTESIAN_POINT('Origin',(13.72999999994,6.550000001782,-0.5000000007603));
#1445=CARTESIAN_POINT('',(5.71500000000003,7.050000001045,-0.499999983444253));
#1446=CARTESIAN_POINT('',(1.51000000006,7.050000001045,-0.4999999816669));
#1447=CARTESIAN_POINT('Origin',(5.71500000000003,6.550000001782,-0.5000000007603));
#1448=CARTESIAN_POINT('Origin',(13.72999999994,7.050000000002,-9.199999999761));
#1449=CARTESIAN_POINT('',(5.71500000000003,7.050000000253,-5.800000000181));
#1450=CARTESIAN_POINT('',(1.51000000006,7.050000000253,-5.800000000181));
#1451=CARTESIAN_POINT('',(5.71500000000003,7.050000000002,-4.5999999998805));
#1452=CARTESIAN_POINT('Origin',(1.95000000006,7.08999999922,-5.800000000181));
#1453=CARTESIAN_POINT('',(5.71500000000003,7.089999999222,-5.800000000181));
#1454=CARTESIAN_POINT('',(13.72999999994,7.089999999222,-5.800000000181));
#1455=CARTESIAN_POINT('',(5.71500000000003,3.54499999960955,-5.80000000018046));
#1456=CARTESIAN_POINT('Origin',(1.95000000006,7.08999999922,-5.99999999896));
#1457=CARTESIAN_POINT('',(5.71500000000003,7.289999998,-5.99999999896));
#1458=CARTESIAN_POINT('',(1.51000000006,7.289999998,-5.99999999896));
#1459=CARTESIAN_POINT('Origin',(5.71500000000003,7.08999999922,-5.99999999896));
#1460=CARTESIAN_POINT('Origin',(1.95000000006,7.289999998,-6.20000000028));
#1461=CARTESIAN_POINT('',(5.71500000000003,7.289999998,-6.20000000028));
#1462=CARTESIAN_POINT('',(1.51000000006,7.289999998,-6.20000000028));
#1463=CARTESIAN_POINT('',(5.71500000000003,7.28999999800019,-3.10000000014022));
#1464=CARTESIAN_POINT('Origin',(1.95000000006,7.1,-6.20000000028));
#1465=CARTESIAN_POINT('',(5.71500000000003,7.10000000000008,-6.20000000028));
#1466=CARTESIAN_POINT('',(1.51000000006,7.1,-6.20000000028));
#1467=CARTESIAN_POINT('',(5.71500000000003,3.5499999999998,-6.20000000027977));
#1468=CARTESIAN_POINT('Origin',(1.95000000006,7.04999999794,-9.19999999976));
#1469=CARTESIAN_POINT('',(5.71500000000003,7.12566648255854,-4.66001111042187));
#1470=CARTESIAN_POINT('Origin',(5.71500000000003,0.,-4.02788416717391E-15));
#1471=CARTESIAN_POINT('Origin',(9.121699862958,-0.8850886355328,-0.8006361609796));
#1472=CARTESIAN_POINT('',(9.135657299736,5.19977676784,-2.4000000006));
#1473=CARTESIAN_POINT('',(9.13565729973576,0.650000052082419,-2.4000000006));
#1474=CARTESIAN_POINT('',(9.135657299736,5.19977676784,-2.4000000006));
#1475=CARTESIAN_POINT('',(9.135657299736,5.19977676784,-2.4000000006));
#1476=CARTESIAN_POINT('',(9.18801848323264,0.650000315214244,-8.39999734935074));
#1477=CARTESIAN_POINT('',(9.195000000876,0.4499999120903,-9.200000019296));
#1478=CARTESIAN_POINT('',(9.188018483209,0.6500003153785,-8.399997348016));
#1479=CARTESIAN_POINT('Origin',(9.19459666792,5.19977676784,-9.19999999976));
#1480=CARTESIAN_POINT('',(8.3699999986,5.19977676784,-2.4000000006));
#1481=CARTESIAN_POINT('',(8.3699999986,5.19977676784,-2.4000000006));
#1482=CARTESIAN_POINT('',(8.3699999986,5.19977676784,-2.4000000006));
#1483=CARTESIAN_POINT('Origin',(8.3699999986,5.14977676672,-9.19999999976));
#1484=CARTESIAN_POINT('',(8.3699999986,5.649776767,-2.4000000006));
#1485=CARTESIAN_POINT('',(8.3699999986,5.649776767,-2.4000000006));
#1486=CARTESIAN_POINT('',(8.3699999986,5.649776767,-2.4000000006));
#1487=CARTESIAN_POINT('Origin',(8.3699999986,5.649776767,-9.19999999976));
#1488=CARTESIAN_POINT('',(8.67000000058,5.649776767,-2.4000000006));
#1489=CARTESIAN_POINT('',(8.67000000058,5.649776767,-2.4000000006));
#1490=CARTESIAN_POINT('',(8.67000000058,5.649776767,-2.4000000006));
#1491=CARTESIAN_POINT('Origin',(8.67000000058,5.649776767,-9.19999999976));
#1492=CARTESIAN_POINT('',(9.01999999908,6.54977676786,-2.4000000006));
#1493=CARTESIAN_POINT('',(8.67000000058,5.649776767,-2.4000000006));
#1494=CARTESIAN_POINT('',(9.01999999908,6.54977676786,-2.4000000006));
#1495=CARTESIAN_POINT('Origin',(9.01999999908,6.54977676786,-9.19999999976));
#1496=CARTESIAN_POINT('',(8.0200000001,6.54977676786,-2.4000000006));
#1497=CARTESIAN_POINT('',(8.0200000001,6.54977676786,-2.4000000006));
#1498=CARTESIAN_POINT('',(8.0200000001,6.54977676786,-3.6000000009));
#1499=CARTESIAN_POINT('',(8.0200000001,6.54977676786,-3.6000000009));
#1500=CARTESIAN_POINT('',(7.2199999999,6.54977676786,-3.6000000009));
#1501=CARTESIAN_POINT('',(7.2199999999,6.54977676786,-3.6000000009));
#1502=CARTESIAN_POINT('',(7.2199999999,6.54977676786,-2.4000000006));
#1503=CARTESIAN_POINT('',(7.2199999999,6.54977676786,-3.6000000009));
#1504=CARTESIAN_POINT('',(6.21999999838,6.54977676786,-2.4000000006));
#1505=CARTESIAN_POINT('',(6.21999999838,6.54977676786,-2.4000000006));
#1506=CARTESIAN_POINT('',(6.21999999838,6.54977676786,-2.4000000006));
#1507=CARTESIAN_POINT('Origin',(6.21999999838,6.54977676786,-9.19999999976));
#1508=CARTESIAN_POINT('',(6.56999999942,5.649776767,-2.4000000006));
#1509=CARTESIAN_POINT('',(6.21999999838,6.54977676786,-2.4000000006));
#1510=CARTESIAN_POINT('',(6.56999999942,5.649776767,-2.4000000006));
#1511=CARTESIAN_POINT('Origin',(6.56999999942,5.649776767,-9.19999999976));
#1512=CARTESIAN_POINT('',(6.86999999886,5.649776767,-2.4000000006));
#1513=CARTESIAN_POINT('',(6.86999999886,5.649776767,-2.4000000006));
#1514=CARTESIAN_POINT('',(6.86999999886,5.649776767,-2.4000000006));
#1515=CARTESIAN_POINT('Origin',(6.86999999886,5.59977676588,-9.19999999976));
#1516=CARTESIAN_POINT('',(6.86999999886,5.19977676784,-2.4000000006));
#1517=CARTESIAN_POINT('',(6.86999999886,5.19977676784,-2.4000000006));
#1518=CARTESIAN_POINT('',(6.86999999886,5.19977676784,-2.4000000006));
#1519=CARTESIAN_POINT('Origin',(6.86999999886,5.19977676784,-9.19999999976));
#1520=CARTESIAN_POINT('',(6.104342710143,5.19977676784,-2.4000000006));
#1521=CARTESIAN_POINT('',(6.104342710143,5.19977676784,-2.4000000006));
#1522=CARTESIAN_POINT('',(6.045000009173,5.19977676784,-9.19999999976));
#1523=CARTESIAN_POINT('Origin',(6.118300116205,6.634865401132,-0.80063968062));
#1524=CARTESIAN_POINT('',(6.104342710143,0.649776912960441,-2.4000000006));
#1525=CARTESIAN_POINT('',(6.104342710143,0.6497769135565,-2.4000000006));
#1526=CARTESIAN_POINT('',(6.05198154647923,0.649777317388891,-8.39999510498129));
#1527=CARTESIAN_POINT('',(6.104342710143,0.6497769135565,-2.4000000006));
#1528=CARTESIAN_POINT('',(6.051981546508,0.649777317588,-8.399995103364));
#1529=CARTESIAN_POINT('Origin',(6.444999998147,0.5497767670204,-8.79999999976));
#1530=CARTESIAN_POINT('',(6.84500822070895,0.649779213900485,-8.39997964041598));
#1531=CARTESIAN_POINT('',(6.051981546508,0.649777317588,-8.399995103364));
#1532=CARTESIAN_POINT('Ctrl Pts',(6.89854012822632,0.4497767426815,-9.20000009711564));
#1533=CARTESIAN_POINT('Ctrl Pts',(6.87177884545796,0.546202663623691,-8.81429641334684));
#1534=CARTESIAN_POINT('Ctrl Pts',(6.84501712322181,0.649782032628697,-8.39997893732678));
#1535=CARTESIAN_POINT('Origin',(7.620011089339,-0.7499856582499,-8.799995610761));
#1536=CARTESIAN_POINT('',(8.39459812218998,0.650000333366803,-8.39999838051493));
#1537=CARTESIAN_POINT('Ctrl Pts',(8.34111070012981,0.449999985306874,-9.20000005853335));
#1538=CARTESIAN_POINT('Ctrl Pts',(8.36785536243863,0.546423919468166,-8.81430432188814));
#1539=CARTESIAN_POINT('Ctrl Pts',(8.39460046442178,0.650000393213763,-8.39999842690571));
#1540=CARTESIAN_POINT('Ctrl Pts',(8.3945975518974,0.649999513017969,-8.40000714759484));
#1541=CARTESIAN_POINT('Ctrl Pts',(8.3421626147044,0.679010933116772,-8.40000673404125));
#1542=CARTESIAN_POINT('Ctrl Pts',(8.28787300946336,0.705185284500506,-8.40000616735482));
#1543=CARTESIAN_POINT('Ctrl Pts',(8.0351963689773,0.809848189040266,-8.40000291468603));
#1544=CARTESIAN_POINT('Ctrl Pts',(7.82090842101073,0.849998608894937,-8.3999984133719));
#1545=CARTESIAN_POINT('Ctrl Pts',(7.620011089339,0.850000001281571,-8.39999284387114));
#1546=CARTESIAN_POINT('Ctrl Pts',(7.41911267056048,0.850001393675739,-8.39998727434025));
#1547=CARTESIAN_POINT('Ctrl Pts',(7.20482308088581,0.809853513227796,-8.39997989413278));
#1548=CARTESIAN_POINT('Ctrl Pts',(6.951998673463,0.70513290567607,-8.39996913057066));
#1549=CARTESIAN_POINT('Ctrl Pts',(6.89756995900303,0.678882292017085,-8.39996668049319));
#1550=CARTESIAN_POINT('Ctrl Pts',(6.84500704265714,0.649780668506519,-8.39996417992893));
#1551=CARTESIAN_POINT('Origin',(8.794596669825,0.5500000000002,-8.79999999976));
#1552=CARTESIAN_POINT('',(8.394596503147,0.6500013156688,-8.399993891489));
#1553=CARTESIAN_POINT('Origin',(7.61999999994,2.65,-3.54999999976));
#1554=CARTESIAN_POINT('',(7.21999999994,2.65,2.800000000241));
#1555=CARTESIAN_POINT('',(8.01999999994,2.65,2.800000000241));
#1556=CARTESIAN_POINT('',(7.21999999994,2.65,2.800000000241));
#1557=CARTESIAN_POINT('',(7.21999999994,2.65,1.820110506757E-13));
#1558=CARTESIAN_POINT('',(8.01999999994,2.65,1.820110506757E-13));
#1559=CARTESIAN_POINT('Origin',(7.21999999994,3.05,-3.54999999976));
#1560=CARTESIAN_POINT('',(7.21999999994,3.45,2.800000000241));
#1561=CARTESIAN_POINT('',(7.21999999994,3.45,2.800000000241));
#1562=CARTESIAN_POINT('',(7.21999999994,3.45,2.379689032724E-13));
#1563=CARTESIAN_POINT('Origin',(7.61999999994,3.45,-3.54999999976));
#1564=CARTESIAN_POINT('',(8.01999999994,3.45,2.800000000241));
#1565=CARTESIAN_POINT('',(8.01999999994,3.45,2.800000000241));
#1566=CARTESIAN_POINT('',(8.01999999994,3.45,2.379689032724E-13));
#1567=CARTESIAN_POINT('Origin',(8.01999999994,3.05,-3.54999999976));
#1568=CARTESIAN_POINT('',(8.01999999994,2.65,2.800000000241));
#1569=CARTESIAN_POINT('Origin',(19.05,0.,-2.4000000006));
#1570=CARTESIAN_POINT('',(7.2199999999,6.34977676908,-2.4000000006));
#1571=CARTESIAN_POINT('',(7.2199999999,6.34977676908,-2.4000000006));
#1572=CARTESIAN_POINT('',(8.0200000001,6.34977676908,-2.4000000006));
#1573=CARTESIAN_POINT('',(8.0200000001,6.34977676908,-2.4000000006));
#1574=CARTESIAN_POINT('',(8.0200000001,6.54977676786,-2.4000000006));
#1575=CARTESIAN_POINT('',(8.3945963713804,0.650000136477148,-2.4000000006));
#1576=CARTESIAN_POINT('',(9.135657299736,0.6500000527163,-2.4000000006));
#1577=CARTESIAN_POINT('',(6.84500137314224,0.649777262565407,-2.40000000059994));
#1578=CARTESIAN_POINT('Origin',(7.62,-0.74999999908,-2.4000000006));
#1579=CARTESIAN_POINT('',(6.845001573829,0.6497771717036,-2.4000000006));
#1580=CARTESIAN_POINT('',(8.56999999992,3.05,-2.4000000006));
#1581=CARTESIAN_POINT('Origin',(7.62,3.05,-2.4000000006));
#1582=CARTESIAN_POINT('Origin',(8.39459666772,0.6500000000002,-9.19999999976));
#1583=CARTESIAN_POINT('',(8.394596503147,0.6500013156688,-8.399993891489));
#1584=CARTESIAN_POINT('Origin',(8.0200000001,6.29977676796,-0.8000000002003));
#1585=CARTESIAN_POINT('',(8.0200000001,6.34977676908,-3.6000000009));
#1586=CARTESIAN_POINT('',(8.0200000001,6.34977676908,-3.6000000009));
#1587=CARTESIAN_POINT('',(8.0200000001,6.54977676786,-3.6000000009));
#1588=CARTESIAN_POINT('Origin',(19.05,0.,-3.6000000009));
#1589=CARTESIAN_POINT('',(7.2199999999,6.34977676908,-3.6000000009));
#1590=CARTESIAN_POINT('',(8.0200000001,6.34977676908,-3.6000000009));
#1591=CARTESIAN_POINT('',(7.2199999999,6.34977676908,-3.6000000009));
#1592=CARTESIAN_POINT('Origin',(7.2199999999,6.49977676674,-0.8000000002003));
#1593=CARTESIAN_POINT('',(7.2199999999,6.34977676908,-3.6000000009));
#1594=CARTESIAN_POINT('Origin',(6.0450000004,0.6497767670204,-9.19999999976));
#1595=CARTESIAN_POINT('',(6.845001573829,0.6497771717036,-2.4000000006));
#1596=CARTESIAN_POINT('Origin',(7.62,-0.74999999908,-9.19999999976));
#1597=CARTESIAN_POINT('Origin',(7.61999999994,2.75,3.10000000024));
#1598=CARTESIAN_POINT('',(7.81999999994,2.85,3.40000000024));
#1599=CARTESIAN_POINT('',(7.81999999994,2.85,3.40000000024));
#1600=CARTESIAN_POINT('',(7.41999999994,2.85,3.40000000024));
#1601=CARTESIAN_POINT('',(7.41999999994,2.85,3.40000000024));
#1602=CARTESIAN_POINT('',(7.21999999994,2.65,2.800000000241));
#1603=CARTESIAN_POINT('Origin',(7.31999999994,3.05,3.10000000024));
#1604=CARTESIAN_POINT('',(7.41999999994,3.25,3.40000000024));
#1605=CARTESIAN_POINT('',(7.41999999994,3.25,3.40000000024));
#1606=CARTESIAN_POINT('',(7.41999999994,3.25,3.40000000024));
#1607=CARTESIAN_POINT('Origin',(7.61999999994,3.35,3.10000000024));
#1608=CARTESIAN_POINT('',(7.81999999994,3.25,3.40000000024));
#1609=CARTESIAN_POINT('',(7.81999999994,3.25,3.40000000024));
#1610=CARTESIAN_POINT('',(8.01999999994,3.45,2.800000000241));
#1611=CARTESIAN_POINT('Origin',(7.91999999994,3.05,3.10000000024));
#1612=CARTESIAN_POINT('',(7.81999999994,3.25,3.40000000024));
#1613=CARTESIAN_POINT('Origin',(7.2199999999,6.34977676908,-0.8000000002003));
#1614=CARTESIAN_POINT('Origin',(7.62,3.05,-2.4000000006));
#1615=CARTESIAN_POINT('',(8.56999999992,3.05,-3.50000000024));
#1616=CARTESIAN_POINT('',(8.56999999992,3.05,-2.4000000006));
#1617=CARTESIAN_POINT('Origin',(7.62,3.05,-3.50000000024));
#1618=CARTESIAN_POINT('Origin',(7.61999999994,3.05,3.40000000024));
#1619=CARTESIAN_POINT('Origin',(19.05,0.,-3.50000000024));
#1620=CARTESIAN_POINT('',(8.01999999994,3.45,-3.50000000024));
#1621=CARTESIAN_POINT('',(7.21999999994,3.45,-3.50000000024));
#1622=CARTESIAN_POINT('',(8.01999999994,3.45,-3.50000000024));
#1623=CARTESIAN_POINT('',(7.21999999994,2.65,-3.50000000024));
#1624=CARTESIAN_POINT('',(7.21999999994,3.45,-3.50000000024));
#1625=CARTESIAN_POINT('',(8.01999999994,2.65,-3.50000000024));
#1626=CARTESIAN_POINT('',(7.21999999994,2.65,-3.50000000024));
#1627=CARTESIAN_POINT('',(8.01999999994,2.65,-3.50000000024));
#1628=CARTESIAN_POINT('Origin',(7.61999999994,3.45,-3.54999999976));
#1629=CARTESIAN_POINT('',(7.21999999994,3.45,-6.999999999763));
#1630=CARTESIAN_POINT('',(8.01999999994,3.45,-6.999999999763));
#1631=CARTESIAN_POINT('',(7.21999999994,3.45,-6.999999999763));
#1632=CARTESIAN_POINT('',(7.21999999994,3.45,-3.50000000024));
#1633=CARTESIAN_POINT('',(8.01999999994,3.45,-3.50000000024));
#1634=CARTESIAN_POINT('Origin',(7.21999999994,3.05,-3.54999999976));
#1635=CARTESIAN_POINT('',(7.21999999994,2.65,-6.99999999976));
#1636=CARTESIAN_POINT('',(7.21999999994,3.45,-6.999999999763));
#1637=CARTESIAN_POINT('',(7.21999999994,2.65,-3.50000000024));
#1638=CARTESIAN_POINT('Origin',(7.61999999994,2.65,-3.54999999976));
#1639=CARTESIAN_POINT('',(8.01999999994,2.65,-6.99999999976));
#1640=CARTESIAN_POINT('',(8.01999999994,2.65,-6.99999999976));
#1641=CARTESIAN_POINT('',(8.01999999994,2.65,-3.50000000024));
#1642=CARTESIAN_POINT('Origin',(8.01999999994,3.05,-3.54999999976));
#1643=CARTESIAN_POINT('',(8.01999999994,2.65,-6.99999999976));
#1644=CARTESIAN_POINT('Origin',(7.61999999994,3.350000000001,-7.29999999976));
#1645=CARTESIAN_POINT('',(7.81999999994,3.250000000001,-7.59999999976));
#1646=CARTESIAN_POINT('',(8.01999999994,3.45,-6.999999999763));
#1647=CARTESIAN_POINT('',(7.41999999994,3.250000000001,-7.59999999976));
#1648=CARTESIAN_POINT('',(7.41999999994,3.250000000001,-7.59999999976));
#1649=CARTESIAN_POINT('',(7.41999999994,3.250000000001,-7.59999999976));
#1650=CARTESIAN_POINT('Origin',(7.31999999994,3.050000000001,-7.29999999976));
#1651=CARTESIAN_POINT('',(7.41999999994,2.850000000001,-7.59999999976));
#1652=CARTESIAN_POINT('',(7.41999999994,2.850000000001,-7.59999999976));
#1653=CARTESIAN_POINT('',(7.21999999994,2.65,-6.99999999976));
#1654=CARTESIAN_POINT('Origin',(7.61999999994,2.750000000001,-7.29999999976));
#1655=CARTESIAN_POINT('',(7.81999999994,2.850000000001,-7.59999999976));
#1656=CARTESIAN_POINT('',(7.81999999994,2.850000000001,-7.59999999976));
#1657=CARTESIAN_POINT('',(7.81999999994,2.850000000001,-7.59999999976));
#1658=CARTESIAN_POINT('Origin',(7.91999999994,3.050000000001,-7.29999999976));
#1659=CARTESIAN_POINT('',(7.81999999994,3.250000000001,-7.59999999976));
#1660=CARTESIAN_POINT('Origin',(7.61999999994,3.050000000001,-7.59999999976));
#1661=UNCERTAINTY_MEASURE_WITH_UNIT(LENGTH_MEASURE(0.01),#1665,
'DISTANCE_ACCURACY_VALUE',
'Maximum model space distance between geometric entities at asserted c
onnectivities');
#1662=UNCERTAINTY_MEASURE_WITH_UNIT(LENGTH_MEASURE(0.01),#1665,
'DISTANCE_ACCURACY_VALUE',
'Maximum model space distance between geometric entities at asserted c
onnectivities');
#1663=(
GEOMETRIC_REPRESENTATION_CONTEXT(3)
GLOBAL_UNCERTAINTY_ASSIGNED_CONTEXT((#1661))
GLOBAL_UNIT_ASSIGNED_CONTEXT((#1665,#1667,#1668))
REPRESENTATION_CONTEXT('','3D')
);
#1664=(
GEOMETRIC_REPRESENTATION_CONTEXT(3)
GLOBAL_UNCERTAINTY_ASSIGNED_CONTEXT((#1662))
GLOBAL_UNIT_ASSIGNED_CONTEXT((#1665,#1667,#1668))
REPRESENTATION_CONTEXT('','3D')
);
#1665=(
LENGTH_UNIT()
NAMED_UNIT(*)
SI_UNIT(.MILLI.,.METRE.)
);
#1666=(
LENGTH_UNIT()
NAMED_UNIT(*)
SI_UNIT(.CENTI.,.METRE.)
);
#1667=(
NAMED_UNIT(*)
PLANE_ANGLE_UNIT()
SI_UNIT($,.RADIAN.)
);
#1668=(
NAMED_UNIT(*)
SI_UNIT($,.STERADIAN.)
SOLID_ANGLE_UNIT()
);
#1669=SHAPE_DEFINITION_REPRESENTATION(#1670,#1671);
#1670=PRODUCT_DEFINITION_SHAPE('',$,#1673);
#1671=SHAPE_REPRESENTATION('',(#1060),#1663);
#1672=PRODUCT_DEFINITION_CONTEXT('part definition',#1677,'design');
#1673=PRODUCT_DEFINITION('15EDGVC-3_81-03P-1Y-00A_H_',
'15EDGVC-3.81-03P-14-00A&Z(H)',#1674,#1672);
#1674=PRODUCT_DEFINITION_FORMATION('1LAST_VERSION',$,#1679);
#1675=PRODUCT_RELATED_PRODUCT_CATEGORY('15EDGVC-3.81-03P-14-00A&Z(H)',
'15EDGVC-3.81-03P-14-00A&Z(H)',(#1679));
#1676=APPLICATION_PROTOCOL_DEFINITION('international standard',
'automotive_design',2009,#1677);
#1677=APPLICATION_CONTEXT(
'Core Data for Automotive Mechanical Design Process');
#1678=PRODUCT_CONTEXT('part definition',#1677,'mechanical');
#1679=PRODUCT('15EDGVC-3_81-03P-1Y-00A_H_',
'15EDGVC-3.81-03P-14-00A&Z(H)',$,(#1678));
#1680=PRESENTATION_STYLE_ASSIGNMENT((#1683));
#1681=PRESENTATION_STYLE_ASSIGNMENT((#1684));
#1682=PRESENTATION_STYLE_ASSIGNMENT((#1685));
#1683=SURFACE_STYLE_USAGE(.BOTH.,#1692);
#1684=SURFACE_STYLE_USAGE(.BOTH.,#1693);
#1685=SURFACE_STYLE_USAGE(.BOTH.,#1694);
#1686=SURFACE_STYLE_RENDERING_WITH_PROPERTIES($,#1704,(#1689));
#1687=SURFACE_STYLE_RENDERING_WITH_PROPERTIES($,#1705,(#1690));
#1688=SURFACE_STYLE_RENDERING_WITH_PROPERTIES($,#1706,(#1691));
#1689=SURFACE_STYLE_TRANSPARENT(0.);
#1690=SURFACE_STYLE_TRANSPARENT(0.);
#1691=SURFACE_STYLE_TRANSPARENT(0.);
#1692=SURFACE_SIDE_STYLE('',(#1695,#1686));
#1693=SURFACE_SIDE_STYLE('',(#1696,#1687));
#1694=SURFACE_SIDE_STYLE('',(#1697,#1688));
#1695=SURFACE_STYLE_FILL_AREA(#1698);
#1696=SURFACE_STYLE_FILL_AREA(#1699);
#1697=SURFACE_STYLE_FILL_AREA(#1700);
#1698=FILL_AREA_STYLE('',(#1701));
#1699=FILL_AREA_STYLE('',(#1702));
#1700=FILL_AREA_STYLE('',(#1703));
#1701=FILL_AREA_STYLE_COLOUR('',#1704);
#1702=FILL_AREA_STYLE_COLOUR('',#1705);
#1703=FILL_AREA_STYLE_COLOUR('',#1706);
#1704=COLOUR_RGB('',0.749019607843137,0.749019607843137,0.749019607843137);
#1705=COLOUR_RGB('',0.388235294117647,0.592156862745098,0.0823529411764706);
#1706=COLOUR_RGB('',0.8,0.8,0.8);
ENDSEC;
END-ISO-10303-21;
