ISO-10303-21;
HEADER;
/* Generated by software containing ST-Developer
 * from STEP Tools, Inc. (www.steptools.com) 
 */

FILE_DESCRIPTION(
/* description */ (''),
/* implementation_level */ '2;1');

FILE_NAME(
/* name */ '15EDGKD-3.81-PIN.stp',
/* time_stamp */ '2026-08-09T23:08:49+03:00',
/* author */ ('murashkindv'),
/* organization */ (''),
/* preprocessor_version */ 'ST-DEVELOPER v19.2',
/* originating_system */ 'Autodesk Inventor 2024',
/* authorisation */ '');

FILE_SCHEMA (('AUTOMOTIVE_DESIGN { 1 0 10303 214 3 1 1 }'));
ENDSEC;

DATA;
#10=MECHANICAL_DESIGN_GEOMETRIC_PRESENTATION_REPRESENTATION('',(#13),#1485);
#11=SHAPE_REPRESENTATION_RELATIONSHIP('SRR','None',#1492,#12);
#12=ADVANCED_BREP_SHAPE_REPRESENTATION('',(#14),#1484);
#13=STYLED_ITEM('',(#1502),#14);
#14=MANIFOLD_SOLID_BREP('Pin',#892);
#15=CONICAL_SURFACE('',#957,1.649978940285,0.463640866465644);
#16=FACE_BOUND('',#110,.T.);
#17=FACE_BOUND('',#111,.T.);
#18=FACE_BOUND('',#115,.T.);
#19=FACE_BOUND('',#139,.T.);
#20=FACE_BOUND('',#151,.T.);
#21=PLANE('',#919);
#22=PLANE('',#920);
#23=PLANE('',#923);
#24=PLANE('',#927);
#25=PLANE('',#928);
#26=PLANE('',#930);
#27=PLANE('',#931);
#28=PLANE('',#932);
#29=PLANE('',#935);
#30=PLANE('',#936);
#31=PLANE('',#937);
#32=PLANE('',#938);
#33=PLANE('',#939);
#34=PLANE('',#940);
#35=PLANE('',#941);
#36=PLANE('',#942);
#37=PLANE('',#943);
#38=PLANE('',#949);
#39=PLANE('',#950);
#40=PLANE('',#956);
#41=PLANE('',#958);
#42=PLANE('',#959);
#43=PLANE('',#962);
#44=PLANE('',#963);
#45=PLANE('',#964);
#46=PLANE('',#965);
#47=PLANE('',#967);
#48=PLANE('',#969);
#49=PLANE('',#971);
#50=PLANE('',#973);
#51=PLANE('',#975);
#52=PLANE('',#977);
#53=PLANE('',#978);
#54=PLANE('',#979);
#55=PLANE('',#980);
#56=PLANE('',#983);
#57=PLANE('',#984);
#58=FACE_OUTER_BOUND('',#106,.T.);
#59=FACE_OUTER_BOUND('',#107,.T.);
#60=FACE_OUTER_BOUND('',#108,.T.);
#61=FACE_OUTER_BOUND('',#109,.T.);
#62=FACE_OUTER_BOUND('',#112,.T.);
#63=FACE_OUTER_BOUND('',#113,.T.);
#64=FACE_OUTER_BOUND('',#114,.T.);
#65=FACE_OUTER_BOUND('',#116,.T.);
#66=FACE_OUTER_BOUND('',#117,.T.);
#67=FACE_OUTER_BOUND('',#118,.T.);
#68=FACE_OUTER_BOUND('',#119,.T.);
#69=FACE_OUTER_BOUND('',#120,.T.);
#70=FACE_OUTER_BOUND('',#121,.T.);
#71=FACE_OUTER_BOUND('',#122,.T.);
#72=FACE_OUTER_BOUND('',#123,.T.);
#73=FACE_OUTER_BOUND('',#124,.T.);
#74=FACE_OUTER_BOUND('',#125,.T.);
#75=FACE_OUTER_BOUND('',#126,.T.);
#76=FACE_OUTER_BOUND('',#127,.T.);
#77=FACE_OUTER_BOUND('',#128,.T.);
#78=FACE_OUTER_BOUND('',#129,.T.);
#79=FACE_OUTER_BOUND('',#130,.T.);
#80=FACE_OUTER_BOUND('',#131,.T.);
#81=FACE_OUTER_BOUND('',#132,.T.);
#82=FACE_OUTER_BOUND('',#133,.T.);
#83=FACE_OUTER_BOUND('',#134,.T.);
#84=FACE_OUTER_BOUND('',#135,.T.);
#85=FACE_OUTER_BOUND('',#136,.T.);
#86=FACE_OUTER_BOUND('',#137,.T.);
#87=FACE_OUTER_BOUND('',#138,.T.);
#88=FACE_OUTER_BOUND('',#140,.T.);
#89=FACE_OUTER_BOUND('',#141,.T.);
#90=FACE_OUTER_BOUND('',#142,.T.);
#91=FACE_OUTER_BOUND('',#143,.T.);
#92=FACE_OUTER_BOUND('',#144,.T.);
#93=FACE_OUTER_BOUND('',#145,.T.);
#94=FACE_OUTER_BOUND('',#146,.T.);
#95=FACE_OUTER_BOUND('',#147,.T.);
#96=FACE_OUTER_BOUND('',#148,.T.);
#97=FACE_OUTER_BOUND('',#149,.T.);
#98=FACE_OUTER_BOUND('',#150,.T.);
#99=FACE_OUTER_BOUND('',#152,.T.);
#100=FACE_OUTER_BOUND('',#153,.T.);
#101=FACE_OUTER_BOUND('',#154,.T.);
#102=FACE_OUTER_BOUND('',#155,.T.);
#103=FACE_OUTER_BOUND('',#156,.T.);
#104=FACE_OUTER_BOUND('',#157,.T.);
#105=FACE_OUTER_BOUND('',#158,.T.);
#106=EDGE_LOOP('',(#588,#589,#590,#591,#592));
#107=EDGE_LOOP('',(#593));
#108=EDGE_LOOP('',(#594,#595,#596,#597,#598,#599,#600,#601,#602,#603,#604,
#605));
#109=EDGE_LOOP('',(#606,#607,#608,#609,#610,#611,#612,#613,#614,#615,#616,
#617));
#110=EDGE_LOOP('',(#618,#619,#620,#621));
#111=EDGE_LOOP('',(#622));
#112=EDGE_LOOP('',(#623,#624,#625,#626));
#113=EDGE_LOOP('',(#627,#628,#629,#630));
#114=EDGE_LOOP('',(#631,#632,#633,#634));
#115=EDGE_LOOP('',(#635,#636,#637,#638,#639,#640));
#116=EDGE_LOOP('',(#641,#642,#643,#644));
#117=EDGE_LOOP('',(#645,#646,#647,#648));
#118=EDGE_LOOP('',(#649,#650,#651,#652));
#119=EDGE_LOOP('',(#653,#654,#655,#656));
#120=EDGE_LOOP('',(#657,#658,#659,#660));
#121=EDGE_LOOP('',(#661,#662,#663,#664));
#122=EDGE_LOOP('',(#665,#666,#667,#668));
#123=EDGE_LOOP('',(#669,#670,#671,#672,#673,#674,#675,#676,#677,#678,#679,
#680));
#124=EDGE_LOOP('',(#681,#682,#683,#684));
#125=EDGE_LOOP('',(#685,#686,#687,#688));
#126=EDGE_LOOP('',(#689,#690,#691,#692));
#127=EDGE_LOOP('',(#693,#694,#695,#696));
#128=EDGE_LOOP('',(#697,#698,#699,#700,#701,#702,#703,#704,#705,#706,#707,
#708));
#129=EDGE_LOOP('',(#709,#710,#711,#712));
#130=EDGE_LOOP('',(#713,#714,#715,#716,#717,#718,#719,#720,#721,#722,#723,
#724));
#131=EDGE_LOOP('',(#725,#726,#727,#728));
#132=EDGE_LOOP('',(#729,#730,#731,#732,#733));
#133=EDGE_LOOP('',(#734,#735,#736,#737));
#134=EDGE_LOOP('',(#738,#739,#740,#741));
#135=EDGE_LOOP('',(#742,#743,#744,#745));
#136=EDGE_LOOP('',(#746,#747,#748,#749));
#137=EDGE_LOOP('',(#750,#751,#752,#753));
#138=EDGE_LOOP('',(#754,#755,#756,#757));
#139=EDGE_LOOP('',(#758,#759,#760,#761));
#140=EDGE_LOOP('',(#762,#763,#764,#765));
#141=EDGE_LOOP('',(#766,#767,#768,#769));
#142=EDGE_LOOP('',(#770,#771,#772,#773));
#143=EDGE_LOOP('',(#774,#775,#776,#777));
#144=EDGE_LOOP('',(#778,#779,#780,#781));
#145=EDGE_LOOP('',(#782,#783,#784,#785));
#146=EDGE_LOOP('',(#786,#787,#788,#789));
#147=EDGE_LOOP('',(#790,#791,#792,#793));
#148=EDGE_LOOP('',(#794,#795,#796,#797));
#149=EDGE_LOOP('',(#798,#799,#800,#801));
#150=EDGE_LOOP('',(#802,#803,#804,#805,#806,#807));
#151=EDGE_LOOP('',(#808));
#152=EDGE_LOOP('',(#809,#810,#811,#812));
#153=EDGE_LOOP('',(#813,#814,#815,#816));
#154=EDGE_LOOP('',(#817,#818,#819,#820));
#155=EDGE_LOOP('',(#821,#822,#823,#824));
#156=EDGE_LOOP('',(#825,#826,#827,#828));
#157=EDGE_LOOP('',(#829,#830,#831,#832));
#158=EDGE_LOOP('',(#833));
#159=LINE('',#1235,#260);
#160=LINE('',#1241,#261);
#161=LINE('',#1245,#262);
#162=LINE('',#1247,#263);
#163=LINE('',#1249,#264);
#164=LINE('',#1251,#265);
#165=LINE('',#1253,#266);
#166=LINE('',#1257,#267);
#167=LINE('',#1259,#268);
#168=LINE('',#1261,#269);
#169=LINE('',#1262,#270);
#170=LINE('',#1265,#271);
#171=LINE('',#1267,#272);
#172=LINE('',#1269,#273);
#173=LINE('',#1271,#274);
#174=LINE('',#1273,#275);
#175=LINE('',#1275,#276);
#176=LINE('',#1276,#277);
#177=LINE('',#1278,#278);
#178=LINE('',#1280,#279);
#179=LINE('',#1281,#280);
#180=LINE('',#1284,#281);
#181=LINE('',#1286,#282);
#182=LINE('',#1288,#283);
#183=LINE('',#1289,#284);
#184=LINE('',#1295,#285);
#185=LINE('',#1298,#286);
#186=LINE('',#1299,#287);
#187=LINE('',#1302,#288);
#188=LINE('',#1303,#289);
#189=LINE('',#1306,#290);
#190=LINE('',#1308,#291);
#191=LINE('',#1312,#292);
#192=LINE('',#1314,#293);
#193=LINE('',#1315,#294);
#194=LINE('',#1318,#295);
#195=LINE('',#1319,#296);
#196=LINE('',#1322,#297);
#197=LINE('',#1323,#298);
#198=LINE('',#1326,#299);
#199=LINE('',#1327,#300);
#200=LINE('',#1332,#301);
#201=LINE('',#1333,#302);
#202=LINE('',#1336,#303);
#203=LINE('',#1337,#304);
#204=LINE('',#1339,#305);
#205=LINE('',#1342,#306);
#206=LINE('',#1344,#307);
#207=LINE('',#1345,#308);
#208=LINE('',#1348,#309);
#209=LINE('',#1349,#310);
#210=LINE('',#1352,#311);
#211=LINE('',#1353,#312);
#212=LINE('',#1355,#313);
#213=LINE('',#1359,#314);
#214=LINE('',#1363,#315);
#215=LINE('',#1367,#316);
#216=LINE('',#1371,#317);
#217=LINE('',#1375,#318);
#218=LINE('',#1378,#319);
#219=LINE('',#1381,#320);
#220=LINE('',#1382,#321);
#221=LINE('',#1387,#322);
#222=LINE('',#1391,#323);
#223=LINE('',#1395,#324);
#224=LINE('',#1399,#325);
#225=LINE('',#1402,#326);
#226=LINE('',#1404,#327);
#227=LINE('',#1406,#328);
#228=LINE('',#1409,#329);
#229=LINE('',#1411,#330);
#230=LINE('',#1412,#331);
#231=LINE('',#1415,#332);
#232=LINE('',#1416,#333);
#233=LINE('',#1420,#334);
#234=LINE('',#1423,#335);
#235=LINE('',#1424,#336);
#236=LINE('',#1427,#337);
#237=LINE('',#1428,#338);
#238=LINE('',#1430,#339);
#239=LINE('',#1433,#340);
#240=LINE('',#1435,#341);
#241=LINE('',#1437,#342);
#242=LINE('',#1438,#343);
#243=LINE('',#1441,#344);
#244=LINE('',#1443,#345);
#245=LINE('',#1445,#346);
#246=LINE('',#1447,#347);
#247=LINE('',#1449,#348);
#248=LINE('',#1451,#349);
#249=LINE('',#1453,#350);
#250=LINE('',#1455,#351);
#251=LINE('',#1463,#352);
#252=LINE('',#1464,#353);
#253=LINE('',#1465,#354);
#254=LINE('',#1468,#355);
#255=LINE('',#1469,#356);
#256=LINE('',#1472,#357);
#257=LINE('',#1473,#358);
#258=LINE('',#1475,#359);
#259=LINE('',#1479,#360);
#260=VECTOR('',#993,1.549982398014);
#261=VECTOR('',#1000,10.);
#262=VECTOR('',#1003,10.);
#263=VECTOR('',#1004,10.);
#264=VECTOR('',#1005,10.);
#265=VECTOR('',#1006,10.);
#266=VECTOR('',#1007,10.);
#267=VECTOR('',#1010,10.);
#268=VECTOR('',#1011,10.);
#269=VECTOR('',#1012,10.);
#270=VECTOR('',#1013,10.);
#271=VECTOR('',#1016,3.81);
#272=VECTOR('',#1017,10.);
#273=VECTOR('',#1018,0.81);
#274=VECTOR('',#1019,2.8);
#275=VECTOR('',#1020,0.81);
#276=VECTOR('',#1021,10.);
#277=VECTOR('',#1022,3.81);
#278=VECTOR('',#1023,0.81);
#279=VECTOR('',#1024,2.8);
#280=VECTOR('',#1025,0.81);
#281=VECTOR('',#1026,2.);
#282=VECTOR('',#1027,2.8);
#283=VECTOR('',#1028,2.);
#284=VECTOR('',#1029,2.8);
#285=VECTOR('',#1036,4.205);
#286=VECTOR('',#1039,10.);
#287=VECTOR('',#1040,12.22);
#288=VECTOR('',#1043,10.);
#289=VECTOR('',#1044,12.22);
#290=VECTOR('',#1045,4.1);
#291=VECTOR('',#1046,0.4834733992481);
#292=VECTOR('',#1049,0.4834733992477);
#293=VECTOR('',#1050,4.1);
#294=VECTOR('',#1051,2.95);
#295=VECTOR('',#1054,10.);
#296=VECTOR('',#1055,12.22);
#297=VECTOR('',#1058,10.);
#298=VECTOR('',#1059,12.22);
#299=VECTOR('',#1062,10.);
#300=VECTOR('',#1063,3.81);
#301=VECTOR('',#1070,1.4);
#302=VECTOR('',#1071,0.81);
#303=VECTOR('',#1074,2.1);
#304=VECTOR('',#1075,0.8099999999999);
#305=VECTOR('',#1078,1.56524758425001);
#306=VECTOR('',#1081,10.);
#307=VECTOR('',#1082,10.);
#308=VECTOR('',#1083,10.);
#309=VECTOR('',#1086,0.81);
#310=VECTOR('',#1087,1.4);
#311=VECTOR('',#1090,2.1);
#312=VECTOR('',#1091,1.56524758425001);
#313=VECTOR('',#1094,0.81);
#314=VECTOR('',#1099,1.2);
#315=VECTOR('',#1102,0.1166666666671);
#316=VECTOR('',#1105,0.816301166164532);
#317=VECTOR('',#1108,0.816535899527019);
#318=VECTOR('',#1111,0.116523903996203);
#319=VECTOR('',#1114,1.2);
#320=VECTOR('',#1117,2.8);
#321=VECTOR('',#1118,1.2);
#322=VECTOR('',#1123,0.116406387680703);
#323=VECTOR('',#1126,0.816467459572095);
#324=VECTOR('',#1129,0.81625194488404);
#325=VECTOR('',#1132,0.1166666666671);
#326=VECTOR('',#1135,1.2);
#327=VECTOR('',#1138,2.8);
#328=VECTOR('',#1141,1.649978940285);
#329=VECTOR('',#1144,6.60018939122192);
#330=VECTOR('',#1145,4.1);
#331=VECTOR('',#1146,6.60018939122192);
#332=VECTOR('',#1149,0.4334733992481);
#333=VECTOR('',#1150,6.6);
#334=VECTOR('',#1155,6.6);
#335=VECTOR('',#1158,6.60018939122192);
#336=VECTOR('',#1159,0.4334733992479);
#337=VECTOR('',#1162,4.1);
#338=VECTOR('',#1163,6.60018939122192);
#339=VECTOR('',#1166,2.85);
#340=VECTOR('',#1167,0.8);
#341=VECTOR('',#1168,2.2);
#342=VECTOR('',#1169,0.8);
#343=VECTOR('',#1170,2.2);
#344=VECTOR('',#1175,2.8);
#345=VECTOR('',#1178,2.8);
#346=VECTOR('',#1181,2.80000000246813);
#347=VECTOR('',#1184,2.80000000083392);
#348=VECTOR('',#1187,2.80000000083707);
#349=VECTOR('',#1190,2.8);
#350=VECTOR('',#1193,2.800000002475);
#351=VECTOR('',#1196,2.80000000000001);
#352=VECTOR('',#1205,0.8);
#353=VECTOR('',#1206,1.2);
#354=VECTOR('',#1207,1.2);
#355=VECTOR('',#1210,1.2);
#356=VECTOR('',#1211,2.2);
#357=VECTOR('',#1214,1.2);
#358=VECTOR('',#1215,0.8);
#359=VECTOR('',#1218,2.2);
#360=VECTOR('',#1223,1.);
#361=CIRCLE('',#916,1.549982398014);
#362=CIRCLE('',#917,1.549982398014);
#363=CIRCLE('',#918,1.549982398014);
#364=CIRCLE('',#921,0.3);
#365=CIRCLE('',#922,0.3);
#366=CIRCLE('',#924,1.74997050148223);
#367=CIRCLE('',#926,0.3);
#368=CIRCLE('',#929,1.925);
#369=CIRCLE('',#934,0.3);
#370=CIRCLE('',#944,0.2);
#371=CIRCLE('',#945,0.2);
#372=CIRCLE('',#946,0.2);
#373=CIRCLE('',#947,0.1999999999996);
#374=CIRCLE('',#948,0.2);
#375=CIRCLE('',#951,0.2);
#376=CIRCLE('',#952,0.1999999999996);
#377=CIRCLE('',#953,0.2);
#378=CIRCLE('',#954,0.2);
#379=CIRCLE('',#955,0.2);
#380=CIRCLE('',#961,1.925);
#381=CIRCLE('',#976,1.);
#382=CIRCLE('',#982,1.);
#383=VERTEX_POINT('',#1230);
#384=VERTEX_POINT('',#1231);
#385=VERTEX_POINT('',#1234);
#386=VERTEX_POINT('',#1239);
#387=VERTEX_POINT('',#1240);
#388=VERTEX_POINT('',#1242);
#389=VERTEX_POINT('',#1244);
#390=VERTEX_POINT('',#1246);
#391=VERTEX_POINT('',#1248);
#392=VERTEX_POINT('',#1250);
#393=VERTEX_POINT('',#1252);
#394=VERTEX_POINT('',#1254);
#395=VERTEX_POINT('',#1256);
#396=VERTEX_POINT('',#1258);
#397=VERTEX_POINT('',#1260);
#398=VERTEX_POINT('',#1264);
#399=VERTEX_POINT('',#1266);
#400=VERTEX_POINT('',#1268);
#401=VERTEX_POINT('',#1270);
#402=VERTEX_POINT('',#1272);
#403=VERTEX_POINT('',#1274);
#404=VERTEX_POINT('',#1277);
#405=VERTEX_POINT('',#1279);
#406=VERTEX_POINT('',#1282);
#407=VERTEX_POINT('',#1283);
#408=VERTEX_POINT('',#1285);
#409=VERTEX_POINT('',#1287);
#410=VERTEX_POINT('',#1290);
#411=VERTEX_POINT('',#1293);
#412=VERTEX_POINT('',#1297);
#413=VERTEX_POINT('',#1301);
#414=VERTEX_POINT('',#1304);
#415=VERTEX_POINT('',#1305);
#416=VERTEX_POINT('',#1307);
#417=VERTEX_POINT('',#1309);
#418=VERTEX_POINT('',#1311);
#419=VERTEX_POINT('',#1313);
#420=VERTEX_POINT('',#1317);
#421=VERTEX_POINT('',#1321);
#422=VERTEX_POINT('',#1325);
#423=VERTEX_POINT('',#1331);
#424=VERTEX_POINT('',#1335);
#425=VERTEX_POINT('',#1341);
#426=VERTEX_POINT('',#1343);
#427=VERTEX_POINT('',#1347);
#428=VERTEX_POINT('',#1351);
#429=VERTEX_POINT('',#1358);
#430=VERTEX_POINT('',#1360);
#431=VERTEX_POINT('',#1362);
#432=VERTEX_POINT('',#1364);
#433=VERTEX_POINT('',#1366);
#434=VERTEX_POINT('',#1368);
#435=VERTEX_POINT('',#1370);
#436=VERTEX_POINT('',#1372);
#437=VERTEX_POINT('',#1374);
#438=VERTEX_POINT('',#1376);
#439=VERTEX_POINT('',#1380);
#440=VERTEX_POINT('',#1384);
#441=VERTEX_POINT('',#1386);
#442=VERTEX_POINT('',#1388);
#443=VERTEX_POINT('',#1390);
#444=VERTEX_POINT('',#1392);
#445=VERTEX_POINT('',#1394);
#446=VERTEX_POINT('',#1396);
#447=VERTEX_POINT('',#1398);
#448=VERTEX_POINT('',#1400);
#449=VERTEX_POINT('',#1408);
#450=VERTEX_POINT('',#1410);
#451=VERTEX_POINT('',#1414);
#452=VERTEX_POINT('',#1418);
#453=VERTEX_POINT('',#1422);
#454=VERTEX_POINT('',#1426);
#455=VERTEX_POINT('',#1431);
#456=VERTEX_POINT('',#1432);
#457=VERTEX_POINT('',#1434);
#458=VERTEX_POINT('',#1436);
#459=VERTEX_POINT('',#1458);
#460=VERTEX_POINT('',#1461);
#461=VERTEX_POINT('',#1462);
#462=VERTEX_POINT('',#1467);
#463=VERTEX_POINT('',#1471);
#464=VERTEX_POINT('',#1477);
#465=EDGE_CURVE('',#383,#384,#361,.T.);
#466=EDGE_CURVE('',#384,#383,#362,.T.);
#467=EDGE_CURVE('',#384,#385,#159,.T.);
#468=EDGE_CURVE('',#385,#385,#363,.T.);
#469=EDGE_CURVE('',#386,#387,#160,.T.);
#470=EDGE_CURVE('',#387,#388,#364,.T.);
#471=EDGE_CURVE('',#388,#389,#161,.T.);
#472=EDGE_CURVE('',#389,#390,#162,.T.);
#473=EDGE_CURVE('',#390,#391,#163,.T.);
#474=EDGE_CURVE('',#391,#392,#164,.T.);
#475=EDGE_CURVE('',#392,#393,#165,.T.);
#476=EDGE_CURVE('',#393,#394,#365,.T.);
#477=EDGE_CURVE('',#394,#395,#166,.T.);
#478=EDGE_CURVE('',#395,#396,#167,.T.);
#479=EDGE_CURVE('',#396,#397,#168,.T.);
#480=EDGE_CURVE('',#397,#386,#169,.T.);
#481=EDGE_CURVE('',#394,#398,#170,.T.);
#482=EDGE_CURVE('',#398,#399,#171,.T.);
#483=EDGE_CURVE('',#400,#399,#172,.T.);
#484=EDGE_CURVE('',#401,#400,#173,.T.);
#485=EDGE_CURVE('',#402,#401,#174,.T.);
#486=EDGE_CURVE('',#402,#403,#175,.T.);
#487=EDGE_CURVE('',#403,#387,#176,.T.);
#488=EDGE_CURVE('',#404,#386,#177,.T.);
#489=EDGE_CURVE('',#405,#404,#178,.T.);
#490=EDGE_CURVE('',#395,#405,#179,.T.);
#491=EDGE_CURVE('',#406,#407,#180,.T.);
#492=EDGE_CURVE('',#408,#406,#181,.T.);
#493=EDGE_CURVE('',#409,#408,#182,.T.);
#494=EDGE_CURVE('',#407,#409,#183,.T.);
#495=EDGE_CURVE('',#410,#410,#366,.T.);
#496=EDGE_CURVE('',#403,#411,#367,.T.);
#497=EDGE_CURVE('',#388,#411,#184,.T.);
#498=EDGE_CURVE('',#411,#412,#185,.T.);
#499=EDGE_CURVE('',#412,#389,#186,.T.);
#500=EDGE_CURVE('',#412,#413,#187,.T.);
#501=EDGE_CURVE('',#390,#413,#188,.T.);
#502=EDGE_CURVE('',#414,#415,#189,.T.);
#503=EDGE_CURVE('',#416,#414,#190,.T.);
#504=EDGE_CURVE('',#417,#416,#368,.T.);
#505=EDGE_CURVE('',#418,#417,#191,.T.);
#506=EDGE_CURVE('',#419,#418,#192,.T.);
#507=EDGE_CURVE('',#415,#419,#193,.T.);
#508=EDGE_CURVE('',#413,#420,#194,.T.);
#509=EDGE_CURVE('',#391,#420,#195,.T.);
#510=EDGE_CURVE('',#420,#421,#196,.T.);
#511=EDGE_CURVE('',#421,#392,#197,.T.);
#512=EDGE_CURVE('',#421,#422,#198,.T.);
#513=EDGE_CURVE('',#422,#393,#199,.T.);
#514=EDGE_CURVE('',#422,#398,#369,.T.);
#515=EDGE_CURVE('',#405,#423,#200,.T.);
#516=EDGE_CURVE('',#396,#423,#201,.T.);
#517=EDGE_CURVE('',#423,#424,#202,.T.);
#518=EDGE_CURVE('',#397,#424,#203,.T.);
#519=EDGE_CURVE('',#424,#404,#204,.T.);
#520=EDGE_CURVE('',#425,#402,#205,.T.);
#521=EDGE_CURVE('',#426,#425,#206,.T.);
#522=EDGE_CURVE('',#399,#426,#207,.T.);
#523=EDGE_CURVE('',#427,#426,#208,.T.);
#524=EDGE_CURVE('',#400,#427,#209,.T.);
#525=EDGE_CURVE('',#427,#428,#210,.T.);
#526=EDGE_CURVE('',#401,#428,#211,.T.);
#527=EDGE_CURVE('',#428,#425,#212,.T.);
#528=EDGE_CURVE('',#429,#407,#213,.T.);
#529=EDGE_CURVE('',#430,#429,#370,.T.);
#530=EDGE_CURVE('',#431,#430,#214,.T.);
#531=EDGE_CURVE('',#432,#431,#371,.T.);
#532=EDGE_CURVE('',#433,#432,#215,.T.);
#533=EDGE_CURVE('',#434,#433,#372,.T.);
#534=EDGE_CURVE('',#435,#434,#216,.T.);
#535=EDGE_CURVE('',#436,#435,#373,.T.);
#536=EDGE_CURVE('',#437,#436,#217,.T.);
#537=EDGE_CURVE('',#438,#437,#374,.T.);
#538=EDGE_CURVE('',#406,#438,#218,.T.);
#539=EDGE_CURVE('',#438,#439,#219,.T.);
#540=EDGE_CURVE('',#408,#439,#220,.T.);
#541=EDGE_CURVE('',#440,#439,#375,.T.);
#542=EDGE_CURVE('',#441,#440,#221,.T.);
#543=EDGE_CURVE('',#442,#441,#376,.T.);
#544=EDGE_CURVE('',#443,#442,#222,.T.);
#545=EDGE_CURVE('',#444,#443,#377,.T.);
#546=EDGE_CURVE('',#445,#444,#223,.T.);
#547=EDGE_CURVE('',#446,#445,#378,.T.);
#548=EDGE_CURVE('',#447,#446,#224,.T.);
#549=EDGE_CURVE('',#448,#447,#379,.T.);
#550=EDGE_CURVE('',#409,#448,#225,.T.);
#551=EDGE_CURVE('',#448,#429,#226,.T.);
#552=EDGE_CURVE('',#383,#410,#227,.T.);
#553=EDGE_CURVE('',#415,#449,#228,.T.);
#554=EDGE_CURVE('',#450,#449,#229,.T.);
#555=EDGE_CURVE('',#450,#414,#230,.T.);
#556=EDGE_CURVE('',#451,#450,#231,.T.);
#557=EDGE_CURVE('',#451,#416,#232,.T.);
#558=EDGE_CURVE('',#451,#452,#380,.T.);
#559=EDGE_CURVE('',#417,#452,#233,.T.);
#560=EDGE_CURVE('',#418,#453,#234,.T.);
#561=EDGE_CURVE('',#453,#452,#235,.T.);
#562=EDGE_CURVE('',#454,#453,#236,.T.);
#563=EDGE_CURVE('',#454,#419,#237,.T.);
#564=EDGE_CURVE('',#449,#454,#238,.T.);
#565=EDGE_CURVE('',#455,#456,#239,.T.);
#566=EDGE_CURVE('',#457,#455,#240,.T.);
#567=EDGE_CURVE('',#458,#457,#241,.T.);
#568=EDGE_CURVE('',#456,#458,#242,.T.);
#569=EDGE_CURVE('',#430,#447,#243,.T.);
#570=EDGE_CURVE('',#446,#431,#244,.T.);
#571=EDGE_CURVE('',#432,#445,#245,.T.);
#572=EDGE_CURVE('',#444,#433,#246,.T.);
#573=EDGE_CURVE('',#434,#443,#247,.T.);
#574=EDGE_CURVE('',#442,#435,#248,.T.);
#575=EDGE_CURVE('',#436,#441,#249,.T.);
#576=EDGE_CURVE('',#440,#437,#250,.T.);
#577=EDGE_CURVE('',#459,#459,#381,.T.);
#578=EDGE_CURVE('',#460,#461,#251,.T.);
#579=EDGE_CURVE('',#455,#460,#252,.T.);
#580=EDGE_CURVE('',#461,#456,#253,.T.);
#581=EDGE_CURVE('',#462,#457,#254,.T.);
#582=EDGE_CURVE('',#460,#462,#255,.T.);
#583=EDGE_CURVE('',#458,#463,#256,.T.);
#584=EDGE_CURVE('',#462,#463,#257,.T.);
#585=EDGE_CURVE('',#463,#461,#258,.T.);
#586=EDGE_CURVE('',#464,#464,#382,.T.);
#587=EDGE_CURVE('',#464,#459,#259,.T.);
#588=ORIENTED_EDGE('',*,*,#465,.F.);
#589=ORIENTED_EDGE('',*,*,#466,.F.);
#590=ORIENTED_EDGE('',*,*,#467,.T.);
#591=ORIENTED_EDGE('',*,*,#468,.T.);
#592=ORIENTED_EDGE('',*,*,#467,.F.);
#593=ORIENTED_EDGE('',*,*,#468,.F.);
#594=ORIENTED_EDGE('',*,*,#469,.T.);
#595=ORIENTED_EDGE('',*,*,#470,.T.);
#596=ORIENTED_EDGE('',*,*,#471,.T.);
#597=ORIENTED_EDGE('',*,*,#472,.T.);
#598=ORIENTED_EDGE('',*,*,#473,.T.);
#599=ORIENTED_EDGE('',*,*,#474,.T.);
#600=ORIENTED_EDGE('',*,*,#475,.T.);
#601=ORIENTED_EDGE('',*,*,#476,.T.);
#602=ORIENTED_EDGE('',*,*,#477,.T.);
#603=ORIENTED_EDGE('',*,*,#478,.T.);
#604=ORIENTED_EDGE('',*,*,#479,.T.);
#605=ORIENTED_EDGE('',*,*,#480,.T.);
#606=ORIENTED_EDGE('',*,*,#477,.F.);
#607=ORIENTED_EDGE('',*,*,#481,.T.);
#608=ORIENTED_EDGE('',*,*,#482,.T.);
#609=ORIENTED_EDGE('',*,*,#483,.F.);
#610=ORIENTED_EDGE('',*,*,#484,.F.);
#611=ORIENTED_EDGE('',*,*,#485,.F.);
#612=ORIENTED_EDGE('',*,*,#486,.T.);
#613=ORIENTED_EDGE('',*,*,#487,.T.);
#614=ORIENTED_EDGE('',*,*,#469,.F.);
#615=ORIENTED_EDGE('',*,*,#488,.F.);
#616=ORIENTED_EDGE('',*,*,#489,.F.);
#617=ORIENTED_EDGE('',*,*,#490,.F.);
#618=ORIENTED_EDGE('',*,*,#491,.F.);
#619=ORIENTED_EDGE('',*,*,#492,.F.);
#620=ORIENTED_EDGE('',*,*,#493,.F.);
#621=ORIENTED_EDGE('',*,*,#494,.F.);
#622=ORIENTED_EDGE('',*,*,#495,.F.);
#623=ORIENTED_EDGE('',*,*,#470,.F.);
#624=ORIENTED_EDGE('',*,*,#487,.F.);
#625=ORIENTED_EDGE('',*,*,#496,.T.);
#626=ORIENTED_EDGE('',*,*,#497,.F.);
#627=ORIENTED_EDGE('',*,*,#471,.F.);
#628=ORIENTED_EDGE('',*,*,#497,.T.);
#629=ORIENTED_EDGE('',*,*,#498,.T.);
#630=ORIENTED_EDGE('',*,*,#499,.T.);
#631=ORIENTED_EDGE('',*,*,#472,.F.);
#632=ORIENTED_EDGE('',*,*,#499,.F.);
#633=ORIENTED_EDGE('',*,*,#500,.T.);
#634=ORIENTED_EDGE('',*,*,#501,.F.);
#635=ORIENTED_EDGE('',*,*,#502,.F.);
#636=ORIENTED_EDGE('',*,*,#503,.F.);
#637=ORIENTED_EDGE('',*,*,#504,.F.);
#638=ORIENTED_EDGE('',*,*,#505,.F.);
#639=ORIENTED_EDGE('',*,*,#506,.F.);
#640=ORIENTED_EDGE('',*,*,#507,.F.);
#641=ORIENTED_EDGE('',*,*,#473,.F.);
#642=ORIENTED_EDGE('',*,*,#501,.T.);
#643=ORIENTED_EDGE('',*,*,#508,.T.);
#644=ORIENTED_EDGE('',*,*,#509,.F.);
#645=ORIENTED_EDGE('',*,*,#474,.F.);
#646=ORIENTED_EDGE('',*,*,#509,.T.);
#647=ORIENTED_EDGE('',*,*,#510,.T.);
#648=ORIENTED_EDGE('',*,*,#511,.T.);
#649=ORIENTED_EDGE('',*,*,#475,.F.);
#650=ORIENTED_EDGE('',*,*,#511,.F.);
#651=ORIENTED_EDGE('',*,*,#512,.T.);
#652=ORIENTED_EDGE('',*,*,#513,.T.);
#653=ORIENTED_EDGE('',*,*,#476,.F.);
#654=ORIENTED_EDGE('',*,*,#513,.F.);
#655=ORIENTED_EDGE('',*,*,#514,.T.);
#656=ORIENTED_EDGE('',*,*,#481,.F.);
#657=ORIENTED_EDGE('',*,*,#478,.F.);
#658=ORIENTED_EDGE('',*,*,#490,.T.);
#659=ORIENTED_EDGE('',*,*,#515,.T.);
#660=ORIENTED_EDGE('',*,*,#516,.F.);
#661=ORIENTED_EDGE('',*,*,#479,.F.);
#662=ORIENTED_EDGE('',*,*,#516,.T.);
#663=ORIENTED_EDGE('',*,*,#517,.T.);
#664=ORIENTED_EDGE('',*,*,#518,.F.);
#665=ORIENTED_EDGE('',*,*,#480,.F.);
#666=ORIENTED_EDGE('',*,*,#518,.T.);
#667=ORIENTED_EDGE('',*,*,#519,.T.);
#668=ORIENTED_EDGE('',*,*,#488,.T.);
#669=ORIENTED_EDGE('',*,*,#486,.F.);
#670=ORIENTED_EDGE('',*,*,#520,.F.);
#671=ORIENTED_EDGE('',*,*,#521,.F.);
#672=ORIENTED_EDGE('',*,*,#522,.F.);
#673=ORIENTED_EDGE('',*,*,#482,.F.);
#674=ORIENTED_EDGE('',*,*,#514,.F.);
#675=ORIENTED_EDGE('',*,*,#512,.F.);
#676=ORIENTED_EDGE('',*,*,#510,.F.);
#677=ORIENTED_EDGE('',*,*,#508,.F.);
#678=ORIENTED_EDGE('',*,*,#500,.F.);
#679=ORIENTED_EDGE('',*,*,#498,.F.);
#680=ORIENTED_EDGE('',*,*,#496,.F.);
#681=ORIENTED_EDGE('',*,*,#522,.T.);
#682=ORIENTED_EDGE('',*,*,#523,.F.);
#683=ORIENTED_EDGE('',*,*,#524,.F.);
#684=ORIENTED_EDGE('',*,*,#483,.T.);
#685=ORIENTED_EDGE('',*,*,#484,.T.);
#686=ORIENTED_EDGE('',*,*,#524,.T.);
#687=ORIENTED_EDGE('',*,*,#525,.T.);
#688=ORIENTED_EDGE('',*,*,#526,.F.);
#689=ORIENTED_EDGE('',*,*,#520,.T.);
#690=ORIENTED_EDGE('',*,*,#485,.T.);
#691=ORIENTED_EDGE('',*,*,#526,.T.);
#692=ORIENTED_EDGE('',*,*,#527,.T.);
#693=ORIENTED_EDGE('',*,*,#489,.T.);
#694=ORIENTED_EDGE('',*,*,#519,.F.);
#695=ORIENTED_EDGE('',*,*,#517,.F.);
#696=ORIENTED_EDGE('',*,*,#515,.F.);
#697=ORIENTED_EDGE('',*,*,#491,.T.);
#698=ORIENTED_EDGE('',*,*,#528,.F.);
#699=ORIENTED_EDGE('',*,*,#529,.F.);
#700=ORIENTED_EDGE('',*,*,#530,.F.);
#701=ORIENTED_EDGE('',*,*,#531,.F.);
#702=ORIENTED_EDGE('',*,*,#532,.F.);
#703=ORIENTED_EDGE('',*,*,#533,.F.);
#704=ORIENTED_EDGE('',*,*,#534,.F.);
#705=ORIENTED_EDGE('',*,*,#535,.F.);
#706=ORIENTED_EDGE('',*,*,#536,.F.);
#707=ORIENTED_EDGE('',*,*,#537,.F.);
#708=ORIENTED_EDGE('',*,*,#538,.F.);
#709=ORIENTED_EDGE('',*,*,#492,.T.);
#710=ORIENTED_EDGE('',*,*,#538,.T.);
#711=ORIENTED_EDGE('',*,*,#539,.T.);
#712=ORIENTED_EDGE('',*,*,#540,.F.);
#713=ORIENTED_EDGE('',*,*,#493,.T.);
#714=ORIENTED_EDGE('',*,*,#540,.T.);
#715=ORIENTED_EDGE('',*,*,#541,.F.);
#716=ORIENTED_EDGE('',*,*,#542,.F.);
#717=ORIENTED_EDGE('',*,*,#543,.F.);
#718=ORIENTED_EDGE('',*,*,#544,.F.);
#719=ORIENTED_EDGE('',*,*,#545,.F.);
#720=ORIENTED_EDGE('',*,*,#546,.F.);
#721=ORIENTED_EDGE('',*,*,#547,.F.);
#722=ORIENTED_EDGE('',*,*,#548,.F.);
#723=ORIENTED_EDGE('',*,*,#549,.F.);
#724=ORIENTED_EDGE('',*,*,#550,.F.);
#725=ORIENTED_EDGE('',*,*,#494,.T.);
#726=ORIENTED_EDGE('',*,*,#550,.T.);
#727=ORIENTED_EDGE('',*,*,#551,.T.);
#728=ORIENTED_EDGE('',*,*,#528,.T.);
#729=ORIENTED_EDGE('',*,*,#465,.T.);
#730=ORIENTED_EDGE('',*,*,#466,.T.);
#731=ORIENTED_EDGE('',*,*,#552,.T.);
#732=ORIENTED_EDGE('',*,*,#495,.T.);
#733=ORIENTED_EDGE('',*,*,#552,.F.);
#734=ORIENTED_EDGE('',*,*,#502,.T.);
#735=ORIENTED_EDGE('',*,*,#553,.T.);
#736=ORIENTED_EDGE('',*,*,#554,.F.);
#737=ORIENTED_EDGE('',*,*,#555,.T.);
#738=ORIENTED_EDGE('',*,*,#555,.F.);
#739=ORIENTED_EDGE('',*,*,#556,.F.);
#740=ORIENTED_EDGE('',*,*,#557,.T.);
#741=ORIENTED_EDGE('',*,*,#503,.T.);
#742=ORIENTED_EDGE('',*,*,#504,.T.);
#743=ORIENTED_EDGE('',*,*,#557,.F.);
#744=ORIENTED_EDGE('',*,*,#558,.T.);
#745=ORIENTED_EDGE('',*,*,#559,.F.);
#746=ORIENTED_EDGE('',*,*,#560,.F.);
#747=ORIENTED_EDGE('',*,*,#505,.T.);
#748=ORIENTED_EDGE('',*,*,#559,.T.);
#749=ORIENTED_EDGE('',*,*,#561,.F.);
#750=ORIENTED_EDGE('',*,*,#506,.T.);
#751=ORIENTED_EDGE('',*,*,#560,.T.);
#752=ORIENTED_EDGE('',*,*,#562,.F.);
#753=ORIENTED_EDGE('',*,*,#563,.T.);
#754=ORIENTED_EDGE('',*,*,#507,.T.);
#755=ORIENTED_EDGE('',*,*,#563,.F.);
#756=ORIENTED_EDGE('',*,*,#564,.F.);
#757=ORIENTED_EDGE('',*,*,#553,.F.);
#758=ORIENTED_EDGE('',*,*,#565,.F.);
#759=ORIENTED_EDGE('',*,*,#566,.F.);
#760=ORIENTED_EDGE('',*,*,#567,.F.);
#761=ORIENTED_EDGE('',*,*,#568,.F.);
#762=ORIENTED_EDGE('',*,*,#521,.T.);
#763=ORIENTED_EDGE('',*,*,#527,.F.);
#764=ORIENTED_EDGE('',*,*,#525,.F.);
#765=ORIENTED_EDGE('',*,*,#523,.T.);
#766=ORIENTED_EDGE('',*,*,#529,.T.);
#767=ORIENTED_EDGE('',*,*,#551,.F.);
#768=ORIENTED_EDGE('',*,*,#549,.T.);
#769=ORIENTED_EDGE('',*,*,#569,.F.);
#770=ORIENTED_EDGE('',*,*,#569,.T.);
#771=ORIENTED_EDGE('',*,*,#548,.T.);
#772=ORIENTED_EDGE('',*,*,#570,.T.);
#773=ORIENTED_EDGE('',*,*,#530,.T.);
#774=ORIENTED_EDGE('',*,*,#531,.T.);
#775=ORIENTED_EDGE('',*,*,#570,.F.);
#776=ORIENTED_EDGE('',*,*,#547,.T.);
#777=ORIENTED_EDGE('',*,*,#571,.F.);
#778=ORIENTED_EDGE('',*,*,#571,.T.);
#779=ORIENTED_EDGE('',*,*,#546,.T.);
#780=ORIENTED_EDGE('',*,*,#572,.T.);
#781=ORIENTED_EDGE('',*,*,#532,.T.);
#782=ORIENTED_EDGE('',*,*,#533,.T.);
#783=ORIENTED_EDGE('',*,*,#572,.F.);
#784=ORIENTED_EDGE('',*,*,#545,.T.);
#785=ORIENTED_EDGE('',*,*,#573,.F.);
#786=ORIENTED_EDGE('',*,*,#574,.T.);
#787=ORIENTED_EDGE('',*,*,#534,.T.);
#788=ORIENTED_EDGE('',*,*,#573,.T.);
#789=ORIENTED_EDGE('',*,*,#544,.T.);
#790=ORIENTED_EDGE('',*,*,#535,.T.);
#791=ORIENTED_EDGE('',*,*,#574,.F.);
#792=ORIENTED_EDGE('',*,*,#543,.T.);
#793=ORIENTED_EDGE('',*,*,#575,.F.);
#794=ORIENTED_EDGE('',*,*,#575,.T.);
#795=ORIENTED_EDGE('',*,*,#542,.T.);
#796=ORIENTED_EDGE('',*,*,#576,.T.);
#797=ORIENTED_EDGE('',*,*,#536,.T.);
#798=ORIENTED_EDGE('',*,*,#537,.T.);
#799=ORIENTED_EDGE('',*,*,#576,.F.);
#800=ORIENTED_EDGE('',*,*,#541,.T.);
#801=ORIENTED_EDGE('',*,*,#539,.F.);
#802=ORIENTED_EDGE('',*,*,#554,.T.);
#803=ORIENTED_EDGE('',*,*,#564,.T.);
#804=ORIENTED_EDGE('',*,*,#562,.T.);
#805=ORIENTED_EDGE('',*,*,#561,.T.);
#806=ORIENTED_EDGE('',*,*,#558,.F.);
#807=ORIENTED_EDGE('',*,*,#556,.T.);
#808=ORIENTED_EDGE('',*,*,#577,.F.);
#809=ORIENTED_EDGE('',*,*,#578,.F.);
#810=ORIENTED_EDGE('',*,*,#579,.F.);
#811=ORIENTED_EDGE('',*,*,#565,.T.);
#812=ORIENTED_EDGE('',*,*,#580,.F.);
#813=ORIENTED_EDGE('',*,*,#581,.T.);
#814=ORIENTED_EDGE('',*,*,#566,.T.);
#815=ORIENTED_EDGE('',*,*,#579,.T.);
#816=ORIENTED_EDGE('',*,*,#582,.T.);
#817=ORIENTED_EDGE('',*,*,#583,.F.);
#818=ORIENTED_EDGE('',*,*,#567,.T.);
#819=ORIENTED_EDGE('',*,*,#581,.F.);
#820=ORIENTED_EDGE('',*,*,#584,.T.);
#821=ORIENTED_EDGE('',*,*,#580,.T.);
#822=ORIENTED_EDGE('',*,*,#568,.T.);
#823=ORIENTED_EDGE('',*,*,#583,.T.);
#824=ORIENTED_EDGE('',*,*,#585,.T.);
#825=ORIENTED_EDGE('',*,*,#586,.T.);
#826=ORIENTED_EDGE('',*,*,#587,.T.);
#827=ORIENTED_EDGE('',*,*,#577,.T.);
#828=ORIENTED_EDGE('',*,*,#587,.F.);
#829=ORIENTED_EDGE('',*,*,#584,.F.);
#830=ORIENTED_EDGE('',*,*,#582,.F.);
#831=ORIENTED_EDGE('',*,*,#578,.T.);
#832=ORIENTED_EDGE('',*,*,#585,.F.);
#833=ORIENTED_EDGE('',*,*,#586,.F.);
#834=CYLINDRICAL_SURFACE('',#915,1.549982398014);
#835=CYLINDRICAL_SURFACE('',#925,0.3);
#836=CYLINDRICAL_SURFACE('',#933,0.3);
#837=CYLINDRICAL_SURFACE('',#960,1.925);
#838=CYLINDRICAL_SURFACE('',#966,0.2);
#839=CYLINDRICAL_SURFACE('',#968,0.2);
#840=CYLINDRICAL_SURFACE('',#970,0.2);
#841=CYLINDRICAL_SURFACE('',#972,0.1999999999996);
#842=CYLINDRICAL_SURFACE('',#974,0.2);
#843=CYLINDRICAL_SURFACE('',#981,1.);
#844=ADVANCED_FACE('',(#58),#834,.F.);
#845=ADVANCED_FACE('',(#59),#21,.T.);
#846=ADVANCED_FACE('',(#60),#22,.T.);
#847=ADVANCED_FACE('',(#61,#16,#17),#23,.F.);
#848=ADVANCED_FACE('',(#62),#835,.T.);
#849=ADVANCED_FACE('',(#63),#24,.F.);
#850=ADVANCED_FACE('',(#64,#18),#25,.T.);
#851=ADVANCED_FACE('',(#65),#26,.T.);
#852=ADVANCED_FACE('',(#66),#27,.T.);
#853=ADVANCED_FACE('',(#67),#28,.T.);
#854=ADVANCED_FACE('',(#68),#836,.T.);
#855=ADVANCED_FACE('',(#69),#29,.T.);
#856=ADVANCED_FACE('',(#70),#30,.F.);
#857=ADVANCED_FACE('',(#71),#31,.F.);
#858=ADVANCED_FACE('',(#72),#32,.F.);
#859=ADVANCED_FACE('',(#73),#33,.T.);
#860=ADVANCED_FACE('',(#74),#34,.T.);
#861=ADVANCED_FACE('',(#75),#35,.F.);
#862=ADVANCED_FACE('',(#76),#36,.F.);
#863=ADVANCED_FACE('',(#77),#37,.F.);
#864=ADVANCED_FACE('',(#78),#38,.T.);
#865=ADVANCED_FACE('',(#79),#39,.T.);
#866=ADVANCED_FACE('',(#80),#40,.F.);
#867=ADVANCED_FACE('',(#81),#15,.F.);
#868=ADVANCED_FACE('',(#82),#41,.F.);
#869=ADVANCED_FACE('',(#83),#42,.F.);
#870=ADVANCED_FACE('',(#84),#837,.F.);
#871=ADVANCED_FACE('',(#85),#43,.F.);
#872=ADVANCED_FACE('',(#86),#44,.T.);
#873=ADVANCED_FACE('',(#87,#19),#45,.T.);
#874=ADVANCED_FACE('',(#88),#46,.F.);
#875=ADVANCED_FACE('',(#89),#838,.T.);
#876=ADVANCED_FACE('',(#90),#47,.F.);
#877=ADVANCED_FACE('',(#91),#839,.T.);
#878=ADVANCED_FACE('',(#92),#48,.T.);
#879=ADVANCED_FACE('',(#93),#840,.F.);
#880=ADVANCED_FACE('',(#94),#49,.F.);
#881=ADVANCED_FACE('',(#95),#841,.T.);
#882=ADVANCED_FACE('',(#96),#50,.F.);
#883=ADVANCED_FACE('',(#97),#842,.T.);
#884=ADVANCED_FACE('',(#98,#20),#51,.T.);
#885=ADVANCED_FACE('',(#99),#52,.T.);
#886=ADVANCED_FACE('',(#100),#53,.T.);
#887=ADVANCED_FACE('',(#101),#54,.F.);
#888=ADVANCED_FACE('',(#102),#55,.F.);
#889=ADVANCED_FACE('',(#103),#843,.F.);
#890=ADVANCED_FACE('',(#104),#56,.T.);
#891=ADVANCED_FACE('',(#105),#57,.T.);
#892=CLOSED_SHELL('',(#844,#845,#846,#847,#848,#849,#850,#851,#852,#853,
#854,#855,#856,#857,#858,#859,#860,#861,#862,#863,#864,#865,#866,#867,#868,
#869,#870,#871,#872,#873,#874,#875,#876,#877,#878,#879,#880,#881,#882,#883,
#884,#885,#886,#887,#888,#889,#890,#891));
#893=DERIVED_UNIT_ELEMENT(#896,1.);
#894=DERIVED_UNIT_ELEMENT(#1487,-3.);
#895=DIMENSIONAL_EXPONENTS(0.,1.,0.,0.,0.,0.,0.);
#896=(
CONVERSION_BASED_UNIT('gram',#898)
MASS_UNIT()
NAMED_UNIT(#895)
);
#897=(
MASS_UNIT()
NAMED_UNIT(*)
SI_UNIT(.KILO.,.GRAM.)
);
#898=MASS_MEASURE_WITH_UNIT(MASS_MEASURE(0.001),#897);
#899=DERIVED_UNIT((#893,#894));
#900=MEASURE_REPRESENTATION_ITEM('density measure',
POSITIVE_RATIO_MEASURE(1.),#899);
#901=PROPERTY_DEFINITION_REPRESENTATION(#906,#903);
#902=PROPERTY_DEFINITION_REPRESENTATION(#907,#904);
#903=REPRESENTATION('material name',(#905),#1484);
#904=REPRESENTATION('density',(#900),#1484);
#905=DESCRIPTIVE_REPRESENTATION_ITEM('Generic','Generic');
#906=PROPERTY_DEFINITION('material property','material name',#1494);
#907=PROPERTY_DEFINITION('material property','density of part',#1494);
#908=DATE_TIME_ROLE('creation_date');
#909=APPLIED_DATE_AND_TIME_ASSIGNMENT(#910,#908,(#1494));
#910=DATE_AND_TIME(#911,#912);
#911=CALENDAR_DATE(2026,7,8);
#912=LOCAL_TIME(0,0,0.,#913);
#913=COORDINATED_UNIVERSAL_TIME_OFFSET(0,0,.BEHIND.);
#914=AXIS2_PLACEMENT_3D('',#1228,#985,#986);
#915=AXIS2_PLACEMENT_3D('',#1229,#987,#988);
#916=AXIS2_PLACEMENT_3D('',#1232,#989,#990);
#917=AXIS2_PLACEMENT_3D('',#1233,#991,#992);
#918=AXIS2_PLACEMENT_3D('',#1236,#994,#995);
#919=AXIS2_PLACEMENT_3D('',#1237,#996,#997);
#920=AXIS2_PLACEMENT_3D('',#1238,#998,#999);
#921=AXIS2_PLACEMENT_3D('',#1243,#1001,#1002);
#922=AXIS2_PLACEMENT_3D('',#1255,#1008,#1009);
#923=AXIS2_PLACEMENT_3D('',#1263,#1014,#1015);
#924=AXIS2_PLACEMENT_3D('',#1291,#1030,#1031);
#925=AXIS2_PLACEMENT_3D('',#1292,#1032,#1033);
#926=AXIS2_PLACEMENT_3D('',#1294,#1034,#1035);
#927=AXIS2_PLACEMENT_3D('',#1296,#1037,#1038);
#928=AXIS2_PLACEMENT_3D('',#1300,#1041,#1042);
#929=AXIS2_PLACEMENT_3D('',#1310,#1047,#1048);
#930=AXIS2_PLACEMENT_3D('',#1316,#1052,#1053);
#931=AXIS2_PLACEMENT_3D('',#1320,#1056,#1057);
#932=AXIS2_PLACEMENT_3D('',#1324,#1060,#1061);
#933=AXIS2_PLACEMENT_3D('',#1328,#1064,#1065);
#934=AXIS2_PLACEMENT_3D('',#1329,#1066,#1067);
#935=AXIS2_PLACEMENT_3D('',#1330,#1068,#1069);
#936=AXIS2_PLACEMENT_3D('',#1334,#1072,#1073);
#937=AXIS2_PLACEMENT_3D('',#1338,#1076,#1077);
#938=AXIS2_PLACEMENT_3D('',#1340,#1079,#1080);
#939=AXIS2_PLACEMENT_3D('',#1346,#1084,#1085);
#940=AXIS2_PLACEMENT_3D('',#1350,#1088,#1089);
#941=AXIS2_PLACEMENT_3D('',#1354,#1092,#1093);
#942=AXIS2_PLACEMENT_3D('',#1356,#1095,#1096);
#943=AXIS2_PLACEMENT_3D('',#1357,#1097,#1098);
#944=AXIS2_PLACEMENT_3D('',#1361,#1100,#1101);
#945=AXIS2_PLACEMENT_3D('',#1365,#1103,#1104);
#946=AXIS2_PLACEMENT_3D('',#1369,#1106,#1107);
#947=AXIS2_PLACEMENT_3D('',#1373,#1109,#1110);
#948=AXIS2_PLACEMENT_3D('',#1377,#1112,#1113);
#949=AXIS2_PLACEMENT_3D('',#1379,#1115,#1116);
#950=AXIS2_PLACEMENT_3D('',#1383,#1119,#1120);
#951=AXIS2_PLACEMENT_3D('',#1385,#1121,#1122);
#952=AXIS2_PLACEMENT_3D('',#1389,#1124,#1125);
#953=AXIS2_PLACEMENT_3D('',#1393,#1127,#1128);
#954=AXIS2_PLACEMENT_3D('',#1397,#1130,#1131);
#955=AXIS2_PLACEMENT_3D('',#1401,#1133,#1134);
#956=AXIS2_PLACEMENT_3D('',#1403,#1136,#1137);
#957=AXIS2_PLACEMENT_3D('',#1405,#1139,#1140);
#958=AXIS2_PLACEMENT_3D('',#1407,#1142,#1143);
#959=AXIS2_PLACEMENT_3D('',#1413,#1147,#1148);
#960=AXIS2_PLACEMENT_3D('',#1417,#1151,#1152);
#961=AXIS2_PLACEMENT_3D('',#1419,#1153,#1154);
#962=AXIS2_PLACEMENT_3D('',#1421,#1156,#1157);
#963=AXIS2_PLACEMENT_3D('',#1425,#1160,#1161);
#964=AXIS2_PLACEMENT_3D('',#1429,#1164,#1165);
#965=AXIS2_PLACEMENT_3D('',#1439,#1171,#1172);
#966=AXIS2_PLACEMENT_3D('',#1440,#1173,#1174);
#967=AXIS2_PLACEMENT_3D('',#1442,#1176,#1177);
#968=AXIS2_PLACEMENT_3D('',#1444,#1179,#1180);
#969=AXIS2_PLACEMENT_3D('',#1446,#1182,#1183);
#970=AXIS2_PLACEMENT_3D('',#1448,#1185,#1186);
#971=AXIS2_PLACEMENT_3D('',#1450,#1188,#1189);
#972=AXIS2_PLACEMENT_3D('',#1452,#1191,#1192);
#973=AXIS2_PLACEMENT_3D('',#1454,#1194,#1195);
#974=AXIS2_PLACEMENT_3D('',#1456,#1197,#1198);
#975=AXIS2_PLACEMENT_3D('',#1457,#1199,#1200);
#976=AXIS2_PLACEMENT_3D('',#1459,#1201,#1202);
#977=AXIS2_PLACEMENT_3D('',#1460,#1203,#1204);
#978=AXIS2_PLACEMENT_3D('',#1466,#1208,#1209);
#979=AXIS2_PLACEMENT_3D('',#1470,#1212,#1213);
#980=AXIS2_PLACEMENT_3D('',#1474,#1216,#1217);
#981=AXIS2_PLACEMENT_3D('',#1476,#1219,#1220);
#982=AXIS2_PLACEMENT_3D('',#1478,#1221,#1222);
#983=AXIS2_PLACEMENT_3D('',#1480,#1224,#1225);
#984=AXIS2_PLACEMENT_3D('',#1481,#1226,#1227);
#985=DIRECTION('axis',(0.,0.,1.));
#986=DIRECTION('refdir',(1.,0.,0.));
#987=DIRECTION('center_axis',(0.,1.,0.));
#988=DIRECTION('ref_axis',(1.,0.,0.));
#989=DIRECTION('center_axis',(0.,1.,0.));
#990=DIRECTION('ref_axis',(-1.450903199224E-10,0.,-1.));
#991=DIRECTION('center_axis',(0.,1.,0.));
#992=DIRECTION('ref_axis',(-1.450903199224E-10,0.,-1.));
#993=DIRECTION('',(0.,1.,0.));
#994=DIRECTION('center_axis',(0.,1.,0.));
#995=DIRECTION('ref_axis',(1.,0.,0.));
#996=DIRECTION('center_axis',(0.,-1.,0.));
#997=DIRECTION('ref_axis',(0.,0.,-1.));
#998=DIRECTION('center_axis',(1.,0.,0.));
#999=DIRECTION('ref_axis',(0.,0.,-1.));
#1000=DIRECTION('',(0.,0.,-1.));
#1001=DIRECTION('center_axis',(1.,0.,0.));
#1002=DIRECTION('ref_axis',(0.,-1.,0.));
#1003=DIRECTION('',(0.,1.,0.));
#1004=DIRECTION('',(0.,0.,1.));
#1005=DIRECTION('',(0.,-1.,0.));
#1006=DIRECTION('',(0.,-0.839869461224905,0.542788437700903));
#1007=DIRECTION('',(0.,-1.,0.));
#1008=DIRECTION('center_axis',(1.,0.,0.));
#1009=DIRECTION('ref_axis',(0.,-1.,0.));
#1010=DIRECTION('',(0.,0.,-1.));
#1011=DIRECTION('',(0.,-1.,0.));
#1012=DIRECTION('',(0.,0.,-1.));
#1013=DIRECTION('',(0.,0.894427190999896,-0.447213595499998));
#1014=DIRECTION('center_axis',(0.,1.,0.));
#1015=DIRECTION('ref_axis',(1.,0.,0.));
#1016=DIRECTION('',(-1.,0.,0.));
#1017=DIRECTION('',(0.,0.,-1.));
#1018=DIRECTION('',(-1.,0.,0.));
#1019=DIRECTION('',(0.,0.,1.));
#1020=DIRECTION('',(1.,0.,0.));
#1021=DIRECTION('',(0.,0.,-1.));
#1022=DIRECTION('',(1.,0.,0.));
#1023=DIRECTION('',(1.,0.,0.));
#1024=DIRECTION('',(0.,0.,-1.));
#1025=DIRECTION('',(-1.,0.,0.));
#1026=DIRECTION('',(0.,0.,-1.));
#1027=DIRECTION('',(-1.,0.,0.));
#1028=DIRECTION('',(0.,0.,1.));
#1029=DIRECTION('',(1.,0.,0.));
#1030=DIRECTION('center_axis',(0.,-1.,0.));
#1031=DIRECTION('ref_axis',(0.,0.,-1.));
#1032=DIRECTION('center_axis',(1.,0.,0.));
#1033=DIRECTION('ref_axis',(0.,-1.,0.));
#1034=DIRECTION('center_axis',(1.,0.,0.));
#1035=DIRECTION('ref_axis',(0.,-1.,0.));
#1036=DIRECTION('',(-1.,0.,0.));
#1037=DIRECTION('center_axis',(0.,0.,1.));
#1038=DIRECTION('ref_axis',(-1.,0.,0.));
#1039=DIRECTION('',(0.,1.,0.));
#1040=DIRECTION('',(1.,0.,0.));
#1041=DIRECTION('center_axis',(0.,1.,0.));
#1042=DIRECTION('ref_axis',(0.,0.,-1.));
#1043=DIRECTION('',(0.,0.,1.));
#1044=DIRECTION('',(-1.,0.,0.));
#1045=DIRECTION('',(0.,0.,1.));
#1046=DIRECTION('',(-1.,0.,-3.269999113756E-13));
#1047=DIRECTION('center_axis',(0.,-1.,0.));
#1048=DIRECTION('ref_axis',(0.515078753637876,0.,0.857142857142759));
#1049=DIRECTION('',(-1.,0.,3.490448492215E-14));
#1050=DIRECTION('',(0.,0.,-1.));
#1051=DIRECTION('',(1.,0.,0.));
#1052=DIRECTION('center_axis',(0.,0.,1.));
#1053=DIRECTION('ref_axis',(-1.,0.,0.));
#1054=DIRECTION('',(0.,-1.,0.));
#1055=DIRECTION('',(-1.,0.,0.));
#1056=DIRECTION('center_axis',(0.,0.542788437700903,0.839869461224905));
#1057=DIRECTION('ref_axis',(0.,-0.839869461224905,0.542788437700903));
#1058=DIRECTION('',(0.,-0.839869461224905,0.542788437700903));
#1059=DIRECTION('',(1.,6.484720016829E-13,-9.044108130771E-14));
#1060=DIRECTION('center_axis',(0.,0.,1.));
#1061=DIRECTION('ref_axis',(1.,0.,0.));
#1062=DIRECTION('',(0.,-1.,0.));
#1063=DIRECTION('',(1.,-1.093438550552E-12,0.));
#1064=DIRECTION('center_axis',(-1.,0.,0.));
#1065=DIRECTION('ref_axis',(0.,-1.,0.));
#1066=DIRECTION('center_axis',(1.,0.,0.));
#1067=DIRECTION('ref_axis',(0.,-1.,0.));
#1068=DIRECTION('center_axis',(0.,0.,1.));
#1069=DIRECTION('ref_axis',(-1.,0.,0.));
#1070=DIRECTION('',(1.986506197633E-14,-1.,0.));
#1071=DIRECTION('',(-1.,0.,0.));
#1072=DIRECTION('center_axis',(0.,1.,0.));
#1073=DIRECTION('ref_axis',(-1.,0.,0.));
#1074=DIRECTION('',(1.316407300627E-14,0.,-1.));
#1075=DIRECTION('',(-1.,0.,0.));
#1076=DIRECTION('center_axis',(0.,0.447213595499998,0.894427190999896));
#1077=DIRECTION('ref_axis',(0.,0.894427190999896,-0.447213595499998));
#1078=DIRECTION('',(-1.77678515825299E-14,0.894427190999896,-0.447213595499998));
#1079=DIRECTION('center_axis',(1.,0.,0.));
#1080=DIRECTION('ref_axis',(0.,0.,-1.));
#1081=DIRECTION('',(0.,0.894427190999896,-0.447213595499998));
#1082=DIRECTION('',(0.,0.,-1.));
#1083=DIRECTION('',(0.,-1.,0.));
#1084=DIRECTION('center_axis',(0.,0.,1.));
#1085=DIRECTION('ref_axis',(-1.,0.,0.));
#1086=DIRECTION('',(-1.,0.,0.));
#1087=DIRECTION('',(0.,-1.,0.));
#1088=DIRECTION('center_axis',(1.,0.,0.));
#1089=DIRECTION('ref_axis',(0.,1.,0.));
#1090=DIRECTION('',(0.,0.,-1.));
#1091=DIRECTION('',(0.,-0.894427190999896,0.447213595499998));
#1092=DIRECTION('center_axis',(0.,0.447213595499998,0.894427190999896));
#1093=DIRECTION('ref_axis',(0.,0.894427190999896,-0.447213595499998));
#1094=DIRECTION('',(-1.,0.,0.));
#1095=DIRECTION('center_axis',(1.,0.,0.));
#1096=DIRECTION('ref_axis',(0.,-1.,0.));
#1097=DIRECTION('center_axis',(1.,0.,0.));
#1098=DIRECTION('ref_axis',(0.,0.,1.));
#1099=DIRECTION('',(0.,1.,0.));
#1100=DIRECTION('center_axis',(1.,0.,0.));
#1101=DIRECTION('ref_axis',(0.,-1.,-9.237055564881E-13));
#1102=DIRECTION('',(0.,0.,-1.));
#1103=DIRECTION('center_axis',(1.,0.,0.));
#1104=DIRECTION('ref_axis',(0.,-0.384265073806888,0.923222807913771));
#1105=DIRECTION('',(0.,-0.923076874362664,-0.384615501529585));
#1106=DIRECTION('center_axis',(-1.,0.,0.));
#1107=DIRECTION('ref_axis',(0.,0.384253722283108,0.92322753257882));
#1108=DIRECTION('',(0.,0.923076911864878,-0.384615411524291));
#1109=DIRECTION('center_axis',(1.,0.,0.));
#1110=DIRECTION('ref_axis',(0.,-0.999999927936793,0.000379639841919397));
#1111=DIRECTION('',(0.,2.22032432142794E-7,-0.999999999999975));
#1112=DIRECTION('center_axis',(1.,0.,0.));
#1113=DIRECTION('ref_axis',(0.,2.514655150776E-13,1.));
#1114=DIRECTION('',(0.,-1.,0.));
#1115=DIRECTION('center_axis',(0.,0.,1.));
#1116=DIRECTION('ref_axis',(0.,-1.,0.));
#1117=DIRECTION('',(1.,0.,0.));
#1118=DIRECTION('',(0.,-1.,0.));
#1119=DIRECTION('center_axis',(1.,0.,0.));
#1120=DIRECTION('ref_axis',(0.,0.,1.));
#1121=DIRECTION('center_axis',(-1.,0.,0.));
#1122=DIRECTION('ref_axis',(0.,-0.999999999994864,3.20493846128788E-6));
#1123=DIRECTION('',(0.,-2.22256581640795E-7,0.999999999999975));
#1124=DIRECTION('center_axis',(-1.,0.,0.));
#1125=DIRECTION('ref_axis',(0.,-0.384615384620582,-0.923076923074757));
#1126=DIRECTION('',(0.,-0.923076900316205,0.384615439241102));
#1127=DIRECTION('center_axis',(1.,0.,0.));
#1128=DIRECTION('ref_axis',(0.,0.384253722491786,-0.923227532491967));
#1129=DIRECTION('',(0.,0.923076867685455,0.384615517554881));
#1130=DIRECTION('center_axis',(-1.,0.,0.));
#1131=DIRECTION('ref_axis',(0.,-1.,9.814371537686E-13));
#1132=DIRECTION('',(0.,0.,1.));
#1133=DIRECTION('center_axis',(-1.,0.,0.));
#1134=DIRECTION('ref_axis',(0.,-2.775557561563E-14,-1.));
#1135=DIRECTION('',(0.,-1.,0.));
#1136=DIRECTION('center_axis',(0.,0.,1.));
#1137=DIRECTION('ref_axis',(0.,1.,0.));
#1138=DIRECTION('',(-1.,0.,0.));
#1139=DIRECTION('center_axis',(0.,-1.,0.));
#1140=DIRECTION('ref_axis',(0.,0.,-1.));
#1141=DIRECTION('',(-5.47671312765993E-17,-0.894430206332977,0.447207564783007));
#1142=DIRECTION('center_axis',(0.999971305183713,-0.0075755401907861,0.));
#1143=DIRECTION('ref_axis',(0.0075755401907861,0.999971305183713,0.));
#1144=DIRECTION('',(0.0075755401907861,0.999971305183713,0.));
#1145=DIRECTION('',(0.,0.,1.));
#1146=DIRECTION('',(-0.0075755401907861,-0.999971305183713,0.));
#1147=DIRECTION('center_axis',(0.,0.,1.));
#1148=DIRECTION('ref_axis',(0.,-1.,0.));
#1149=DIRECTION('',(-1.,0.,-3.688164390787E-13));
#1150=DIRECTION('',(1.069851278275E-14,-1.,0.));
#1151=DIRECTION('center_axis',(0.,1.,0.));
#1152=DIRECTION('ref_axis',(1.,0.,0.));
#1153=DIRECTION('center_axis',(0.,1.,0.));
#1154=DIRECTION('ref_axis',(-0.515078753637611,0.,0.857142857142918));
#1155=DIRECTION('',(-2.13970255655E-14,1.,0.));
#1156=DIRECTION('center_axis',(0.,0.,1.));
#1157=DIRECTION('ref_axis',(0.,-1.,0.));
#1158=DIRECTION('',(-0.0075755401907861,0.999971305183713,0.));
#1159=DIRECTION('',(-1.,0.,3.893062412499E-14));
#1160=DIRECTION('center_axis',(0.999971305183713,0.0075755401907861,0.));
#1161=DIRECTION('ref_axis',(0.0075755401907861,-0.999971305183713,0.));
#1162=DIRECTION('',(0.,0.,-1.));
#1163=DIRECTION('',(0.0075755401907861,-0.999971305183713,0.));
#1164=DIRECTION('center_axis',(0.,0.,1.));
#1165=DIRECTION('ref_axis',(0.,1.,0.));
#1166=DIRECTION('',(1.,0.,0.));
#1167=DIRECTION('',(-1.,0.,0.));
#1168=DIRECTION('',(0.,1.,0.));
#1169=DIRECTION('',(1.,0.,0.));
#1170=DIRECTION('',(0.,-1.,0.));
#1171=DIRECTION('center_axis',(0.,1.,0.));
#1172=DIRECTION('ref_axis',(-1.,0.,0.));
#1173=DIRECTION('center_axis',(-1.,0.,0.));
#1174=DIRECTION('ref_axis',(0.,0.,-1.));
#1175=DIRECTION('',(1.,0.,0.));
#1176=DIRECTION('center_axis',(0.,1.,0.));
#1177=DIRECTION('ref_axis',(0.,0.,-1.));
#1178=DIRECTION('',(-1.,0.,0.));
#1179=DIRECTION('center_axis',(-1.,0.,0.));
#1180=DIRECTION('ref_axis',(0.,-1.,0.));
#1181=DIRECTION('',(0.999999999118554,3.87646677980782E-5,1.61305173526793E-5));
#1182=DIRECTION('center_axis',(0.,-0.384615384614703,0.923076923077207));
#1183=DIRECTION('ref_axis',(0.,-0.923076923077207,-0.384615384614703));
#1184=DIRECTION('',(-0.99999999970213,-2.25359263788107E-5,-9.37402208211828E-6));
#1185=DIRECTION('center_axis',(1.,0.,0.));
#1186=DIRECTION('ref_axis',(0.,0.,1.));
#1187=DIRECTION('',(0.999999999701274,-2.25659899274594E-5,9.39301135733575E-6));
#1188=DIRECTION('center_axis',(0.,0.384615384615285,0.923076923076965));
#1189=DIRECTION('ref_axis',(0.,0.923076923076964,-0.384615384615285));
#1190=DIRECTION('',(-1.,1.562192835409E-13,-9.040387486232E-14));
#1191=DIRECTION('center_axis',(-1.,0.,0.));
#1192=DIRECTION('ref_axis',(0.,-0.384615384615697,-0.923076923076793));
#1193=DIRECTION('',(0.9999999991162,1.166739278233E-8,4.204284258762E-5));
#1194=DIRECTION('center_axis',(0.,1.,0.));
#1195=DIRECTION('ref_axis',(0.,0.,-1.));
#1196=DIRECTION('',(-0.999999999999997,-1.166739279264E-8,-7.27299385795798E-8));
#1197=DIRECTION('center_axis',(-1.,0.,0.));
#1198=DIRECTION('ref_axis',(0.,-1.,0.));
#1199=DIRECTION('center_axis',(0.,1.,0.));
#1200=DIRECTION('ref_axis',(-1.,0.,0.));
#1201=DIRECTION('center_axis',(0.,1.,0.));
#1202=DIRECTION('ref_axis',(0.,0.,1.));
#1203=DIRECTION('center_axis',(0.,1.,0.));
#1204=DIRECTION('ref_axis',(-1.,0.,0.));
#1205=DIRECTION('',(-1.,0.,0.));
#1206=DIRECTION('',(0.,0.,1.));
#1207=DIRECTION('',(0.,0.,-1.));
#1208=DIRECTION('center_axis',(1.,0.,0.));
#1209=DIRECTION('ref_axis',(0.,0.,-1.));
#1210=DIRECTION('',(0.,0.,-1.));
#1211=DIRECTION('',(0.,-1.,0.));
#1212=DIRECTION('center_axis',(0.,1.,0.));
#1213=DIRECTION('ref_axis',(-1.,0.,0.));
#1214=DIRECTION('',(0.,0.,1.));
#1215=DIRECTION('',(-1.,0.,0.));
#1216=DIRECTION('center_axis',(1.,0.,0.));
#1217=DIRECTION('ref_axis',(0.,0.,1.));
#1218=DIRECTION('',(0.,1.,0.));
#1219=DIRECTION('center_axis',(0.,1.,0.));
#1220=DIRECTION('ref_axis',(0.,0.,1.));
#1221=DIRECTION('center_axis',(0.,-1.,0.));
#1222=DIRECTION('ref_axis',(0.,0.,-1.));
#1223=DIRECTION('',(0.,1.,0.));
#1224=DIRECTION('center_axis',(0.,0.,1.));
#1225=DIRECTION('ref_axis',(1.,0.,0.));
#1226=DIRECTION('center_axis',(0.,1.,0.));
#1227=DIRECTION('ref_axis',(-1.,0.,0.));
#1228=CARTESIAN_POINT('',(0.,0.,0.));
#1229=CARTESIAN_POINT('Origin',(-1.905,1.799982949163,-10.));
#1230=CARTESIAN_POINT('',(-1.905,1.79998294916189,-8.45001760198621));
#1231=CARTESIAN_POINT('',(-3.454982398014,1.799982949162,-10.));
#1232=CARTESIAN_POINT('Origin',(-1.905,1.799982949162,-10.));
#1233=CARTESIAN_POINT('Origin',(-1.905,1.799982949162,-10.));
#1234=CARTESIAN_POINT('',(-3.454982398014,5.799982949163,-10.));
#1235=CARTESIAN_POINT('',(-3.454982398014,1.799982949163,-10.));
#1236=CARTESIAN_POINT('Origin',(-1.905,5.799982949163,-10.));
#1237=CARTESIAN_POINT('Origin',(-1.905,5.799982949163,-10.));
#1238=CARTESIAN_POINT('Origin',(4.50056658607423E-13,0.,0.));
#1239=CARTESIAN_POINT('',(4.50056658607423E-13,1.4,-8.6));
#1240=CARTESIAN_POINT('',(4.50195436485501E-13,1.4,-12.1));
#1241=CARTESIAN_POINT('',(4.49917880729345E-13,1.4,-3.1));
#1242=CARTESIAN_POINT('',(4.50195436485501E-13,1.7,-12.4));
#1243=CARTESIAN_POINT('Origin',(4.50056658607423E-13,1.7,-12.1));
#1244=CARTESIAN_POINT('',(4.49640324973188E-13,14.2,-12.4));
#1245=CARTESIAN_POINT('',(4.49917880729345E-13,3.975,-12.4));
#1246=CARTESIAN_POINT('',(4.50195436485501E-13,14.2,-0.5));
#1247=CARTESIAN_POINT('',(4.50195436485501E-13,14.2,-3.225));
#1248=CARTESIAN_POINT('',(4.50195436485501E-13,9.453661893741,-0.5));
#1249=CARTESIAN_POINT('',(4.49917880729345E-13,5.913415473435,-0.5));
#1250=CARTESIAN_POINT('',(4.49640324973188E-13,8.6800000000132,-3.04876709439234E-12));
#1251=CARTESIAN_POINT('',(4.49917880729345E-13,5.81206318380327,1.85348201804841));
#1252=CARTESIAN_POINT('',(4.50195436485501E-13,1.69999999999483,0.));
#1253=CARTESIAN_POINT('',(4.49917880729345E-13,2.5950000000045,0.));
#1254=CARTESIAN_POINT('',(4.50056658607423E-13,1.4,-0.3));
#1255=CARTESIAN_POINT('Origin',(4.50195436485501E-13,1.7,-0.3));
#1256=CARTESIAN_POINT('',(4.50056658607423E-13,1.4,-5.8));
#1257=CARTESIAN_POINT('',(4.49917880729345E-13,1.4,-3.1));
#1258=CARTESIAN_POINT('',(4.50056658607423E-13,1.454022087918E-13,-5.8));
#1259=CARTESIAN_POINT('',(4.50056658607423E-13,0.35000000000005,-5.8));
#1260=CARTESIAN_POINT('',(4.50056658607423E-13,1.461053500407E-13,-7.9));
#1261=CARTESIAN_POINT('',(4.50056658607423E-13,1.478817068801E-13,-3.425));
#1262=CARTESIAN_POINT('',(4.50056658607423E-13,-1.23000000000004,-7.28499999999982));
#1263=CARTESIAN_POINT('Origin',(2.1025,1.4,-6.2));
#1264=CARTESIAN_POINT('',(-3.81,1.4,-0.3));
#1265=CARTESIAN_POINT('',(2.011724120621E-13,1.4,-0.3));
#1266=CARTESIAN_POINT('',(-3.81,1.4,-5.8));
#1267=CARTESIAN_POINT('',(-3.81,1.4,-3.1));
#1268=CARTESIAN_POINT('',(-3.405,1.4,-5.8));
#1269=CARTESIAN_POINT('',(-3.405,1.4,-5.8));
#1270=CARTESIAN_POINT('',(-3.405,1.4,-8.6));
#1271=CARTESIAN_POINT('',(-3.405,1.4,-8.6));
#1272=CARTESIAN_POINT('',(-3.81,1.4,-8.6));
#1273=CARTESIAN_POINT('',(-4.215,1.4,-8.6));
#1274=CARTESIAN_POINT('',(-3.81,1.4,-12.1));
#1275=CARTESIAN_POINT('',(-3.81,1.4,-3.1));
#1276=CARTESIAN_POINT('',(-3.81,1.4,-12.1));
#1277=CARTESIAN_POINT('',(-0.4049999999996,1.4,-8.6));
#1278=CARTESIAN_POINT('',(-0.4049999999996,1.4,-8.6));
#1279=CARTESIAN_POINT('',(-0.4049999999996,1.4,-5.8));
#1280=CARTESIAN_POINT('',(-0.4049999999996,1.4,-5.8));
#1281=CARTESIAN_POINT('',(0.4050000000004,1.4,-5.8));
#1282=CARTESIAN_POINT('',(-3.305,1.4,-5.85));
#1283=CARTESIAN_POINT('',(-3.305,1.4,-7.85));
#1284=CARTESIAN_POINT('',(-3.305,1.4,-5.85));
#1285=CARTESIAN_POINT('',(-0.5049999999996,1.4,-5.85));
#1286=CARTESIAN_POINT('',(-0.5049999999996,1.4,-5.85));
#1287=CARTESIAN_POINT('',(-0.5049999999996,1.4,-7.85));
#1288=CARTESIAN_POINT('',(-0.5049999999996,1.4,-7.85));
#1289=CARTESIAN_POINT('',(-3.305,1.4,-7.85));
#1290=CARTESIAN_POINT('',(-1.905,1.4,-8.25002949851777));
#1291=CARTESIAN_POINT('Origin',(-1.905,1.4,-10.));
#1292=CARTESIAN_POINT('Origin',(-0.08409999999959,1.7,-12.1));
#1293=CARTESIAN_POINT('',(-3.81,1.7,-12.4));
#1294=CARTESIAN_POINT('Origin',(-3.81,1.7,-12.1));
#1295=CARTESIAN_POINT('',(4.205,1.7,-12.4));
#1296=CARTESIAN_POINT('Origin',(2.1025,7.95,-12.4));
#1297=CARTESIAN_POINT('',(-3.81,14.2,-12.4));
#1298=CARTESIAN_POINT('',(-3.81,3.975,-12.4));
#1299=CARTESIAN_POINT('',(-8.015,14.2,-12.4));
#1300=CARTESIAN_POINT('Origin',(4.502500000005,14.2,-6.45));
#1301=CARTESIAN_POINT('',(-3.81,14.2,-0.5));
#1302=CARTESIAN_POINT('',(-3.81,14.2,-3.225));
#1303=CARTESIAN_POINT('',(4.205,14.2,-0.5));
#1304=CARTESIAN_POINT('',(-3.38,14.2,-7.8));
#1305=CARTESIAN_POINT('',(-3.38,14.2,-3.7));
#1306=CARTESIAN_POINT('',(-3.38,14.2,-7.8));
#1307=CARTESIAN_POINT('',(-2.896526600752,14.2,-7.8));
#1308=CARTESIAN_POINT('',(-2.896526600752,14.2,-7.8));
#1309=CARTESIAN_POINT('',(-0.9134733992473,14.2,-7.8));
#1310=CARTESIAN_POINT('Origin',(-1.905,14.2,-9.45));
#1311=CARTESIAN_POINT('',(-0.4299999999996,14.2,-7.8));
#1312=CARTESIAN_POINT('',(-0.4299999999996,14.2,-7.8));
#1313=CARTESIAN_POINT('',(-0.4299999999996,14.2,-3.7));
#1314=CARTESIAN_POINT('',(-0.4299999999996,14.2,-3.7));
#1315=CARTESIAN_POINT('',(-3.38,14.2,-3.7));
#1316=CARTESIAN_POINT('Origin',(2.1025,11.82683094687,-0.5));
#1317=CARTESIAN_POINT('',(-3.81,9.453661893741,-0.5));
#1318=CARTESIAN_POINT('',(-3.81,5.913415473435,-0.5));
#1319=CARTESIAN_POINT('',(4.205,9.453661893741,-0.5));
#1320=CARTESIAN_POINT('Origin',(2.1025,9.066830946883,-0.250000000008));
#1321=CARTESIAN_POINT('',(-3.81,8.68000000001073,-2.70418657460992E-12));
#1322=CARTESIAN_POINT('',(-3.81,5.81206318380327,1.85348201804841));
#1323=CARTESIAN_POINT('',(-8.015,8.680000000008,-2.323881827711E-12));
#1324=CARTESIAN_POINT('Origin',(2.1025,5.190000000009,0.));
#1325=CARTESIAN_POINT('',(-3.81,1.699999999999,0.));
#1326=CARTESIAN_POINT('',(-3.81,2.5950000000045,0.));
#1327=CARTESIAN_POINT('',(-3.81,1.699999999999,0.));
#1328=CARTESIAN_POINT('Origin',(4.2891,1.7,-0.3));
#1329=CARTESIAN_POINT('Origin',(-3.81,1.7,-0.3));
#1330=CARTESIAN_POINT('Origin',(0.2025000000004,0.7000000000001,-5.8));
#1331=CARTESIAN_POINT('',(-0.4049999999996,1.458833054358E-13,-5.8));
#1332=CARTESIAN_POINT('',(-0.4049999999996,1.4,-5.8));
#1333=CARTESIAN_POINT('',(0.4050000000004,1.454022087918E-13,-5.8));
#1334=CARTESIAN_POINT('Origin',(0.2025000000004,1.478817068801E-13,-6.85));
#1335=CARTESIAN_POINT('',(-0.4049999999995,1.465864466847E-13,-7.9));
#1336=CARTESIAN_POINT('',(-0.4049999999996,1.458833054358E-13,-5.8));
#1337=CARTESIAN_POINT('',(0.4050000000004,1.461053500407E-13,-7.9));
#1338=CARTESIAN_POINT('Origin',(0.2025000000004,0.7000000000001,-8.25));
#1339=CARTESIAN_POINT('',(-0.4049999999995,1.465864466847E-13,-7.9));
#1340=CARTESIAN_POINT('Origin',(-3.81,0.,0.));
#1341=CARTESIAN_POINT('',(-3.81,1.465124318164E-13,-7.9));
#1342=CARTESIAN_POINT('',(-3.81,-1.23000000000004,-7.28499999999982));
#1343=CARTESIAN_POINT('',(-3.81,1.456612608308E-13,-5.8));
#1344=CARTESIAN_POINT('',(-3.81,1.478817068801E-13,-3.425));
#1345=CARTESIAN_POINT('',(-3.81,0.35000000000005,-5.8));
#1346=CARTESIAN_POINT('Origin',(-3.6075,0.7000000000001,-5.8));
#1347=CARTESIAN_POINT('',(-3.405,1.456612608308E-13,-5.8));
#1348=CARTESIAN_POINT('',(-3.405,1.456612608308E-13,-5.8));
#1349=CARTESIAN_POINT('',(-3.405,1.4,-5.8));
#1350=CARTESIAN_POINT('Origin',(-3.405,0.7000000000001,-7.2));
#1351=CARTESIAN_POINT('',(-3.405,1.465124318164E-13,-7.9));
#1352=CARTESIAN_POINT('',(-3.405,1.456612608308E-13,-5.8));
#1353=CARTESIAN_POINT('',(-3.405,1.4,-8.6));
#1354=CARTESIAN_POINT('Origin',(-3.6075,0.7000000000001,-8.25));
#1355=CARTESIAN_POINT('',(-3.405,1.465124318164E-13,-7.9));
#1356=CARTESIAN_POINT('Origin',(-0.4049999999996,0.7000000000001,-7.2));
#1357=CARTESIAN_POINT('Origin',(-3.305,0.7000000000001,-6.85));
#1358=CARTESIAN_POINT('',(-3.305,0.2000000000001,-7.85));
#1359=CARTESIAN_POINT('',(-3.305,0.2000000000001,-7.85));
#1360=CARTESIAN_POINT('',(-3.305,1.257327575388E-13,-7.65));
#1361=CARTESIAN_POINT('Origin',(-3.305,0.2000000000001,-7.65));
#1362=CARTESIAN_POINT('',(-3.305,9.983680548942E-14,-7.533333333333));
#1363=CARTESIAN_POINT('',(-3.305,1.257327575388E-13,-7.533333333333));
#1364=CARTESIAN_POINT('',(-3.305,0.123208714538568,-7.3486630742631));
#1365=CARTESIAN_POINT('Origin',(-3.305,0.2000000000001,-7.533333333333));
#1366=CARTESIAN_POINT('',(-3.30500000000044,0.876717417570256,-7.0347009767958));
#1367=CARTESIAN_POINT('',(-3.305,0.8767174406156,-7.034700984787));
#1368=CARTESIAN_POINT('',(-3.305,0.876802357219201,-6.66533434813656));
#1369=CARTESIAN_POINT('Origin',(-3.305,0.8000000000001,-6.85));
#1370=CARTESIAN_POINT('',(-3.305,0.1230769230775,-6.351282051282));
#1371=CARTESIAN_POINT('',(-3.305,0.1230769230772,-6.351282051282));
#1372=CARTESIAN_POINT('',(-3.305,3.48419572267752E-8,-6.16652389088537));
#1373=CARTESIAN_POINT('Origin',(-3.305,0.2000000000001,-6.166666666667));
#1374=CARTESIAN_POINT('',(-3.305,6.06330657752624E-10,-6.04999998539209));
#1375=CARTESIAN_POINT('',(-3.305,9.094459444784E-10,-6.049999986878));
#1376=CARTESIAN_POINT('',(-3.305,0.2000000000001,-5.85));
#1377=CARTESIAN_POINT('Origin',(-3.305,0.2000000000001,-6.05));
#1378=CARTESIAN_POINT('',(-3.305,1.4,-5.85));
#1379=CARTESIAN_POINT('Origin',(-1.905,0.8,-5.85));
#1380=CARTESIAN_POINT('',(-0.5049999999996,0.2000000000001,-5.85));
#1381=CARTESIAN_POINT('',(-3.305,0.2000000000001,-5.85));
#1382=CARTESIAN_POINT('',(-0.5049999999996,1.4,-5.85));
#1383=CARTESIAN_POINT('Origin',(-0.5049999999996,0.7000000000001,-6.85));
#1384=CARTESIAN_POINT('',(-0.5049999999996,2.23855029860514E-8,-6.04999978323499));
#1385=CARTESIAN_POINT('Origin',(-0.5049999999996,0.2000000000001,-6.05));
#1386=CARTESIAN_POINT('',(-0.50499999999747,9.62149755937062E-8,-6.16640612031197));
#1387=CARTESIAN_POINT('',(-0.5049999999996,5.945023157095E-8,-6.166406170915));
#1388=CARTESIAN_POINT('',(-0.5049999999996,0.1230769230768,-6.351282051282));
#1389=CARTESIAN_POINT('Origin',(-0.5049999999996,0.2000000000001,-6.166666666667));
#1390=CARTESIAN_POINT('',(-0.50499999999898,0.876739144922032,-6.66530804778516));
#1391=CARTESIAN_POINT('',(-0.5049999999996,0.8767391748676,-6.665308041871));
#1392=CARTESIAN_POINT('',(-0.5049999999996,0.876780537958399,-7.03467472968191));
#1393=CARTESIAN_POINT('Origin',(-0.5049999999996,0.8000000000001,-6.85));
#1394=CARTESIAN_POINT('',(-0.504999999997477,0.123317310359755,-7.34861790881844));
#1395=CARTESIAN_POINT('',(-0.5049999999996,0.1233172526838,-7.348617901762));
#1396=CARTESIAN_POINT('',(-0.5049999999996,1.257327575388E-13,-7.533333333333));
#1397=CARTESIAN_POINT('Origin',(-0.5049999999996,0.2000000000001,-7.533333333333));
#1398=CARTESIAN_POINT('',(-0.5049999999996,9.98090499138E-14,-7.65));
#1399=CARTESIAN_POINT('',(-0.5049999999996,1.257327575388E-13,-7.65));
#1400=CARTESIAN_POINT('',(-0.5049999999996,0.2000000000001,-7.85));
#1401=CARTESIAN_POINT('Origin',(-0.5049999999996,0.2000000000001,-7.65));
#1402=CARTESIAN_POINT('',(-0.5049999999996,1.4,-7.85));
#1403=CARTESIAN_POINT('Origin',(-1.905,0.8,-7.85));
#1404=CARTESIAN_POINT('',(-0.5049999999996,0.2000000000001,-7.85));
#1405=CARTESIAN_POINT('Origin',(-1.905,1.599986493423,-10.));
#1406=CARTESIAN_POINT('',(-1.905,1.599986493423,-8.350021059715));
#1407=CARTESIAN_POINT('Origin',(-3.355,17.5,-5.75));
#1408=CARTESIAN_POINT('',(-3.33,20.8,-3.7));
#1409=CARTESIAN_POINT('',(-3.38,14.2,-3.7));
#1410=CARTESIAN_POINT('',(-3.33,20.8,-7.8));
#1411=CARTESIAN_POINT('',(-3.33,20.8,-7.8));
#1412=CARTESIAN_POINT('',(-3.33,20.8,-7.8));
#1413=CARTESIAN_POINT('Origin',(-3.138263300376,17.5,-7.8));
#1414=CARTESIAN_POINT('',(-2.896526600752,20.8,-7.8));
#1415=CARTESIAN_POINT('',(-2.896526600752,20.8,-7.8));
#1416=CARTESIAN_POINT('',(-2.896526600752,20.8,-7.8));
#1417=CARTESIAN_POINT('Origin',(-1.905,14.068,-9.45));
#1418=CARTESIAN_POINT('',(-0.9134733992475,20.8,-7.8));
#1419=CARTESIAN_POINT('Origin',(-1.905,20.8,-9.45));
#1420=CARTESIAN_POINT('',(-0.9134733992473,14.2,-7.8));
#1421=CARTESIAN_POINT('Origin',(-0.6717366996237,17.5,-7.8));
#1422=CARTESIAN_POINT('',(-0.4799999999996,20.8,-7.8));
#1423=CARTESIAN_POINT('',(-0.4299999999996,14.2,-7.8));
#1424=CARTESIAN_POINT('',(-0.4799999999996,20.8,-7.8));
#1425=CARTESIAN_POINT('Origin',(-0.4549999999996,17.5,-5.75));
#1426=CARTESIAN_POINT('',(-0.4799999999996,20.8,-3.7));
#1427=CARTESIAN_POINT('',(-0.4799999999996,20.8,-3.7));
#1428=CARTESIAN_POINT('',(-0.4799999999996,20.8,-3.7));
#1429=CARTESIAN_POINT('Origin',(-1.905,17.5,-3.7));
#1430=CARTESIAN_POINT('',(-3.33,20.8,-3.7));
#1431=CARTESIAN_POINT('',(-1.505,20.5,-3.7));
#1432=CARTESIAN_POINT('',(-2.305,20.5,-3.7));
#1433=CARTESIAN_POINT('',(-1.505,20.5,-3.7));
#1434=CARTESIAN_POINT('',(-1.505,18.3,-3.7));
#1435=CARTESIAN_POINT('',(-1.505,18.3,-3.7));
#1436=CARTESIAN_POINT('',(-2.305,18.3,-3.7));
#1437=CARTESIAN_POINT('',(-2.305,18.3,-3.7));
#1438=CARTESIAN_POINT('',(-2.305,20.5,-3.7));
#1439=CARTESIAN_POINT('Origin',(-3.6075,1.478817068801E-13,-6.85));
#1440=CARTESIAN_POINT('Origin',(-0.4489999999996,0.2000000000001,-7.65));
#1441=CARTESIAN_POINT('',(-3.305,1.257327575388E-13,-7.65));
#1442=CARTESIAN_POINT('Origin',(-1.905,1.478817068801E-13,-7.591666666667));
#1443=CARTESIAN_POINT('',(-0.5049999999996,1.257327575388E-13,-7.533333333333));
#1444=CARTESIAN_POINT('Origin',(-0.4489999999996,0.2000000000001,-7.533333333333));
#1445=CARTESIAN_POINT('',(-3.305,0.1232087116139,-7.348663067211));
#1446=CARTESIAN_POINT('Origin',(-1.905,0.4999988555261,-7.191667143531));
#1447=CARTESIAN_POINT('',(-0.5049999999996,0.8767805412095,-7.034674737525));
#1448=CARTESIAN_POINT('Origin',(-3.361,0.8000000000001,-6.85));
#1449=CARTESIAN_POINT('',(-3.305,0.8768023596394,-6.665334342303));
#1450=CARTESIAN_POINT('Origin',(-1.905,0.4999638516168,-6.508318271507));
#1451=CARTESIAN_POINT('',(-0.5049999999996,0.1230769230768,-6.351282051282));
#1452=CARTESIAN_POINT('Origin',(-0.4489999999996,0.2000000000001,-6.166666666667));
#1453=CARTESIAN_POINT('',(-3.305,2.678153175154E-8,-6.166523890875));
#1454=CARTESIAN_POINT('Origin',(-1.905,1.478817068801E-13,-6.108295403591));
#1455=CARTESIAN_POINT('',(-0.5049999999996,3.357814576388E-8,-6.049999783235));
#1456=CARTESIAN_POINT('Origin',(-0.4489999999996,0.2000000000001,-6.05));
#1457=CARTESIAN_POINT('Origin',(-1.905,20.8,-5.75));
#1458=CARTESIAN_POINT('',(-1.905,20.8,-6.65));
#1459=CARTESIAN_POINT('Origin',(-1.905,20.8,-5.65));
#1460=CARTESIAN_POINT('Origin',(-1.905,20.5,-3.1));
#1461=CARTESIAN_POINT('',(-1.505,20.5,-2.5));
#1462=CARTESIAN_POINT('',(-2.305,20.5,-2.5));
#1463=CARTESIAN_POINT('',(-1.505,20.5,-2.5));
#1464=CARTESIAN_POINT('',(-1.505,20.5,-3.7));
#1465=CARTESIAN_POINT('',(-2.305,20.5,-2.5));
#1466=CARTESIAN_POINT('Origin',(-1.505,19.4,-3.1));
#1467=CARTESIAN_POINT('',(-1.505,18.3,-2.5));
#1468=CARTESIAN_POINT('',(-1.505,18.3,-2.5));
#1469=CARTESIAN_POINT('',(-1.505,20.5,-2.5));
#1470=CARTESIAN_POINT('Origin',(-1.905,18.3,-3.1));
#1471=CARTESIAN_POINT('',(-2.305,18.3,-2.5));
#1472=CARTESIAN_POINT('',(-2.305,18.3,-3.7));
#1473=CARTESIAN_POINT('',(-1.505,18.3,-2.5));
#1474=CARTESIAN_POINT('Origin',(-2.305,19.4,-3.1));
#1475=CARTESIAN_POINT('',(-2.305,18.3,-2.5));
#1476=CARTESIAN_POINT('Origin',(-1.905,19.97058369187,-5.65));
#1477=CARTESIAN_POINT('',(-1.905,20.,-6.65));
#1478=CARTESIAN_POINT('Origin',(-1.905,20.,-5.65));
#1479=CARTESIAN_POINT('',(-1.905,19.97058369187,-6.65));
#1480=CARTESIAN_POINT('Origin',(-1.905,19.4,-2.5));
#1481=CARTESIAN_POINT('Origin',(-1.905,20.,-5.65));
#1482=UNCERTAINTY_MEASURE_WITH_UNIT(LENGTH_MEASURE(0.01),#1486,
'DISTANCE_ACCURACY_VALUE',
'Maximum model space distance between geometric entities at asserted c
onnectivities');
#1483=UNCERTAINTY_MEASURE_WITH_UNIT(LENGTH_MEASURE(0.01),#1486,
'DISTANCE_ACCURACY_VALUE',
'Maximum model space distance between geometric entities at asserted c
onnectivities');
#1484=(
GEOMETRIC_REPRESENTATION_CONTEXT(3)
GLOBAL_UNCERTAINTY_ASSIGNED_CONTEXT((#1482))
GLOBAL_UNIT_ASSIGNED_CONTEXT((#1486,#1488,#1489))
REPRESENTATION_CONTEXT('','3D')
);
#1485=(
GEOMETRIC_REPRESENTATION_CONTEXT(3)
GLOBAL_UNCERTAINTY_ASSIGNED_CONTEXT((#1483))
GLOBAL_UNIT_ASSIGNED_CONTEXT((#1486,#1488,#1489))
REPRESENTATION_CONTEXT('','3D')
);
#1486=(
LENGTH_UNIT()
NAMED_UNIT(*)
SI_UNIT(.MILLI.,.METRE.)
);
#1487=(
LENGTH_UNIT()
NAMED_UNIT(*)
SI_UNIT(.CENTI.,.METRE.)
);
#1488=(
NAMED_UNIT(*)
PLANE_ANGLE_UNIT()
SI_UNIT($,.RADIAN.)
);
#1489=(
NAMED_UNIT(*)
SI_UNIT($,.STERADIAN.)
SOLID_ANGLE_UNIT()
);
#1490=SHAPE_DEFINITION_REPRESENTATION(#1491,#1492);
#1491=PRODUCT_DEFINITION_SHAPE('',$,#1494);
#1492=SHAPE_REPRESENTATION('',(#914),#1484);
#1493=PRODUCT_DEFINITION_CONTEXT('part definition',#1498,'design');
#1494=PRODUCT_DEFINITION('3P','15EDGKD-3.81-03P',#1495,#1493);
#1495=PRODUCT_DEFINITION_FORMATION('1LAST_VERSION',$,#1500);
#1496=PRODUCT_RELATED_PRODUCT_CATEGORY('15EDGKD-3.81-03P',
'15EDGKD-3.81-03P',(#1500));
#1497=APPLICATION_PROTOCOL_DEFINITION('international standard',
'automotive_design',2009,#1498);
#1498=APPLICATION_CONTEXT(
'Core Data for Automotive Mechanical Design Process');
#1499=PRODUCT_CONTEXT('part definition',#1498,'mechanical');
#1500=PRODUCT('3P','15EDGKD-3.81-03P',$,(#1499));
#1501=PRESENTATION_STYLE_ASSIGNMENT((#1503));
#1502=PRESENTATION_STYLE_ASSIGNMENT((#1504));
#1503=SURFACE_STYLE_USAGE(.BOTH.,#1509);
#1504=SURFACE_STYLE_USAGE(.BOTH.,#1510);
#1505=SURFACE_STYLE_RENDERING_WITH_PROPERTIES($,#1517,(#1507));
#1506=SURFACE_STYLE_RENDERING_WITH_PROPERTIES($,#1518,(#1508));
#1507=SURFACE_STYLE_TRANSPARENT(0.);
#1508=SURFACE_STYLE_TRANSPARENT(0.);
#1509=SURFACE_SIDE_STYLE('',(#1511,#1505));
#1510=SURFACE_SIDE_STYLE('',(#1512,#1506));
#1511=SURFACE_STYLE_FILL_AREA(#1513);
#1512=SURFACE_STYLE_FILL_AREA(#1514);
#1513=FILL_AREA_STYLE('',(#1515));
#1514=FILL_AREA_STYLE('',(#1516));
#1515=FILL_AREA_STYLE_COLOUR('',#1517);
#1516=FILL_AREA_STYLE_COLOUR('',#1518);
#1517=COLOUR_RGB('',0.749019607843137,0.749019607843137,0.749019607843137);
#1518=COLOUR_RGB('',0.388235294117647,0.592156862745098,0.0823529411764706);
ENDSEC;
END-ISO-10303-21;
