ISO-10303-21;
HEADER;
/* Generated by software containing ST-Developer
 * from STEP Tools, Inc. (www.steptools.com) 
 */

FILE_DESCRIPTION(
/* description */ (''),
/* implementation_level */ '2;1');

FILE_NAME(
/* name */ '15EDGVC-3.81-END.stp',
/* time_stamp */ '2026-08-09T02:33:03+03:00',
/* author */ ('murashkindv'),
/* organization */ (''),
/* preprocessor_version */ 'ST-DEVELOPER v19.2',
/* originating_system */ 'Autodesk Inventor 2024',
/* authorisation */ '');

FILE_SCHEMA (('AUTOMOTIVE_DESIGN { 1 0 10303 214 3 1 1 }'));
ENDSEC;

DATA;
#10=MECHANICAL_DESIGN_GEOMETRIC_PRESENTATION_REPRESENTATION('',(#1029,#1030,
#1031,#1032,#1033,#1034,#1035,#1036,#1037,#1038,#1039,#1040,#1041,#1042,
#1043,#1044,#1045,#1046,#1047,#1048,#1049,#1050,#1051,#1052,#1053,#1054,
#1055,#1056,#1057,#1058,#1059,#1060,#1061,#1062,#1063,#1064,#1065,#1066,
#1067,#1068,#1069,#1070,#1071,#1072,#1073,#1074,#1075,#1076,#1077,#1078,
#1079,#1080,#1081,#1082,#1083,#1084,#1085,#1086,#1087,#1088),#1833);
#11=SHAPE_REPRESENTATION_RELATIONSHIP('SRR','None',#1840,#12);
#12=ADVANCED_BREP_SHAPE_REPRESENTATION('',(#13),#1832);
#13=MANIFOLD_SOLID_BREP('End',#1148);
#14=B_SPLINE_CURVE_WITH_KNOTS('',3,(#1646,#1647,#1648,#1649,#1650,#1651,
#1652,#1653,#1654,#1655),.UNSPECIFIED.,.F.,.F.,(4,2,2,2,4),(0.163772697423955,
0.180809615017207,0.24107948667814,0.301349358304235,0.318343522723563),
 .UNSPECIFIED.);
#15=CONICAL_SURFACE('',#1191,1.49998414579,0.244980597274797);
#16=(
BOUNDED_CURVE()
B_SPLINE_CURVE(2,(#1641,#1642,#1643),.UNSPECIFIED.,.F.,.F.)
B_SPLINE_CURVE_WITH_KNOTS((3,3),(0.112023125107178,0.194060440788359),
 .UNSPECIFIED.)
CURVE()
GEOMETRIC_REPRESENTATION_ITEM()
RATIONAL_B_SPLINE_CURVE((1.00000086782773,1.00000098488936,1.00000080798956))
REPRESENTATION_ITEM('')
);
#17=(
BOUNDED_CURVE()
B_SPLINE_CURVE(2,(#1656,#1657,#1658),.UNSPECIFIED.,.F.,.F.)
B_SPLINE_CURVE_WITH_KNOTS((3,3),(0.11202414592514,0.194063506501907),
 .UNSPECIFIED.)
CURVE()
GEOMETRIC_REPRESENTATION_ITEM()
RATIONAL_B_SPLINE_CURVE((1.0000008669336,1.00000098387432,1.00000080714406))
REPRESENTATION_ITEM('')
);
#18=CYLINDRICAL_SURFACE('',#1178,0.50000000076);
#19=CYLINDRICAL_SURFACE('',#1182,0.19999999878);
#20=CYLINDRICAL_SURFACE('',#1215,1.6000000004);
#21=CYLINDRICAL_SURFACE('',#1225,0.94999999992);
#22=FACE_BOUND('',#87,.T.);
#23=FACE_BOUND('',#90,.T.);
#24=FACE_BOUND('',#123,.T.);
#25=FACE_BOUND('',#138,.T.);
#26=FACE_OUTER_BOUND('',#85,.T.);
#27=FACE_OUTER_BOUND('',#86,.T.);
#28=FACE_OUTER_BOUND('',#88,.T.);
#29=FACE_OUTER_BOUND('',#89,.T.);
#30=FACE_OUTER_BOUND('',#91,.T.);
#31=FACE_OUTER_BOUND('',#92,.T.);
#32=FACE_OUTER_BOUND('',#93,.T.);
#33=FACE_OUTER_BOUND('',#94,.T.);
#34=FACE_OUTER_BOUND('',#95,.T.);
#35=FACE_OUTER_BOUND('',#96,.T.);
#36=FACE_OUTER_BOUND('',#97,.T.);
#37=FACE_OUTER_BOUND('',#98,.T.);
#38=FACE_OUTER_BOUND('',#99,.T.);
#39=FACE_OUTER_BOUND('',#100,.T.);
#40=FACE_OUTER_BOUND('',#101,.T.);
#41=FACE_OUTER_BOUND('',#102,.T.);
#42=FACE_OUTER_BOUND('',#103,.T.);
#43=FACE_OUTER_BOUND('',#104,.T.);
#44=FACE_OUTER_BOUND('',#105,.T.);
#45=FACE_OUTER_BOUND('',#106,.T.);
#46=FACE_OUTER_BOUND('',#107,.T.);
#47=FACE_OUTER_BOUND('',#108,.T.);
#48=FACE_OUTER_BOUND('',#109,.T.);
#49=FACE_OUTER_BOUND('',#110,.T.);
#50=FACE_OUTER_BOUND('',#111,.T.);
#51=FACE_OUTER_BOUND('',#112,.T.);
#52=FACE_OUTER_BOUND('',#113,.T.);
#53=FACE_OUTER_BOUND('',#114,.T.);
#54=FACE_OUTER_BOUND('',#115,.T.);
#55=FACE_OUTER_BOUND('',#116,.T.);
#56=FACE_OUTER_BOUND('',#117,.T.);
#57=FACE_OUTER_BOUND('',#118,.T.);
#58=FACE_OUTER_BOUND('',#119,.T.);
#59=FACE_OUTER_BOUND('',#120,.T.);
#60=FACE_OUTER_BOUND('',#121,.T.);
#61=FACE_OUTER_BOUND('',#122,.T.);
#62=FACE_OUTER_BOUND('',#124,.T.);
#63=FACE_OUTER_BOUND('',#125,.T.);
#64=FACE_OUTER_BOUND('',#126,.T.);
#65=FACE_OUTER_BOUND('',#127,.T.);
#66=FACE_OUTER_BOUND('',#128,.T.);
#67=FACE_OUTER_BOUND('',#129,.T.);
#68=FACE_OUTER_BOUND('',#130,.T.);
#69=FACE_OUTER_BOUND('',#131,.T.);
#70=FACE_OUTER_BOUND('',#132,.T.);
#71=FACE_OUTER_BOUND('',#133,.T.);
#72=FACE_OUTER_BOUND('',#134,.T.);
#73=FACE_OUTER_BOUND('',#135,.T.);
#74=FACE_OUTER_BOUND('',#136,.T.);
#75=FACE_OUTER_BOUND('',#137,.T.);
#76=FACE_OUTER_BOUND('',#139,.T.);
#77=FACE_OUTER_BOUND('',#140,.T.);
#78=FACE_OUTER_BOUND('',#141,.T.);
#79=FACE_OUTER_BOUND('',#142,.T.);
#80=FACE_OUTER_BOUND('',#143,.T.);
#81=FACE_OUTER_BOUND('',#144,.T.);
#82=FACE_OUTER_BOUND('',#145,.T.);
#83=FACE_OUTER_BOUND('',#146,.T.);
#84=FACE_OUTER_BOUND('',#147,.T.);
#85=EDGE_LOOP('',(#677,#678,#679,#680,#681,#682,#683,#684,#685,#686));
#86=EDGE_LOOP('',(#687,#688,#689,#690));
#87=EDGE_LOOP('',(#691,#692,#693,#694,#695,#696,#697,#698,#699,#700,#701,
#702,#703,#704,#705,#706,#707,#708));
#88=EDGE_LOOP('',(#709,#710,#711,#712));
#89=EDGE_LOOP('',(#713,#714,#715,#716));
#90=EDGE_LOOP('',(#717,#718,#719,#720));
#91=EDGE_LOOP('',(#721,#722,#723,#724));
#92=EDGE_LOOP('',(#725,#726,#727,#728));
#93=EDGE_LOOP('',(#729,#730,#731,#732));
#94=EDGE_LOOP('',(#733,#734,#735,#736));
#95=EDGE_LOOP('',(#737,#738,#739,#740));
#96=EDGE_LOOP('',(#741,#742,#743,#744));
#97=EDGE_LOOP('',(#745,#746,#747,#748));
#98=EDGE_LOOP('',(#749,#750,#751,#752,#753,#754,#755,#756,#757,#758));
#99=EDGE_LOOP('',(#759,#760,#761,#762,#763));
#100=EDGE_LOOP('',(#764,#765,#766,#767,#768,#769,#770,#771,#772));
#101=EDGE_LOOP('',(#773,#774,#775,#776));
#102=EDGE_LOOP('',(#777,#778,#779,#780));
#103=EDGE_LOOP('',(#781,#782,#783,#784));
#104=EDGE_LOOP('',(#785,#786,#787,#788,#789));
#105=EDGE_LOOP('',(#790,#791,#792,#793));
#106=EDGE_LOOP('',(#794,#795,#796,#797));
#107=EDGE_LOOP('',(#798,#799,#800,#801));
#108=EDGE_LOOP('',(#802,#803,#804,#805));
#109=EDGE_LOOP('',(#806,#807,#808,#809,#810,#811,#812,#813));
#110=EDGE_LOOP('',(#814,#815,#816,#817));
#111=EDGE_LOOP('',(#818,#819,#820,#821));
#112=EDGE_LOOP('',(#822,#823,#824,#825));
#113=EDGE_LOOP('',(#826,#827,#828,#829));
#114=EDGE_LOOP('',(#830,#831,#832,#833,#834));
#115=EDGE_LOOP('',(#835,#836,#837,#838));
#116=EDGE_LOOP('',(#839,#840,#841,#842));
#117=EDGE_LOOP('',(#843,#844,#845,#846));
#118=EDGE_LOOP('',(#847,#848,#849,#850));
#119=EDGE_LOOP('',(#851,#852,#853,#854));
#120=EDGE_LOOP('',(#855,#856,#857,#858));
#121=EDGE_LOOP('',(#859,#860,#861,#862));
#122=EDGE_LOOP('',(#863,#864,#865,#866,#867,#868,#869,#870,#871,#872,#873,
#874,#875,#876,#877,#878,#879,#880));
#123=EDGE_LOOP('',(#881));
#124=EDGE_LOOP('',(#882,#883,#884,#885));
#125=EDGE_LOOP('',(#886,#887,#888,#889));
#126=EDGE_LOOP('',(#890,#891,#892,#893));
#127=EDGE_LOOP('',(#894,#895,#896,#897));
#128=EDGE_LOOP('',(#898,#899,#900,#901));
#129=EDGE_LOOP('',(#902,#903,#904,#905));
#130=EDGE_LOOP('',(#906,#907,#908,#909));
#131=EDGE_LOOP('',(#910,#911,#912,#913));
#132=EDGE_LOOP('',(#914,#915,#916,#917));
#133=EDGE_LOOP('',(#918,#919,#920,#921));
#134=EDGE_LOOP('',(#922,#923,#924,#925));
#135=EDGE_LOOP('',(#926,#927,#928,#929));
#136=EDGE_LOOP('',(#930,#931,#932,#933));
#137=EDGE_LOOP('',(#934));
#138=EDGE_LOOP('',(#935,#936,#937,#938));
#139=EDGE_LOOP('',(#939,#940,#941,#942));
#140=EDGE_LOOP('',(#943,#944,#945,#946));
#141=EDGE_LOOP('',(#947,#948,#949,#950));
#142=EDGE_LOOP('',(#951,#952,#953,#954));
#143=EDGE_LOOP('',(#955,#956,#957,#958));
#144=EDGE_LOOP('',(#959,#960,#961,#962));
#145=EDGE_LOOP('',(#963,#964,#965,#966));
#146=EDGE_LOOP('',(#967,#968,#969,#970));
#147=EDGE_LOOP('',(#971,#972,#973,#974));
#148=CIRCLE('',#1172,0.19999999878);
#149=CIRCLE('',#1173,0.50000000076);
#150=CIRCLE('',#1175,1.399982226518);
#151=CIRCLE('',#1179,0.50000000076);
#152=CIRCLE('',#1183,0.19999999878);
#153=CIRCLE('',#1212,1.6000000004);
#154=CIRCLE('',#1213,0.94999999992);
#155=CIRCLE('',#1226,0.94999999992);
#156=LINE('',#1516,#294);
#157=LINE('',#1518,#295);
#158=LINE('',#1520,#296);
#159=LINE('',#1522,#297);
#160=LINE('',#1526,#298);
#161=LINE('',#1528,#299);
#162=LINE('',#1532,#300);
#163=LINE('',#1533,#301);
#164=LINE('',#1536,#302);
#165=LINE('',#1538,#303);
#166=LINE('',#1539,#304);
#167=LINE('',#1542,#305);
#168=LINE('',#1544,#306);
#169=LINE('',#1546,#307);
#170=LINE('',#1550,#308);
#171=LINE('',#1552,#309);
#172=LINE('',#1554,#310);
#173=LINE('',#1556,#311);
#174=LINE('',#1558,#312);
#175=LINE('',#1560,#313);
#176=LINE('',#1562,#314);
#177=LINE('',#1564,#315);
#178=LINE('',#1566,#316);
#179=LINE('',#1568,#317);
#180=LINE('',#1570,#318);
#181=LINE('',#1572,#319);
#182=LINE('',#1574,#320);
#183=LINE('',#1575,#321);
#184=LINE('',#1578,#322);
#185=LINE('',#1579,#323);
#186=LINE('',#1582,#324);
#187=LINE('',#1583,#325);
#188=LINE('',#1586,#326);
#189=LINE('',#1588,#327);
#190=LINE('',#1590,#328);
#191=LINE('',#1591,#329);
#192=LINE('',#1594,#330);
#193=LINE('',#1598,#331);
#194=LINE('',#1599,#332);
#195=LINE('',#1602,#333);
#196=LINE('',#1603,#334);
#197=LINE('',#1606,#335);
#198=LINE('',#1610,#336);
#199=LINE('',#1611,#337);
#200=LINE('',#1614,#338);
#201=LINE('',#1615,#339);
#202=LINE('',#1617,#340);
#203=LINE('',#1622,#341);
#204=LINE('',#1624,#342);
#205=LINE('',#1625,#343);
#206=LINE('',#1626,#344);
#207=LINE('',#1630,#345);
#208=LINE('',#1632,#346);
#209=LINE('',#1633,#347);
#210=LINE('',#1635,#348);
#211=LINE('',#1636,#349);
#212=LINE('',#1637,#350);
#213=LINE('',#1640,#351);
#214=LINE('',#1661,#352);
#215=LINE('',#1662,#353);
#216=LINE('',#1666,#354);
#217=LINE('',#1667,#355);
#218=LINE('',#1668,#356);
#219=LINE('',#1671,#357);
#220=LINE('',#1672,#358);
#221=LINE('',#1675,#359);
#222=LINE('',#1676,#360);
#223=LINE('',#1679,#361);
#224=LINE('',#1680,#362);
#225=LINE('',#1683,#363);
#226=LINE('',#1684,#364);
#227=LINE('',#1688,#365);
#228=LINE('',#1689,#366);
#229=LINE('',#1691,#367);
#230=LINE('',#1693,#368);
#231=LINE('',#1695,#369);
#232=LINE('',#1696,#370);
#233=LINE('',#1699,#371);
#234=LINE('',#1700,#372);
#235=LINE('',#1703,#373);
#236=LINE('',#1704,#374);
#237=LINE('',#1707,#375);
#238=LINE('',#1708,#376);
#239=LINE('',#1710,#377);
#240=LINE('',#1713,#378);
#241=LINE('',#1715,#379);
#242=LINE('',#1716,#380);
#243=LINE('',#1718,#381);
#244=LINE('',#1722,#382);
#245=LINE('',#1723,#383);
#246=LINE('',#1724,#384);
#247=LINE('',#1727,#385);
#248=LINE('',#1728,#386);
#249=LINE('',#1731,#387);
#250=LINE('',#1732,#388);
#251=LINE('',#1734,#389);
#252=LINE('',#1736,#390);
#253=LINE('',#1740,#391);
#254=LINE('',#1743,#392);
#255=LINE('',#1745,#393);
#256=LINE('',#1747,#394);
#257=LINE('',#1748,#395);
#258=LINE('',#1752,#396);
#259=LINE('',#1754,#397);
#260=LINE('',#1758,#398);
#261=LINE('',#1759,#399);
#262=LINE('',#1762,#400);
#263=LINE('',#1763,#401);
#264=LINE('',#1765,#402);
#265=LINE('',#1768,#403);
#266=LINE('',#1770,#404);
#267=LINE('',#1771,#405);
#268=LINE('',#1774,#406);
#269=LINE('',#1775,#407);
#270=LINE('',#1778,#408);
#271=LINE('',#1779,#409);
#272=LINE('',#1781,#410);
#273=LINE('',#1786,#411);
#274=LINE('',#1791,#412);
#275=LINE('',#1793,#413);
#276=LINE('',#1795,#414);
#277=LINE('',#1796,#415);
#278=LINE('',#1800,#416);
#279=LINE('',#1801,#417);
#280=LINE('',#1802,#418);
#281=LINE('',#1805,#419);
#282=LINE('',#1806,#420);
#283=LINE('',#1809,#421);
#284=LINE('',#1810,#422);
#285=LINE('',#1812,#423);
#286=LINE('',#1815,#424);
#287=LINE('',#1817,#425);
#288=LINE('',#1818,#426);
#289=LINE('',#1821,#427);
#290=LINE('',#1822,#428);
#291=LINE('',#1825,#429);
#292=LINE('',#1826,#430);
#293=LINE('',#1828,#431);
#294=VECTOR('',#1242,10.);
#295=VECTOR('',#1243,10.);
#296=VECTOR('',#1244,10.);
#297=VECTOR('',#1245,10.);
#298=VECTOR('',#1248,10.);
#299=VECTOR('',#1249,10.);
#300=VECTOR('',#1252,10.);
#301=VECTOR('',#1253,10.);
#302=VECTOR('',#1256,12.21999999988);
#303=VECTOR('',#1257,6.999999998093);
#304=VECTOR('',#1258,12.21999999988);
#305=VECTOR('',#1259,0.4249999992341);
#306=VECTOR('',#1260,2.400000087191);
#307=VECTOR('',#1261,0.853888182854066);
#308=VECTOR('',#1264,0.853537805763716);
#309=VECTOR('',#1265,4.750000150169);
#310=VECTOR('',#1266,0.824999989687);
#311=VECTOR('',#1267,0.44999999916);
#312=VECTOR('',#1268,0.2999999994401);
#313=VECTOR('',#1269,0.965660396969777);
#314=VECTOR('',#1270,2.8000000007);
#315=VECTOR('',#1271,0.965660396049317);
#316=VECTOR('',#1272,0.30000000198);
#317=VECTOR('',#1273,0.44999999916);
#318=VECTOR('',#1274,0.8250000021059);
#319=VECTOR('',#1275,0.549776766839);
#320=VECTOR('',#1276,0.4249999992343);
#321=VECTOR('',#1277,1.80000000172);
#322=VECTOR('',#1280,12.21999999988);
#323=VECTOR('',#1281,9.19999999976);
#324=VECTOR('',#1284,12.21999999988);
#325=VECTOR('',#1285,6.500000001741);
#326=VECTOR('',#1286,0.8);
#327=VECTOR('',#1287,0.8);
#328=VECTOR('',#1288,0.8);
#329=VECTOR('',#1289,0.8);
#330=VECTOR('',#1292,12.21999999988);
#331=VECTOR('',#1297,12.21999999988);
#332=VECTOR('',#1298,5.300000018514);
#333=VECTOR('',#1301,12.21999999988);
#334=VECTOR('',#1302,0.03999999896864);
#335=VECTOR('',#1305,12.21999999988);
#336=VECTOR('',#1310,12.21999999988);
#337=VECTOR('',#1311,0.20000000132);
#338=VECTOR('',#1314,12.21999999988);
#339=VECTOR('',#1315,0.1899999980004);
#340=VECTOR('',#1318,3.00041663724511);
#341=VECTOR('',#1323,0.4999999999999);
#342=VECTOR('',#1324,0.2539629876997);
#343=VECTOR('',#1325,1.60006092541705);
#344=VECTOR('',#1326,1.11544834035504);
#345=VECTOR('',#1329,4.549776715124);
#346=VECTOR('',#1330,6.00022581762771);
#347=VECTOR('',#1331,0.824653367761127);
#348=VECTOR('',#1332,1.80000000172);
#349=VECTOR('',#1333,1.60006092541705);
#350=VECTOR('',#1334,6.8002589321832);
#351=VECTOR('',#1337,0.793422256332195);
#352=VECTOR('',#1342,0.793022020347501);
#353=VECTOR('',#1343,0.824655630670598);
#354=VECTOR('',#1346,4.549999854283);
#355=VECTOR('',#1347,6.8002589321832);
#356=VECTOR('',#1348,6.00022357288794);
#357=VECTOR('',#1351,0.7656572887171);
#358=VECTOR('',#1352,6.79999999916);
#359=VECTOR('',#1355,0.44999999916);
#360=VECTOR('',#1356,6.79999999916);
#361=VECTOR('',#1359,0.2999999994401);
#362=VECTOR('',#1360,6.79999999916);
#363=VECTOR('',#1363,0.965660396969777);
#364=VECTOR('',#1364,6.79999999916);
#365=VECTOR('',#1367,0.9999999989801);
#366=VECTOR('',#1368,6.79999999916);
#367=VECTOR('',#1369,1.00000000152);
#368=VECTOR('',#1370,1.2000000003);
#369=VECTOR('',#1371,0.8000000002);
#370=VECTOR('',#1372,1.2000000003);
#371=VECTOR('',#1375,0.965660396049317);
#372=VECTOR('',#1376,6.79999999916);
#373=VECTOR('',#1379,0.30000000198);
#374=VECTOR('',#1380,6.79999999916);
#375=VECTOR('',#1383,0.44999999916);
#376=VECTOR('',#1384,6.79999999916);
#377=VECTOR('',#1387,0.7656573011359);
#378=VECTOR('',#1390,0.2539629876999);
#379=VECTOR('',#1391,0.4999999999999);
#380=VECTOR('',#1392,1.11544834035504);
#381=VECTOR('',#1395,1.80000000172);
#382=VECTOR('',#1398,0.8);
#383=VECTOR('',#1399,2.800000000241);
#384=VECTOR('',#1400,2.800000000241);
#385=VECTOR('',#1403,0.8);
#386=VECTOR('',#1404,2.800000000241);
#387=VECTOR('',#1407,0.8);
#388=VECTOR('',#1408,2.800000000241);
#389=VECTOR('',#1411,0.8);
#390=VECTOR('',#1414,1.80000000172);
#391=VECTOR('',#1419,0.740658863694171);
#392=VECTOR('',#1422,0.741060982848404);
#393=VECTOR('',#1423,0.19999999878);
#394=VECTOR('',#1424,0.8000000002);
#395=VECTOR('',#1425,0.19999999878);
#396=VECTOR('',#1430,5.99999389088913);
#397=VECTOR('',#1433,5.9999927401938);
#398=VECTOR('',#1438,1.2000000003);
#399=VECTOR('',#1439,0.19999999878);
#400=VECTOR('',#1442,0.8000000002);
#401=VECTOR('',#1443,0.19999999878);
#402=VECTOR('',#1446,1.2000000003);
#403=VECTOR('',#1449,0.66332495807012);
#404=VECTOR('',#1450,0.3999999999997);
#405=VECTOR('',#1451,0.66332495807012);
#406=VECTOR('',#1454,0.3999999999997);
#407=VECTOR('',#1455,0.66332495807012);
#408=VECTOR('',#1458,0.3999999999998);
#409=VECTOR('',#1459,0.66332495807012);
#410=VECTOR('',#1462,0.3999999999998);
#411=VECTOR('',#1469,0.94999999992);
#412=VECTOR('',#1474,0.8);
#413=VECTOR('',#1475,0.8);
#414=VECTOR('',#1476,0.8);
#415=VECTOR('',#1477,0.8);
#416=VECTOR('',#1480,0.7999999999995);
#417=VECTOR('',#1481,3.499999999523);
#418=VECTOR('',#1482,3.499999999523);
#419=VECTOR('',#1485,0.8);
#420=VECTOR('',#1486,3.49999999952);
#421=VECTOR('',#1489,0.8000000000005);
#422=VECTOR('',#1490,3.49999999952);
#423=VECTOR('',#1493,0.8);
#424=VECTOR('',#1496,0.66332495806772);
#425=VECTOR('',#1497,0.3999999999996);
#426=VECTOR('',#1498,0.66332495806772);
#427=VECTOR('',#1501,0.3999999999996);
#428=VECTOR('',#1502,0.6633249580711);
#429=VECTOR('',#1505,0.3999999999996);
#430=VECTOR('',#1506,0.66332495807112);
#431=VECTOR('',#1509,0.3999999999995);
#432=VERTEX_POINT('',#1514);
#433=VERTEX_POINT('',#1515);
#434=VERTEX_POINT('',#1517);
#435=VERTEX_POINT('',#1519);
#436=VERTEX_POINT('',#1521);
#437=VERTEX_POINT('',#1523);
#438=VERTEX_POINT('',#1525);
#439=VERTEX_POINT('',#1527);
#440=VERTEX_POINT('',#1529);
#441=VERTEX_POINT('',#1531);
#442=VERTEX_POINT('',#1535);
#443=VERTEX_POINT('',#1537);
#444=VERTEX_POINT('',#1540);
#445=VERTEX_POINT('',#1541);
#446=VERTEX_POINT('',#1543);
#447=VERTEX_POINT('',#1545);
#448=VERTEX_POINT('',#1547);
#449=VERTEX_POINT('',#1549);
#450=VERTEX_POINT('',#1551);
#451=VERTEX_POINT('',#1553);
#452=VERTEX_POINT('',#1555);
#453=VERTEX_POINT('',#1557);
#454=VERTEX_POINT('',#1559);
#455=VERTEX_POINT('',#1561);
#456=VERTEX_POINT('',#1563);
#457=VERTEX_POINT('',#1565);
#458=VERTEX_POINT('',#1567);
#459=VERTEX_POINT('',#1569);
#460=VERTEX_POINT('',#1571);
#461=VERTEX_POINT('',#1573);
#462=VERTEX_POINT('',#1577);
#463=VERTEX_POINT('',#1581);
#464=VERTEX_POINT('',#1584);
#465=VERTEX_POINT('',#1585);
#466=VERTEX_POINT('',#1587);
#467=VERTEX_POINT('',#1589);
#468=VERTEX_POINT('',#1593);
#469=VERTEX_POINT('',#1597);
#470=VERTEX_POINT('',#1601);
#471=VERTEX_POINT('',#1605);
#472=VERTEX_POINT('',#1609);
#473=VERTEX_POINT('',#1613);
#474=VERTEX_POINT('',#1620);
#475=VERTEX_POINT('',#1621);
#476=VERTEX_POINT('',#1623);
#477=VERTEX_POINT('',#1628);
#478=VERTEX_POINT('',#1629);
#479=VERTEX_POINT('',#1631);
#480=VERTEX_POINT('',#1634);
#481=VERTEX_POINT('',#1639);
#482=VERTEX_POINT('',#1645);
#483=VERTEX_POINT('',#1660);
#484=VERTEX_POINT('',#1664);
#485=VERTEX_POINT('',#1665);
#486=VERTEX_POINT('',#1670);
#487=VERTEX_POINT('',#1674);
#488=VERTEX_POINT('',#1678);
#489=VERTEX_POINT('',#1682);
#490=VERTEX_POINT('',#1686);
#491=VERTEX_POINT('',#1687);
#492=VERTEX_POINT('',#1690);
#493=VERTEX_POINT('',#1692);
#494=VERTEX_POINT('',#1694);
#495=VERTEX_POINT('',#1698);
#496=VERTEX_POINT('',#1702);
#497=VERTEX_POINT('',#1706);
#498=VERTEX_POINT('',#1712);
#499=VERTEX_POINT('',#1714);
#500=VERTEX_POINT('',#1720);
#501=VERTEX_POINT('',#1721);
#502=VERTEX_POINT('',#1726);
#503=VERTEX_POINT('',#1730);
#504=VERTEX_POINT('',#1739);
#505=VERTEX_POINT('',#1741);
#506=VERTEX_POINT('',#1744);
#507=VERTEX_POINT('',#1746);
#508=VERTEX_POINT('',#1749);
#509=VERTEX_POINT('',#1757);
#510=VERTEX_POINT('',#1761);
#511=VERTEX_POINT('',#1767);
#512=VERTEX_POINT('',#1769);
#513=VERTEX_POINT('',#1773);
#514=VERTEX_POINT('',#1777);
#515=VERTEX_POINT('',#1784);
#516=VERTEX_POINT('',#1789);
#517=VERTEX_POINT('',#1790);
#518=VERTEX_POINT('',#1792);
#519=VERTEX_POINT('',#1794);
#520=VERTEX_POINT('',#1798);
#521=VERTEX_POINT('',#1799);
#522=VERTEX_POINT('',#1804);
#523=VERTEX_POINT('',#1808);
#524=VERTEX_POINT('',#1814);
#525=VERTEX_POINT('',#1816);
#526=VERTEX_POINT('',#1820);
#527=VERTEX_POINT('',#1824);
#528=EDGE_CURVE('',#432,#433,#156,.T.);
#529=EDGE_CURVE('',#434,#432,#157,.T.);
#530=EDGE_CURVE('',#435,#434,#158,.T.);
#531=EDGE_CURVE('',#436,#435,#159,.T.);
#532=EDGE_CURVE('',#437,#436,#148,.T.);
#533=EDGE_CURVE('',#438,#437,#160,.T.);
#534=EDGE_CURVE('',#439,#438,#161,.T.);
#535=EDGE_CURVE('',#440,#439,#149,.T.);
#536=EDGE_CURVE('',#441,#440,#162,.T.);
#537=EDGE_CURVE('',#433,#441,#163,.T.);
#538=EDGE_CURVE('',#442,#433,#164,.T.);
#539=EDGE_CURVE('',#443,#442,#165,.T.);
#540=EDGE_CURVE('',#443,#432,#166,.T.);
#541=EDGE_CURVE('',#444,#445,#167,.T.);
#542=EDGE_CURVE('',#446,#444,#168,.T.);
#543=EDGE_CURVE('',#447,#446,#169,.T.);
#544=EDGE_CURVE('',#448,#447,#150,.T.);
#545=EDGE_CURVE('',#449,#448,#170,.T.);
#546=EDGE_CURVE('',#450,#449,#171,.T.);
#547=EDGE_CURVE('',#450,#451,#172,.T.);
#548=EDGE_CURVE('',#451,#452,#173,.T.);
#549=EDGE_CURVE('',#452,#453,#174,.T.);
#550=EDGE_CURVE('',#454,#453,#175,.T.);
#551=EDGE_CURVE('',#454,#455,#176,.T.);
#552=EDGE_CURVE('',#456,#455,#177,.T.);
#553=EDGE_CURVE('',#456,#457,#178,.T.);
#554=EDGE_CURVE('',#457,#458,#179,.T.);
#555=EDGE_CURVE('',#458,#459,#180,.T.);
#556=EDGE_CURVE('',#460,#459,#181,.T.);
#557=EDGE_CURVE('',#461,#460,#182,.T.);
#558=EDGE_CURVE('',#461,#445,#183,.T.);
#559=EDGE_CURVE('',#462,#441,#184,.T.);
#560=EDGE_CURVE('',#442,#462,#185,.T.);
#561=EDGE_CURVE('',#440,#463,#186,.T.);
#562=EDGE_CURVE('',#462,#463,#187,.T.);
#563=EDGE_CURVE('',#464,#465,#188,.T.);
#564=EDGE_CURVE('',#465,#466,#189,.T.);
#565=EDGE_CURVE('',#466,#467,#190,.T.);
#566=EDGE_CURVE('',#467,#464,#191,.T.);
#567=EDGE_CURVE('',#468,#439,#192,.T.);
#568=EDGE_CURVE('',#468,#463,#151,.T.);
#569=EDGE_CURVE('',#469,#438,#193,.T.);
#570=EDGE_CURVE('',#468,#469,#194,.T.);
#571=EDGE_CURVE('',#437,#470,#195,.T.);
#572=EDGE_CURVE('',#470,#469,#196,.T.);
#573=EDGE_CURVE('',#471,#436,#197,.T.);
#574=EDGE_CURVE('',#471,#470,#152,.T.);
#575=EDGE_CURVE('',#472,#435,#198,.T.);
#576=EDGE_CURVE('',#472,#471,#199,.T.);
#577=EDGE_CURVE('',#473,#434,#200,.T.);
#578=EDGE_CURVE('',#473,#472,#201,.T.);
#579=EDGE_CURVE('',#443,#473,#202,.T.);
#580=EDGE_CURVE('',#474,#475,#203,.T.);
#581=EDGE_CURVE('',#476,#475,#204,.T.);
#582=EDGE_CURVE('',#444,#476,#205,.T.);
#583=EDGE_CURVE('',#474,#445,#206,.T.);
#584=EDGE_CURVE('',#477,#478,#207,.T.);
#585=EDGE_CURVE('',#477,#479,#208,.T.);
#586=EDGE_CURVE('',#446,#479,#209,.T.);
#587=EDGE_CURVE('',#480,#476,#210,.T.);
#588=EDGE_CURVE('',#480,#460,#211,.T.);
#589=EDGE_CURVE('',#459,#478,#212,.T.);
#590=EDGE_CURVE('',#481,#479,#213,.T.);
#591=EDGE_CURVE('',#447,#481,#16,.T.);
#592=EDGE_CURVE('',#482,#481,#14,.T.);
#593=EDGE_CURVE('',#448,#482,#17,.T.);
#594=EDGE_CURVE('',#483,#482,#214,.T.);
#595=EDGE_CURVE('',#483,#449,#215,.T.);
#596=EDGE_CURVE('',#484,#485,#216,.T.);
#597=EDGE_CURVE('',#484,#450,#217,.T.);
#598=EDGE_CURVE('',#483,#485,#218,.T.);
#599=EDGE_CURVE('',#484,#486,#219,.T.);
#600=EDGE_CURVE('',#486,#451,#220,.T.);
#601=EDGE_CURVE('',#486,#487,#221,.T.);
#602=EDGE_CURVE('',#487,#452,#222,.T.);
#603=EDGE_CURVE('',#487,#488,#223,.T.);
#604=EDGE_CURVE('',#488,#453,#224,.T.);
#605=EDGE_CURVE('',#488,#489,#225,.T.);
#606=EDGE_CURVE('',#489,#454,#226,.T.);
#607=EDGE_CURVE('',#490,#491,#227,.T.);
#608=EDGE_CURVE('',#491,#455,#228,.T.);
#609=EDGE_CURVE('',#489,#492,#229,.T.);
#610=EDGE_CURVE('',#493,#492,#230,.T.);
#611=EDGE_CURVE('',#493,#494,#231,.T.);
#612=EDGE_CURVE('',#494,#490,#232,.T.);
#613=EDGE_CURVE('',#491,#495,#233,.T.);
#614=EDGE_CURVE('',#495,#456,#234,.T.);
#615=EDGE_CURVE('',#495,#496,#235,.T.);
#616=EDGE_CURVE('',#496,#457,#236,.T.);
#617=EDGE_CURVE('',#496,#497,#237,.T.);
#618=EDGE_CURVE('',#497,#458,#238,.T.);
#619=EDGE_CURVE('',#497,#478,#239,.T.);
#620=EDGE_CURVE('',#498,#480,#240,.T.);
#621=EDGE_CURVE('',#499,#498,#241,.T.);
#622=EDGE_CURVE('',#461,#499,#242,.T.);
#623=EDGE_CURVE('',#499,#474,#243,.T.);
#624=EDGE_CURVE('',#500,#501,#244,.T.);
#625=EDGE_CURVE('',#465,#500,#245,.T.);
#626=EDGE_CURVE('',#464,#501,#246,.T.);
#627=EDGE_CURVE('',#502,#500,#247,.T.);
#628=EDGE_CURVE('',#466,#502,#248,.T.);
#629=EDGE_CURVE('',#503,#502,#249,.T.);
#630=EDGE_CURVE('',#467,#503,#250,.T.);
#631=EDGE_CURVE('',#501,#503,#251,.T.);
#632=EDGE_CURVE('',#498,#475,#252,.T.);
#633=EDGE_CURVE('',#485,#504,#253,.T.);
#634=EDGE_CURVE('',#505,#504,#153,.T.);
#635=EDGE_CURVE('',#505,#477,#254,.T.);
#636=EDGE_CURVE('',#490,#506,#255,.T.);
#637=EDGE_CURVE('',#506,#507,#256,.T.);
#638=EDGE_CURVE('',#507,#492,#257,.T.);
#639=EDGE_CURVE('',#508,#508,#154,.T.);
#640=EDGE_CURVE('',#505,#481,#258,.T.);
#641=EDGE_CURVE('',#482,#504,#259,.T.);
#642=EDGE_CURVE('',#509,#507,#260,.T.);
#643=EDGE_CURVE('',#509,#493,#261,.T.);
#644=EDGE_CURVE('',#510,#509,#262,.T.);
#645=EDGE_CURVE('',#494,#510,#263,.T.);
#646=EDGE_CURVE('',#510,#506,#264,.T.);
#647=EDGE_CURVE('',#511,#501,#265,.T.);
#648=EDGE_CURVE('',#512,#511,#266,.T.);
#649=EDGE_CURVE('',#500,#512,#267,.T.);
#650=EDGE_CURVE('',#513,#512,#268,.T.);
#651=EDGE_CURVE('',#513,#502,#269,.T.);
#652=EDGE_CURVE('',#514,#513,#270,.T.);
#653=EDGE_CURVE('',#503,#514,#271,.T.);
#654=EDGE_CURVE('',#514,#511,#272,.T.);
#655=EDGE_CURVE('',#515,#515,#155,.T.);
#656=EDGE_CURVE('',#515,#508,#273,.T.);
#657=EDGE_CURVE('',#516,#517,#274,.T.);
#658=EDGE_CURVE('',#517,#518,#275,.T.);
#659=EDGE_CURVE('',#518,#519,#276,.T.);
#660=EDGE_CURVE('',#519,#516,#277,.T.);
#661=EDGE_CURVE('',#520,#521,#278,.T.);
#662=EDGE_CURVE('',#517,#521,#279,.T.);
#663=EDGE_CURVE('',#516,#520,#280,.T.);
#664=EDGE_CURVE('',#521,#522,#281,.T.);
#665=EDGE_CURVE('',#518,#522,#282,.T.);
#666=EDGE_CURVE('',#522,#523,#283,.T.);
#667=EDGE_CURVE('',#519,#523,#284,.T.);
#668=EDGE_CURVE('',#523,#520,#285,.T.);
#669=EDGE_CURVE('',#524,#520,#286,.T.);
#670=EDGE_CURVE('',#525,#524,#287,.T.);
#671=EDGE_CURVE('',#521,#525,#288,.T.);
#672=EDGE_CURVE('',#526,#525,#289,.T.);
#673=EDGE_CURVE('',#522,#526,#290,.T.);
#674=EDGE_CURVE('',#527,#526,#291,.T.);
#675=EDGE_CURVE('',#523,#527,#292,.T.);
#676=EDGE_CURVE('',#524,#527,#293,.T.);
#677=ORIENTED_EDGE('',*,*,#528,.F.);
#678=ORIENTED_EDGE('',*,*,#529,.F.);
#679=ORIENTED_EDGE('',*,*,#530,.F.);
#680=ORIENTED_EDGE('',*,*,#531,.F.);
#681=ORIENTED_EDGE('',*,*,#532,.F.);
#682=ORIENTED_EDGE('',*,*,#533,.F.);
#683=ORIENTED_EDGE('',*,*,#534,.F.);
#684=ORIENTED_EDGE('',*,*,#535,.F.);
#685=ORIENTED_EDGE('',*,*,#536,.F.);
#686=ORIENTED_EDGE('',*,*,#537,.F.);
#687=ORIENTED_EDGE('',*,*,#528,.T.);
#688=ORIENTED_EDGE('',*,*,#538,.F.);
#689=ORIENTED_EDGE('',*,*,#539,.F.);
#690=ORIENTED_EDGE('',*,*,#540,.T.);
#691=ORIENTED_EDGE('',*,*,#541,.F.);
#692=ORIENTED_EDGE('',*,*,#542,.F.);
#693=ORIENTED_EDGE('',*,*,#543,.F.);
#694=ORIENTED_EDGE('',*,*,#544,.F.);
#695=ORIENTED_EDGE('',*,*,#545,.F.);
#696=ORIENTED_EDGE('',*,*,#546,.F.);
#697=ORIENTED_EDGE('',*,*,#547,.T.);
#698=ORIENTED_EDGE('',*,*,#548,.T.);
#699=ORIENTED_EDGE('',*,*,#549,.T.);
#700=ORIENTED_EDGE('',*,*,#550,.F.);
#701=ORIENTED_EDGE('',*,*,#551,.T.);
#702=ORIENTED_EDGE('',*,*,#552,.F.);
#703=ORIENTED_EDGE('',*,*,#553,.T.);
#704=ORIENTED_EDGE('',*,*,#554,.T.);
#705=ORIENTED_EDGE('',*,*,#555,.T.);
#706=ORIENTED_EDGE('',*,*,#556,.F.);
#707=ORIENTED_EDGE('',*,*,#557,.F.);
#708=ORIENTED_EDGE('',*,*,#558,.T.);
#709=ORIENTED_EDGE('',*,*,#537,.T.);
#710=ORIENTED_EDGE('',*,*,#559,.F.);
#711=ORIENTED_EDGE('',*,*,#560,.F.);
#712=ORIENTED_EDGE('',*,*,#538,.T.);
#713=ORIENTED_EDGE('',*,*,#536,.T.);
#714=ORIENTED_EDGE('',*,*,#561,.T.);
#715=ORIENTED_EDGE('',*,*,#562,.F.);
#716=ORIENTED_EDGE('',*,*,#559,.T.);
#717=ORIENTED_EDGE('',*,*,#563,.T.);
#718=ORIENTED_EDGE('',*,*,#564,.T.);
#719=ORIENTED_EDGE('',*,*,#565,.T.);
#720=ORIENTED_EDGE('',*,*,#566,.T.);
#721=ORIENTED_EDGE('',*,*,#535,.T.);
#722=ORIENTED_EDGE('',*,*,#567,.F.);
#723=ORIENTED_EDGE('',*,*,#568,.T.);
#724=ORIENTED_EDGE('',*,*,#561,.F.);
#725=ORIENTED_EDGE('',*,*,#534,.T.);
#726=ORIENTED_EDGE('',*,*,#569,.F.);
#727=ORIENTED_EDGE('',*,*,#570,.F.);
#728=ORIENTED_EDGE('',*,*,#567,.T.);
#729=ORIENTED_EDGE('',*,*,#533,.T.);
#730=ORIENTED_EDGE('',*,*,#571,.T.);
#731=ORIENTED_EDGE('',*,*,#572,.T.);
#732=ORIENTED_EDGE('',*,*,#569,.T.);
#733=ORIENTED_EDGE('',*,*,#532,.T.);
#734=ORIENTED_EDGE('',*,*,#573,.F.);
#735=ORIENTED_EDGE('',*,*,#574,.T.);
#736=ORIENTED_EDGE('',*,*,#571,.F.);
#737=ORIENTED_EDGE('',*,*,#531,.T.);
#738=ORIENTED_EDGE('',*,*,#575,.F.);
#739=ORIENTED_EDGE('',*,*,#576,.T.);
#740=ORIENTED_EDGE('',*,*,#573,.T.);
#741=ORIENTED_EDGE('',*,*,#530,.T.);
#742=ORIENTED_EDGE('',*,*,#577,.F.);
#743=ORIENTED_EDGE('',*,*,#578,.T.);
#744=ORIENTED_EDGE('',*,*,#575,.T.);
#745=ORIENTED_EDGE('',*,*,#529,.T.);
#746=ORIENTED_EDGE('',*,*,#540,.F.);
#747=ORIENTED_EDGE('',*,*,#579,.T.);
#748=ORIENTED_EDGE('',*,*,#577,.T.);
#749=ORIENTED_EDGE('',*,*,#539,.T.);
#750=ORIENTED_EDGE('',*,*,#560,.T.);
#751=ORIENTED_EDGE('',*,*,#562,.T.);
#752=ORIENTED_EDGE('',*,*,#568,.F.);
#753=ORIENTED_EDGE('',*,*,#570,.T.);
#754=ORIENTED_EDGE('',*,*,#572,.F.);
#755=ORIENTED_EDGE('',*,*,#574,.F.);
#756=ORIENTED_EDGE('',*,*,#576,.F.);
#757=ORIENTED_EDGE('',*,*,#578,.F.);
#758=ORIENTED_EDGE('',*,*,#579,.F.);
#759=ORIENTED_EDGE('',*,*,#580,.T.);
#760=ORIENTED_EDGE('',*,*,#581,.F.);
#761=ORIENTED_EDGE('',*,*,#582,.F.);
#762=ORIENTED_EDGE('',*,*,#541,.T.);
#763=ORIENTED_EDGE('',*,*,#583,.F.);
#764=ORIENTED_EDGE('',*,*,#584,.F.);
#765=ORIENTED_EDGE('',*,*,#585,.T.);
#766=ORIENTED_EDGE('',*,*,#586,.F.);
#767=ORIENTED_EDGE('',*,*,#542,.T.);
#768=ORIENTED_EDGE('',*,*,#582,.T.);
#769=ORIENTED_EDGE('',*,*,#587,.F.);
#770=ORIENTED_EDGE('',*,*,#588,.T.);
#771=ORIENTED_EDGE('',*,*,#556,.T.);
#772=ORIENTED_EDGE('',*,*,#589,.T.);
#773=ORIENTED_EDGE('',*,*,#590,.F.);
#774=ORIENTED_EDGE('',*,*,#591,.F.);
#775=ORIENTED_EDGE('',*,*,#543,.T.);
#776=ORIENTED_EDGE('',*,*,#586,.T.);
#777=ORIENTED_EDGE('',*,*,#591,.T.);
#778=ORIENTED_EDGE('',*,*,#592,.F.);
#779=ORIENTED_EDGE('',*,*,#593,.F.);
#780=ORIENTED_EDGE('',*,*,#544,.T.);
#781=ORIENTED_EDGE('',*,*,#594,.F.);
#782=ORIENTED_EDGE('',*,*,#595,.T.);
#783=ORIENTED_EDGE('',*,*,#545,.T.);
#784=ORIENTED_EDGE('',*,*,#593,.T.);
#785=ORIENTED_EDGE('',*,*,#596,.F.);
#786=ORIENTED_EDGE('',*,*,#597,.T.);
#787=ORIENTED_EDGE('',*,*,#546,.T.);
#788=ORIENTED_EDGE('',*,*,#595,.F.);
#789=ORIENTED_EDGE('',*,*,#598,.T.);
#790=ORIENTED_EDGE('',*,*,#599,.T.);
#791=ORIENTED_EDGE('',*,*,#600,.T.);
#792=ORIENTED_EDGE('',*,*,#547,.F.);
#793=ORIENTED_EDGE('',*,*,#597,.F.);
#794=ORIENTED_EDGE('',*,*,#601,.T.);
#795=ORIENTED_EDGE('',*,*,#602,.T.);
#796=ORIENTED_EDGE('',*,*,#548,.F.);
#797=ORIENTED_EDGE('',*,*,#600,.F.);
#798=ORIENTED_EDGE('',*,*,#603,.T.);
#799=ORIENTED_EDGE('',*,*,#604,.T.);
#800=ORIENTED_EDGE('',*,*,#549,.F.);
#801=ORIENTED_EDGE('',*,*,#602,.F.);
#802=ORIENTED_EDGE('',*,*,#605,.T.);
#803=ORIENTED_EDGE('',*,*,#606,.T.);
#804=ORIENTED_EDGE('',*,*,#550,.T.);
#805=ORIENTED_EDGE('',*,*,#604,.F.);
#806=ORIENTED_EDGE('',*,*,#607,.T.);
#807=ORIENTED_EDGE('',*,*,#608,.T.);
#808=ORIENTED_EDGE('',*,*,#551,.F.);
#809=ORIENTED_EDGE('',*,*,#606,.F.);
#810=ORIENTED_EDGE('',*,*,#609,.T.);
#811=ORIENTED_EDGE('',*,*,#610,.F.);
#812=ORIENTED_EDGE('',*,*,#611,.T.);
#813=ORIENTED_EDGE('',*,*,#612,.T.);
#814=ORIENTED_EDGE('',*,*,#613,.T.);
#815=ORIENTED_EDGE('',*,*,#614,.T.);
#816=ORIENTED_EDGE('',*,*,#552,.T.);
#817=ORIENTED_EDGE('',*,*,#608,.F.);
#818=ORIENTED_EDGE('',*,*,#615,.T.);
#819=ORIENTED_EDGE('',*,*,#616,.T.);
#820=ORIENTED_EDGE('',*,*,#553,.F.);
#821=ORIENTED_EDGE('',*,*,#614,.F.);
#822=ORIENTED_EDGE('',*,*,#617,.T.);
#823=ORIENTED_EDGE('',*,*,#618,.T.);
#824=ORIENTED_EDGE('',*,*,#554,.F.);
#825=ORIENTED_EDGE('',*,*,#616,.F.);
#826=ORIENTED_EDGE('',*,*,#619,.T.);
#827=ORIENTED_EDGE('',*,*,#589,.F.);
#828=ORIENTED_EDGE('',*,*,#555,.F.);
#829=ORIENTED_EDGE('',*,*,#618,.F.);
#830=ORIENTED_EDGE('',*,*,#557,.T.);
#831=ORIENTED_EDGE('',*,*,#588,.F.);
#832=ORIENTED_EDGE('',*,*,#620,.F.);
#833=ORIENTED_EDGE('',*,*,#621,.F.);
#834=ORIENTED_EDGE('',*,*,#622,.F.);
#835=ORIENTED_EDGE('',*,*,#623,.T.);
#836=ORIENTED_EDGE('',*,*,#583,.T.);
#837=ORIENTED_EDGE('',*,*,#558,.F.);
#838=ORIENTED_EDGE('',*,*,#622,.T.);
#839=ORIENTED_EDGE('',*,*,#624,.F.);
#840=ORIENTED_EDGE('',*,*,#625,.F.);
#841=ORIENTED_EDGE('',*,*,#563,.F.);
#842=ORIENTED_EDGE('',*,*,#626,.T.);
#843=ORIENTED_EDGE('',*,*,#627,.F.);
#844=ORIENTED_EDGE('',*,*,#628,.F.);
#845=ORIENTED_EDGE('',*,*,#564,.F.);
#846=ORIENTED_EDGE('',*,*,#625,.T.);
#847=ORIENTED_EDGE('',*,*,#629,.F.);
#848=ORIENTED_EDGE('',*,*,#630,.F.);
#849=ORIENTED_EDGE('',*,*,#565,.F.);
#850=ORIENTED_EDGE('',*,*,#628,.T.);
#851=ORIENTED_EDGE('',*,*,#566,.F.);
#852=ORIENTED_EDGE('',*,*,#630,.T.);
#853=ORIENTED_EDGE('',*,*,#631,.F.);
#854=ORIENTED_EDGE('',*,*,#626,.F.);
#855=ORIENTED_EDGE('',*,*,#621,.T.);
#856=ORIENTED_EDGE('',*,*,#632,.T.);
#857=ORIENTED_EDGE('',*,*,#580,.F.);
#858=ORIENTED_EDGE('',*,*,#623,.F.);
#859=ORIENTED_EDGE('',*,*,#620,.T.);
#860=ORIENTED_EDGE('',*,*,#587,.T.);
#861=ORIENTED_EDGE('',*,*,#581,.T.);
#862=ORIENTED_EDGE('',*,*,#632,.F.);
#863=ORIENTED_EDGE('',*,*,#596,.T.);
#864=ORIENTED_EDGE('',*,*,#633,.T.);
#865=ORIENTED_EDGE('',*,*,#634,.F.);
#866=ORIENTED_EDGE('',*,*,#635,.T.);
#867=ORIENTED_EDGE('',*,*,#584,.T.);
#868=ORIENTED_EDGE('',*,*,#619,.F.);
#869=ORIENTED_EDGE('',*,*,#617,.F.);
#870=ORIENTED_EDGE('',*,*,#615,.F.);
#871=ORIENTED_EDGE('',*,*,#613,.F.);
#872=ORIENTED_EDGE('',*,*,#607,.F.);
#873=ORIENTED_EDGE('',*,*,#636,.T.);
#874=ORIENTED_EDGE('',*,*,#637,.T.);
#875=ORIENTED_EDGE('',*,*,#638,.T.);
#876=ORIENTED_EDGE('',*,*,#609,.F.);
#877=ORIENTED_EDGE('',*,*,#605,.F.);
#878=ORIENTED_EDGE('',*,*,#603,.F.);
#879=ORIENTED_EDGE('',*,*,#601,.F.);
#880=ORIENTED_EDGE('',*,*,#599,.F.);
#881=ORIENTED_EDGE('',*,*,#639,.F.);
#882=ORIENTED_EDGE('',*,*,#635,.F.);
#883=ORIENTED_EDGE('',*,*,#640,.T.);
#884=ORIENTED_EDGE('',*,*,#590,.T.);
#885=ORIENTED_EDGE('',*,*,#585,.F.);
#886=ORIENTED_EDGE('',*,*,#640,.F.);
#887=ORIENTED_EDGE('',*,*,#634,.T.);
#888=ORIENTED_EDGE('',*,*,#641,.F.);
#889=ORIENTED_EDGE('',*,*,#592,.T.);
#890=ORIENTED_EDGE('',*,*,#633,.F.);
#891=ORIENTED_EDGE('',*,*,#598,.F.);
#892=ORIENTED_EDGE('',*,*,#594,.T.);
#893=ORIENTED_EDGE('',*,*,#641,.T.);
#894=ORIENTED_EDGE('',*,*,#638,.F.);
#895=ORIENTED_EDGE('',*,*,#642,.F.);
#896=ORIENTED_EDGE('',*,*,#643,.T.);
#897=ORIENTED_EDGE('',*,*,#610,.T.);
#898=ORIENTED_EDGE('',*,*,#644,.F.);
#899=ORIENTED_EDGE('',*,*,#645,.F.);
#900=ORIENTED_EDGE('',*,*,#611,.F.);
#901=ORIENTED_EDGE('',*,*,#643,.F.);
#902=ORIENTED_EDGE('',*,*,#636,.F.);
#903=ORIENTED_EDGE('',*,*,#612,.F.);
#904=ORIENTED_EDGE('',*,*,#645,.T.);
#905=ORIENTED_EDGE('',*,*,#646,.T.);
#906=ORIENTED_EDGE('',*,*,#647,.F.);
#907=ORIENTED_EDGE('',*,*,#648,.F.);
#908=ORIENTED_EDGE('',*,*,#649,.F.);
#909=ORIENTED_EDGE('',*,*,#624,.T.);
#910=ORIENTED_EDGE('',*,*,#627,.T.);
#911=ORIENTED_EDGE('',*,*,#649,.T.);
#912=ORIENTED_EDGE('',*,*,#650,.F.);
#913=ORIENTED_EDGE('',*,*,#651,.T.);
#914=ORIENTED_EDGE('',*,*,#651,.F.);
#915=ORIENTED_EDGE('',*,*,#652,.F.);
#916=ORIENTED_EDGE('',*,*,#653,.F.);
#917=ORIENTED_EDGE('',*,*,#629,.T.);
#918=ORIENTED_EDGE('',*,*,#653,.T.);
#919=ORIENTED_EDGE('',*,*,#654,.T.);
#920=ORIENTED_EDGE('',*,*,#647,.T.);
#921=ORIENTED_EDGE('',*,*,#631,.T.);
#922=ORIENTED_EDGE('',*,*,#637,.F.);
#923=ORIENTED_EDGE('',*,*,#646,.F.);
#924=ORIENTED_EDGE('',*,*,#644,.T.);
#925=ORIENTED_EDGE('',*,*,#642,.T.);
#926=ORIENTED_EDGE('',*,*,#655,.T.);
#927=ORIENTED_EDGE('',*,*,#656,.T.);
#928=ORIENTED_EDGE('',*,*,#639,.T.);
#929=ORIENTED_EDGE('',*,*,#656,.F.);
#930=ORIENTED_EDGE('',*,*,#648,.T.);
#931=ORIENTED_EDGE('',*,*,#654,.F.);
#932=ORIENTED_EDGE('',*,*,#652,.T.);
#933=ORIENTED_EDGE('',*,*,#650,.T.);
#934=ORIENTED_EDGE('',*,*,#655,.F.);
#935=ORIENTED_EDGE('',*,*,#657,.T.);
#936=ORIENTED_EDGE('',*,*,#658,.T.);
#937=ORIENTED_EDGE('',*,*,#659,.T.);
#938=ORIENTED_EDGE('',*,*,#660,.T.);
#939=ORIENTED_EDGE('',*,*,#661,.T.);
#940=ORIENTED_EDGE('',*,*,#662,.F.);
#941=ORIENTED_EDGE('',*,*,#657,.F.);
#942=ORIENTED_EDGE('',*,*,#663,.T.);
#943=ORIENTED_EDGE('',*,*,#664,.T.);
#944=ORIENTED_EDGE('',*,*,#665,.F.);
#945=ORIENTED_EDGE('',*,*,#658,.F.);
#946=ORIENTED_EDGE('',*,*,#662,.T.);
#947=ORIENTED_EDGE('',*,*,#666,.T.);
#948=ORIENTED_EDGE('',*,*,#667,.F.);
#949=ORIENTED_EDGE('',*,*,#659,.F.);
#950=ORIENTED_EDGE('',*,*,#665,.T.);
#951=ORIENTED_EDGE('',*,*,#660,.F.);
#952=ORIENTED_EDGE('',*,*,#667,.T.);
#953=ORIENTED_EDGE('',*,*,#668,.T.);
#954=ORIENTED_EDGE('',*,*,#663,.F.);
#955=ORIENTED_EDGE('',*,*,#669,.F.);
#956=ORIENTED_EDGE('',*,*,#670,.F.);
#957=ORIENTED_EDGE('',*,*,#671,.F.);
#958=ORIENTED_EDGE('',*,*,#661,.F.);
#959=ORIENTED_EDGE('',*,*,#664,.F.);
#960=ORIENTED_EDGE('',*,*,#671,.T.);
#961=ORIENTED_EDGE('',*,*,#672,.F.);
#962=ORIENTED_EDGE('',*,*,#673,.F.);
#963=ORIENTED_EDGE('',*,*,#673,.T.);
#964=ORIENTED_EDGE('',*,*,#674,.F.);
#965=ORIENTED_EDGE('',*,*,#675,.F.);
#966=ORIENTED_EDGE('',*,*,#666,.F.);
#967=ORIENTED_EDGE('',*,*,#675,.T.);
#968=ORIENTED_EDGE('',*,*,#676,.F.);
#969=ORIENTED_EDGE('',*,*,#669,.T.);
#970=ORIENTED_EDGE('',*,*,#668,.F.);
#971=ORIENTED_EDGE('',*,*,#674,.T.);
#972=ORIENTED_EDGE('',*,*,#672,.T.);
#973=ORIENTED_EDGE('',*,*,#670,.T.);
#974=ORIENTED_EDGE('',*,*,#676,.T.);
#975=PLANE('',#1171);
#976=PLANE('',#1174);
#977=PLANE('',#1176);
#978=PLANE('',#1177);
#979=PLANE('',#1180);
#980=PLANE('',#1181);
#981=PLANE('',#1184);
#982=PLANE('',#1185);
#983=PLANE('',#1186);
#984=PLANE('',#1187);
#985=PLANE('',#1188);
#986=PLANE('',#1189);
#987=PLANE('',#1190);
#988=PLANE('',#1192);
#989=PLANE('',#1193);
#990=PLANE('',#1194);
#991=PLANE('',#1195);
#992=PLANE('',#1196);
#993=PLANE('',#1197);
#994=PLANE('',#1198);
#995=PLANE('',#1199);
#996=PLANE('',#1200);
#997=PLANE('',#1201);
#998=PLANE('',#1202);
#999=PLANE('',#1203);
#1000=PLANE('',#1204);
#1001=PLANE('',#1205);
#1002=PLANE('',#1206);
#1003=PLANE('',#1207);
#1004=PLANE('',#1208);
#1005=PLANE('',#1209);
#1006=PLANE('',#1210);
#1007=PLANE('',#1211);
#1008=PLANE('',#1214);
#1009=PLANE('',#1216);
#1010=PLANE('',#1217);
#1011=PLANE('',#1218);
#1012=PLANE('',#1219);
#1013=PLANE('',#1220);
#1014=PLANE('',#1221);
#1015=PLANE('',#1222);
#1016=PLANE('',#1223);
#1017=PLANE('',#1224);
#1018=PLANE('',#1227);
#1019=PLANE('',#1228);
#1020=PLANE('',#1229);
#1021=PLANE('',#1230);
#1022=PLANE('',#1231);
#1023=PLANE('',#1232);
#1024=PLANE('',#1233);
#1025=PLANE('',#1234);
#1026=PLANE('',#1235);
#1027=PLANE('',#1236);
#1028=PLANE('',#1237);
#1029=STYLED_ITEM('',(#1850),#1089);
#1030=STYLED_ITEM('',(#1850),#1090);
#1031=STYLED_ITEM('',(#1850),#1091);
#1032=STYLED_ITEM('',(#1850),#1092);
#1033=STYLED_ITEM('',(#1850),#1093);
#1034=STYLED_ITEM('',(#1850),#1094);
#1035=STYLED_ITEM('',(#1850),#1095);
#1036=STYLED_ITEM('',(#1850),#1096);
#1037=STYLED_ITEM('',(#1850),#1097);
#1038=STYLED_ITEM('',(#1850),#1098);
#1039=STYLED_ITEM('',(#1850),#1099);
#1040=STYLED_ITEM('',(#1850),#1100);
#1041=STYLED_ITEM('',(#1850),#1101);
#1042=STYLED_ITEM('',(#1850),#1102);
#1043=STYLED_ITEM('',(#1850),#1103);
#1044=STYLED_ITEM('',(#1850),#1104);
#1045=STYLED_ITEM('',(#1850),#1105);
#1046=STYLED_ITEM('',(#1850),#1106);
#1047=STYLED_ITEM('',(#1850),#1107);
#1048=STYLED_ITEM('',(#1850),#1108);
#1049=STYLED_ITEM('',(#1850),#1109);
#1050=STYLED_ITEM('',(#1850),#1110);
#1051=STYLED_ITEM('',(#1850),#1111);
#1052=STYLED_ITEM('',(#1850),#1112);
#1053=STYLED_ITEM('',(#1850),#1113);
#1054=STYLED_ITEM('',(#1850),#1114);
#1055=STYLED_ITEM('',(#1850),#1115);
#1056=STYLED_ITEM('',(#1850),#1116);
#1057=STYLED_ITEM('',(#1850),#1117);
#1058=STYLED_ITEM('',(#1851),#1118);
#1059=STYLED_ITEM('',(#1851),#1119);
#1060=STYLED_ITEM('',(#1851),#1120);
#1061=STYLED_ITEM('',(#1851),#1121);
#1062=STYLED_ITEM('',(#1850),#1122);
#1063=STYLED_ITEM('',(#1850),#1123);
#1064=STYLED_ITEM('',(#1850),#1124);
#1065=STYLED_ITEM('',(#1850),#1125);
#1066=STYLED_ITEM('',(#1850),#1126);
#1067=STYLED_ITEM('',(#1850),#1127);
#1068=STYLED_ITEM('',(#1850),#1128);
#1069=STYLED_ITEM('',(#1850),#1129);
#1070=STYLED_ITEM('',(#1850),#1130);
#1071=STYLED_ITEM('',(#1851),#1131);
#1072=STYLED_ITEM('',(#1851),#1132);
#1073=STYLED_ITEM('',(#1851),#1133);
#1074=STYLED_ITEM('',(#1851),#1134);
#1075=STYLED_ITEM('',(#1850),#1135);
#1076=STYLED_ITEM('',(#1850),#1136);
#1077=STYLED_ITEM('',(#1851),#1137);
#1078=STYLED_ITEM('',(#1850),#1138);
#1079=STYLED_ITEM('',(#1851),#1139);
#1080=STYLED_ITEM('',(#1851),#1140);
#1081=STYLED_ITEM('',(#1851),#1141);
#1082=STYLED_ITEM('',(#1851),#1142);
#1083=STYLED_ITEM('',(#1851),#1143);
#1084=STYLED_ITEM('',(#1851),#1144);
#1085=STYLED_ITEM('',(#1851),#1145);
#1086=STYLED_ITEM('',(#1851),#1146);
#1087=STYLED_ITEM('',(#1851),#1147);
#1088=STYLED_ITEM('',(#1849),#13);
#1089=ADVANCED_FACE('',(#26),#975,.F.);
#1090=ADVANCED_FACE('',(#27,#22),#976,.T.);
#1091=ADVANCED_FACE('',(#28),#977,.T.);
#1092=ADVANCED_FACE('',(#29,#23),#978,.T.);
#1093=ADVANCED_FACE('',(#30),#18,.T.);
#1094=ADVANCED_FACE('',(#31),#979,.T.);
#1095=ADVANCED_FACE('',(#32),#980,.T.);
#1096=ADVANCED_FACE('',(#33),#19,.T.);
#1097=ADVANCED_FACE('',(#34),#981,.T.);
#1098=ADVANCED_FACE('',(#35),#982,.T.);
#1099=ADVANCED_FACE('',(#36),#983,.T.);
#1100=ADVANCED_FACE('',(#37),#984,.F.);
#1101=ADVANCED_FACE('',(#38),#985,.T.);
#1102=ADVANCED_FACE('',(#39),#986,.F.);
#1103=ADVANCED_FACE('',(#40),#987,.T.);
#1104=ADVANCED_FACE('',(#41),#15,.T.);
#1105=ADVANCED_FACE('',(#42),#988,.T.);
#1106=ADVANCED_FACE('',(#43),#989,.F.);
#1107=ADVANCED_FACE('',(#44),#990,.F.);
#1108=ADVANCED_FACE('',(#45),#991,.F.);
#1109=ADVANCED_FACE('',(#46),#992,.F.);
#1110=ADVANCED_FACE('',(#47),#993,.F.);
#1111=ADVANCED_FACE('',(#48),#994,.F.);
#1112=ADVANCED_FACE('',(#49),#995,.F.);
#1113=ADVANCED_FACE('',(#50),#996,.F.);
#1114=ADVANCED_FACE('',(#51),#997,.F.);
#1115=ADVANCED_FACE('',(#52),#998,.F.);
#1116=ADVANCED_FACE('',(#53),#999,.T.);
#1117=ADVANCED_FACE('',(#54),#1000,.T.);
#1118=ADVANCED_FACE('',(#55),#1001,.T.);
#1119=ADVANCED_FACE('',(#56),#1002,.F.);
#1120=ADVANCED_FACE('',(#57),#1003,.F.);
#1121=ADVANCED_FACE('',(#58),#1004,.F.);
#1122=ADVANCED_FACE('',(#59),#1005,.F.);
#1123=ADVANCED_FACE('',(#60),#1006,.F.);
#1124=ADVANCED_FACE('',(#61,#24),#1007,.F.);
#1125=ADVANCED_FACE('',(#62),#1008,.F.);
#1126=ADVANCED_FACE('',(#63),#20,.T.);
#1127=ADVANCED_FACE('',(#64),#1009,.F.);
#1128=ADVANCED_FACE('',(#65),#1010,.T.);
#1129=ADVANCED_FACE('',(#66),#1011,.T.);
#1130=ADVANCED_FACE('',(#67),#1012,.T.);
#1131=ADVANCED_FACE('',(#68),#1013,.T.);
#1132=ADVANCED_FACE('',(#69),#1014,.T.);
#1133=ADVANCED_FACE('',(#70),#1015,.F.);
#1134=ADVANCED_FACE('',(#71),#1016,.F.);
#1135=ADVANCED_FACE('',(#72),#1017,.T.);
#1136=ADVANCED_FACE('',(#73),#21,.T.);
#1137=ADVANCED_FACE('',(#74),#1018,.F.);
#1138=ADVANCED_FACE('',(#75,#25),#1019,.T.);
#1139=ADVANCED_FACE('',(#76),#1020,.F.);
#1140=ADVANCED_FACE('',(#77),#1021,.F.);
#1141=ADVANCED_FACE('',(#78),#1022,.T.);
#1142=ADVANCED_FACE('',(#79),#1023,.F.);
#1143=ADVANCED_FACE('',(#80),#1024,.F.);
#1144=ADVANCED_FACE('',(#81),#1025,.T.);
#1145=ADVANCED_FACE('',(#82),#1026,.T.);
#1146=ADVANCED_FACE('',(#83),#1027,.F.);
#1147=ADVANCED_FACE('',(#84),#1028,.T.);
#1148=CLOSED_SHELL('',(#1089,#1090,#1091,#1092,#1093,#1094,#1095,#1096,
#1097,#1098,#1099,#1100,#1101,#1102,#1103,#1104,#1105,#1106,#1107,#1108,
#1109,#1110,#1111,#1112,#1113,#1114,#1115,#1116,#1117,#1118,#1119,#1120,
#1121,#1122,#1123,#1124,#1125,#1126,#1127,#1128,#1129,#1130,#1131,#1132,
#1133,#1134,#1135,#1136,#1137,#1138,#1139,#1140,#1141,#1142,#1143,#1144,
#1145,#1146,#1147));
#1149=DERIVED_UNIT_ELEMENT(#1152,1.);
#1150=DERIVED_UNIT_ELEMENT(#1835,-3.);
#1151=DIMENSIONAL_EXPONENTS(0.,1.,0.,0.,0.,0.,0.);
#1152=(
CONVERSION_BASED_UNIT('gram',#1154)
MASS_UNIT()
NAMED_UNIT(#1151)
);
#1153=(
MASS_UNIT()
NAMED_UNIT(*)
SI_UNIT(.KILO.,.GRAM.)
);
#1154=MASS_MEASURE_WITH_UNIT(MASS_MEASURE(0.001),#1153);
#1155=DERIVED_UNIT((#1149,#1150));
#1156=MEASURE_REPRESENTATION_ITEM('density measure',
POSITIVE_RATIO_MEASURE(1.),#1155);
#1157=PROPERTY_DEFINITION_REPRESENTATION(#1162,#1159);
#1158=PROPERTY_DEFINITION_REPRESENTATION(#1163,#1160);
#1159=REPRESENTATION('material name',(#1161),#1832);
#1160=REPRESENTATION('density',(#1156),#1832);
#1161=DESCRIPTIVE_REPRESENTATION_ITEM('Generic','Generic');
#1162=PROPERTY_DEFINITION('material property','material name',#1842);
#1163=PROPERTY_DEFINITION('material property','density of part',#1842);
#1164=DATE_TIME_ROLE('creation_date');
#1165=APPLIED_DATE_AND_TIME_ASSIGNMENT(#1166,#1164,(#1842));
#1166=DATE_AND_TIME(#1167,#1168);
#1167=CALENDAR_DATE(2026,9,8);
#1168=LOCAL_TIME(0,0,0.,#1169);
#1169=COORDINATED_UNIVERSAL_TIME_OFFSET(0,0,.BEHIND.);
#1170=AXIS2_PLACEMENT_3D('',#1512,#1238,#1239);
#1171=AXIS2_PLACEMENT_3D('',#1513,#1240,#1241);
#1172=AXIS2_PLACEMENT_3D('',#1524,#1246,#1247);
#1173=AXIS2_PLACEMENT_3D('',#1530,#1250,#1251);
#1174=AXIS2_PLACEMENT_3D('',#1534,#1254,#1255);
#1175=AXIS2_PLACEMENT_3D('',#1548,#1262,#1263);
#1176=AXIS2_PLACEMENT_3D('',#1576,#1278,#1279);
#1177=AXIS2_PLACEMENT_3D('',#1580,#1282,#1283);
#1178=AXIS2_PLACEMENT_3D('',#1592,#1290,#1291);
#1179=AXIS2_PLACEMENT_3D('',#1595,#1293,#1294);
#1180=AXIS2_PLACEMENT_3D('',#1596,#1295,#1296);
#1181=AXIS2_PLACEMENT_3D('',#1600,#1299,#1300);
#1182=AXIS2_PLACEMENT_3D('',#1604,#1303,#1304);
#1183=AXIS2_PLACEMENT_3D('',#1607,#1306,#1307);
#1184=AXIS2_PLACEMENT_3D('',#1608,#1308,#1309);
#1185=AXIS2_PLACEMENT_3D('',#1612,#1312,#1313);
#1186=AXIS2_PLACEMENT_3D('',#1616,#1316,#1317);
#1187=AXIS2_PLACEMENT_3D('',#1618,#1319,#1320);
#1188=AXIS2_PLACEMENT_3D('',#1619,#1321,#1322);
#1189=AXIS2_PLACEMENT_3D('',#1627,#1327,#1328);
#1190=AXIS2_PLACEMENT_3D('',#1638,#1335,#1336);
#1191=AXIS2_PLACEMENT_3D('',#1644,#1338,#1339);
#1192=AXIS2_PLACEMENT_3D('',#1659,#1340,#1341);
#1193=AXIS2_PLACEMENT_3D('',#1663,#1344,#1345);
#1194=AXIS2_PLACEMENT_3D('',#1669,#1349,#1350);
#1195=AXIS2_PLACEMENT_3D('',#1673,#1353,#1354);
#1196=AXIS2_PLACEMENT_3D('',#1677,#1357,#1358);
#1197=AXIS2_PLACEMENT_3D('',#1681,#1361,#1362);
#1198=AXIS2_PLACEMENT_3D('',#1685,#1365,#1366);
#1199=AXIS2_PLACEMENT_3D('',#1697,#1373,#1374);
#1200=AXIS2_PLACEMENT_3D('',#1701,#1377,#1378);
#1201=AXIS2_PLACEMENT_3D('',#1705,#1381,#1382);
#1202=AXIS2_PLACEMENT_3D('',#1709,#1385,#1386);
#1203=AXIS2_PLACEMENT_3D('',#1711,#1388,#1389);
#1204=AXIS2_PLACEMENT_3D('',#1717,#1393,#1394);
#1205=AXIS2_PLACEMENT_3D('',#1719,#1396,#1397);
#1206=AXIS2_PLACEMENT_3D('',#1725,#1401,#1402);
#1207=AXIS2_PLACEMENT_3D('',#1729,#1405,#1406);
#1208=AXIS2_PLACEMENT_3D('',#1733,#1409,#1410);
#1209=AXIS2_PLACEMENT_3D('',#1735,#1412,#1413);
#1210=AXIS2_PLACEMENT_3D('',#1737,#1415,#1416);
#1211=AXIS2_PLACEMENT_3D('',#1738,#1417,#1418);
#1212=AXIS2_PLACEMENT_3D('',#1742,#1420,#1421);
#1213=AXIS2_PLACEMENT_3D('',#1750,#1426,#1427);
#1214=AXIS2_PLACEMENT_3D('',#1751,#1428,#1429);
#1215=AXIS2_PLACEMENT_3D('',#1753,#1431,#1432);
#1216=AXIS2_PLACEMENT_3D('',#1755,#1434,#1435);
#1217=AXIS2_PLACEMENT_3D('',#1756,#1436,#1437);
#1218=AXIS2_PLACEMENT_3D('',#1760,#1440,#1441);
#1219=AXIS2_PLACEMENT_3D('',#1764,#1444,#1445);
#1220=AXIS2_PLACEMENT_3D('',#1766,#1447,#1448);
#1221=AXIS2_PLACEMENT_3D('',#1772,#1452,#1453);
#1222=AXIS2_PLACEMENT_3D('',#1776,#1456,#1457);
#1223=AXIS2_PLACEMENT_3D('',#1780,#1460,#1461);
#1224=AXIS2_PLACEMENT_3D('',#1782,#1463,#1464);
#1225=AXIS2_PLACEMENT_3D('',#1783,#1465,#1466);
#1226=AXIS2_PLACEMENT_3D('',#1785,#1467,#1468);
#1227=AXIS2_PLACEMENT_3D('',#1787,#1470,#1471);
#1228=AXIS2_PLACEMENT_3D('',#1788,#1472,#1473);
#1229=AXIS2_PLACEMENT_3D('',#1797,#1478,#1479);
#1230=AXIS2_PLACEMENT_3D('',#1803,#1483,#1484);
#1231=AXIS2_PLACEMENT_3D('',#1807,#1487,#1488);
#1232=AXIS2_PLACEMENT_3D('',#1811,#1491,#1492);
#1233=AXIS2_PLACEMENT_3D('',#1813,#1494,#1495);
#1234=AXIS2_PLACEMENT_3D('',#1819,#1499,#1500);
#1235=AXIS2_PLACEMENT_3D('',#1823,#1503,#1504);
#1236=AXIS2_PLACEMENT_3D('',#1827,#1507,#1508);
#1237=AXIS2_PLACEMENT_3D('',#1829,#1510,#1511);
#1238=DIRECTION('axis',(0.,0.,1.));
#1239=DIRECTION('refdir',(1.,0.,0.));
#1240=DIRECTION('center_axis',(-1.,0.,7.04791630301643E-16));
#1241=DIRECTION('ref_axis',(7.04791630301643E-16,0.,1.));
#1242=DIRECTION('',(4.56071664819529E-29,-1.,6.47101420067E-14));
#1243=DIRECTION('',(-7.04693762955675E-16,-0.0166643530230403,-0.999861140028116));
#1244=DIRECTION('',(4.56071664819529E-29,-1.,6.47101420067E-14));
#1245=DIRECTION('',(-7.04791630301643E-16,-6.026924993751E-14,-1.));
#1246=DIRECTION('center_axis',(-1.,0.,7.04791630301643E-16));
#1247=DIRECTION('ref_axis',(0.,-1.,6.47101420067E-14));
#1248=DIRECTION('',(-1.08205236120422E-28,1.,-1.535279811341E-13));
#1249=DIRECTION('',(-7.04791630301643E-16,0.,-1.));
#1250=DIRECTION('center_axis',(-1.,0.,7.04791630301643E-16));
#1251=DIRECTION('ref_axis',(0.,0.,-1.));
#1252=DIRECTION('',(4.93028852631173E-29,1.,6.995384613466E-14));
#1253=DIRECTION('',(7.04791630301643E-16,0.,1.));
#1254=DIRECTION('center_axis',(0.,-6.47101420067E-14,-1.));
#1255=DIRECTION('ref_axis',(0.,1.,-6.47101420067E-14));
#1256=DIRECTION('',(1.,0.,0.));
#1257=DIRECTION('',(0.,-1.,-2.552878544177E-13));
#1258=DIRECTION('',(1.,1.817058960124E-14,0.));
#1259=DIRECTION('',(-1.,-6.06051158064E-14,0.));
#1260=DIRECTION('',(7.105057025136E-11,1.,8.139796688874E-9));
#1261=DIRECTION('',(-0.999999999999939,3.48325955475914E-7,3.12047328046412E-14));
#1262=DIRECTION('center_axis',(0.,6.47101420067E-14,1.));
#1263=DIRECTION('ref_axis',(0.,1.,-6.47101420067E-14));
#1264=DIRECTION('',(-0.999999999999781,-6.61525471993887E-7,0.));
#1265=DIRECTION('',(6.099186459983E-11,-1.,-6.987104194619E-9));
#1266=DIRECTION('',(-1.,0.,2.368475815474E-14));
#1267=DIRECTION('',(0.,1.,-4.342205615528E-14));
#1268=DIRECTION('',(1.,-2.664535264073E-14,1.184237895144E-14));
#1269=DIRECTION('',(-0.362446261789509,-0.932004671294522,2.02347795298605E-14));
#1270=DIRECTION('',(-1.,0.,0.));
#1271=DIRECTION('',(-0.362446259504894,0.932004672182984,-2.20743049627096E-14));
#1272=DIRECTION('',(1.,0.,0.));
#1273=DIRECTION('',(0.,-1.,2.368475790288E-14));
#1274=DIRECTION('',(-1.,0.,0.));
#1275=DIRECTION('',(-3.19874061088E-13,1.,-1.61552556105E-14));
#1276=DIRECTION('',(1.,0.,7.523393686308E-14));
#1277=DIRECTION('',(0.,-1.,3.651400166389E-14));
#1278=DIRECTION('center_axis',(0.,-1.,0.));
#1279=DIRECTION('ref_axis',(0.,0.,-1.));
#1280=DIRECTION('',(1.,0.,0.));
#1281=DIRECTION('',(0.,0.,1.));
#1282=DIRECTION('center_axis',(0.,-6.995384613466E-14,1.));
#1283=DIRECTION('ref_axis',(0.,-1.,-6.995384613466E-14));
#1284=DIRECTION('',(-1.,-1.387506221951E-13,0.));
#1285=DIRECTION('',(0.,1.,0.));
#1286=DIRECTION('',(-1.,0.,0.));
#1287=DIRECTION('',(0.,1.,6.994731574581E-14));
#1288=DIRECTION('',(1.,0.,0.));
#1289=DIRECTION('',(0.,-1.,-6.994731574581E-14));
#1290=DIRECTION('center_axis',(1.,0.,0.));
#1291=DIRECTION('ref_axis',(0.,0.,-1.));
#1292=DIRECTION('',(1.,0.,-4.226759922285E-10));
#1293=DIRECTION('center_axis',(1.,0.,0.));
#1294=DIRECTION('ref_axis',(0.,0.999999999999998,6.06628025778199E-8));
#1295=DIRECTION('center_axis',(0.,1.,0.));
#1296=DIRECTION('ref_axis',(0.,0.,1.));
#1297=DIRECTION('',(1.,0.,0.));
#1298=DIRECTION('',(0.,-1.493708296484E-10,-1.));
#1299=DIRECTION('center_axis',(0.,1.535279811341E-13,1.));
#1300=DIRECTION('ref_axis',(0.,-1.,1.535279811341E-13));
#1301=DIRECTION('',(-1.,0.,0.));
#1302=DIRECTION('',(0.,-1.,-8.282263977254E-12));
#1303=DIRECTION('center_axis',(1.,0.,0.));
#1304=DIRECTION('ref_axis',(0.,-1.,6.47101420067E-14));
#1305=DIRECTION('',(1.,0.,0.));
#1306=DIRECTION('center_axis',(1.,0.,0.));
#1307=DIRECTION('ref_axis',(0.,1.,-1.73194792898E-13));
#1308=DIRECTION('center_axis',(0.,1.,-6.026924993751E-14));
#1309=DIRECTION('ref_axis',(0.,6.026924993751E-14,1.));
#1310=DIRECTION('',(1.,0.,0.));
#1311=DIRECTION('',(0.,1.776356827676E-14,1.));
#1312=DIRECTION('center_axis',(0.,-6.47101420067E-14,-1.));
#1313=DIRECTION('ref_axis',(0.,1.,-6.47101420067E-14));
#1314=DIRECTION('',(1.,1.824327195965E-14,0.));
#1315=DIRECTION('',(0.,1.,-3.73969864862E-14));
#1316=DIRECTION('center_axis',(0.,0.999861140028116,-0.0166643530230403));
#1317=DIRECTION('ref_axis',(0.,0.0166643530230403,0.999861140028116));
#1318=DIRECTION('',(0.,0.0166643529722494,0.999861140028962));
#1319=DIRECTION('center_axis',(1.,0.,0.));
#1320=DIRECTION('ref_axis',(0.,0.,-1.));
#1321=DIRECTION('center_axis',(0.,1.,-6.47101420067E-14));
#1322=DIRECTION('ref_axis',(1.,0.,0.));
#1323=DIRECTION('',(0.,2.486899575161E-14,1.));
#1324=DIRECTION('',(-1.,0.,4.546457560877E-14));
#1325=DIRECTION('',(0.00872653549859173,2.02607987008994E-14,0.999961923064169));
#1326=DIRECTION('',(-0.165852593353794,-4.06088724739086E-14,-0.986150555076567));
#1327=DIRECTION('center_axis',(-0.999961923064171,0.,0.00872653549837375));
#1328=DIRECTION('ref_axis',(0.,1.,0.));
#1329=DIRECTION('',(0.,1.,0.));
#1330=DIRECTION('',(-0.00872653547798942,4.37754093252421E-8,-0.999961923064348));
#1331=DIRECTION('',(0.00846600273516872,0.242526631318492,0.970107808389868));
#1332=DIRECTION('',(-9.720619361874E-14,-1.,2.171102801637E-14));
#1333=DIRECTION('',(-0.00872653549858073,-2.55341572668892E-14,-0.999961923064169));
#1334=DIRECTION('',(0.00872653549839375,0.,0.999961923064171));
#1335=DIRECTION('center_axis',(0.,0.970142500145338,-0.242535625036309));
#1336=DIRECTION('ref_axis',(0.,0.242535625036309,0.970142500145338));
#1337=DIRECTION('',(-0.999999999989607,-1.34464453364101E-6,-4.35647830905503E-6));
#1338=DIRECTION('center_axis',(0.,6.47101420067E-14,1.));
#1339=DIRECTION('ref_axis',(0.00015482447369881,0.999999988014691,-6.47101412311289E-14));
#1340=DIRECTION('center_axis',(0.,0.970142500145338,-0.242535625036309));
#1341=DIRECTION('ref_axis',(0.,0.242535625036309,0.970142500145338));
#1342=DIRECTION('',(-0.999999999994698,-1.314402909079E-6,2.97919834309699E-6));
#1343=DIRECTION('',(0.00846600370465102,-0.242526325509901,-0.970107884833403));
#1344=DIRECTION('center_axis',(0.999961923064171,0.,0.00872653549837375));
#1345=DIRECTION('ref_axis',(0.,-1.,0.));
#1346=DIRECTION('',(1.698275274474E-14,-1.,0.));
#1347=DIRECTION('',(0.00872653549838275,0.,-0.999961923064171));
#1348=DIRECTION('',(-0.00872653543641309,-6.73360982136907E-8,0.99996192306471));
#1349=DIRECTION('center_axis',(0.,1.,0.));
#1350=DIRECTION('ref_axis',(1.,0.,0.));
#1351=DIRECTION('',(-1.,0.,0.));
#1352=DIRECTION('',(0.,0.,-1.));
#1353=DIRECTION('center_axis',(1.,0.,0.));
#1354=DIRECTION('ref_axis',(0.,-1.,0.));
#1355=DIRECTION('',(0.,1.,0.));
#1356=DIRECTION('',(0.,0.,-1.));
#1357=DIRECTION('center_axis',(0.,-1.,0.));
#1358=DIRECTION('ref_axis',(-1.,0.,0.));
#1359=DIRECTION('',(1.,-2.664535264073E-14,0.));
#1360=DIRECTION('',(0.,0.,-1.));
#1361=DIRECTION('center_axis',(0.932004671294522,-0.362446261789509,0.));
#1362=DIRECTION('ref_axis',(-0.362446261789509,-0.932004671294522,0.));
#1363=DIRECTION('',(0.362446261789509,0.932004671294522,0.));
#1364=DIRECTION('',(0.,0.,-1.));
#1365=DIRECTION('center_axis',(0.,1.,0.));
#1366=DIRECTION('ref_axis',(1.,0.,0.));
#1367=DIRECTION('',(-1.,-1.154631946788E-14,0.));
#1368=DIRECTION('',(0.,0.,-1.));
#1369=DIRECTION('',(-1.,0.,0.));
#1370=DIRECTION('',(0.,0.,1.));
#1371=DIRECTION('',(-1.,0.,0.));
#1372=DIRECTION('',(0.,0.,1.));
#1373=DIRECTION('center_axis',(-0.93200467218295,-0.362446259504981,0.));
#1374=DIRECTION('ref_axis',(-0.362446259504981,0.93200467218295,0.));
#1375=DIRECTION('',(0.362446259504894,-0.932004672182984,0.));
#1376=DIRECTION('',(0.,0.,-1.));
#1377=DIRECTION('center_axis',(0.,-1.,0.));
#1378=DIRECTION('ref_axis',(-1.,0.,0.));
#1379=DIRECTION('',(1.,0.,0.));
#1380=DIRECTION('',(0.,0.,-1.));
#1381=DIRECTION('center_axis',(-1.,0.,0.));
#1382=DIRECTION('ref_axis',(0.,1.,0.));
#1383=DIRECTION('',(0.,-1.,0.));
#1384=DIRECTION('',(0.,0.,-1.));
#1385=DIRECTION('center_axis',(0.,1.,0.));
#1386=DIRECTION('ref_axis',(1.,0.,0.));
#1387=DIRECTION('',(-1.,0.,0.));
#1388=DIRECTION('center_axis',(0.,-1.,6.47101420067E-14));
#1389=DIRECTION('ref_axis',(-1.,0.,0.));
#1390=DIRECTION('',(1.,-2.797820037461E-14,1.084155264516E-13));
#1391=DIRECTION('',(0.,0.,1.));
#1392=DIRECTION('',(0.165852593353794,4.06088724739187E-14,0.986150555076567));
#1393=DIRECTION('center_axis',(0.986150555076567,-1.07320488237296E-14,
-0.165852593353794));
#1394=DIRECTION('ref_axis',(-0.165852593353794,-6.38122367446779E-14,-0.986150555076567));
#1395=DIRECTION('',(0.,-1.,5.329070513108E-14));
#1396=DIRECTION('center_axis',(0.,-1.,0.));
#1397=DIRECTION('ref_axis',(1.,0.,0.));
#1398=DIRECTION('',(1.,0.,0.));
#1399=DIRECTION('',(0.,0.,1.));
#1400=DIRECTION('',(0.,0.,1.));
#1401=DIRECTION('center_axis',(1.,0.,0.));
#1402=DIRECTION('ref_axis',(0.,1.,0.));
#1403=DIRECTION('',(0.,-1.,0.));
#1404=DIRECTION('',(0.,0.,1.));
#1405=DIRECTION('center_axis',(0.,-1.,0.));
#1406=DIRECTION('ref_axis',(1.,0.,0.));
#1407=DIRECTION('',(-1.,0.,0.));
#1408=DIRECTION('',(0.,0.,1.));
#1409=DIRECTION('center_axis',(-1.,0.,0.));
#1410=DIRECTION('ref_axis',(0.,-1.,0.));
#1411=DIRECTION('',(0.,1.,0.));
#1412=DIRECTION('center_axis',(-1.,0.,0.));
#1413=DIRECTION('ref_axis',(0.,1.,-6.471038982436E-14));
#1414=DIRECTION('',(0.,-1.,4.342205603274E-14));
#1415=DIRECTION('center_axis',(0.,6.47101420067E-14,1.));
#1416=DIRECTION('ref_axis',(1.,0.,0.));
#1417=DIRECTION('center_axis',(0.,0.,1.));
#1418=DIRECTION('ref_axis',(-1.,0.,0.));
#1419=DIRECTION('',(-0.999999999999939,3.48540416966014E-7,0.));
#1420=DIRECTION('center_axis',(0.,0.,-1.));
#1421=DIRECTION('ref_axis',(-0.484122829735983,0.87500004898767,0.));
#1422=DIRECTION('',(-0.999999999999995,-9.95971529587395E-8,0.));
#1423=DIRECTION('',(0.,-1.,0.));
#1424=DIRECTION('',(1.,0.,0.));
#1425=DIRECTION('',(0.,1.,0.));
#1426=DIRECTION('center_axis',(0.,0.,-1.));
#1427=DIRECTION('ref_axis',(-1.,0.,0.));
#1428=DIRECTION('center_axis',(0.,-1.,0.));
#1429=DIRECTION('ref_axis',(-1.,0.,0.));
#1430=DIRECTION('',(1.50003685289697E-8,2.09287825926495E-7,-0.999999999999978));
#1431=DIRECTION('center_axis',(0.,0.,-1.));
#1432=DIRECTION('ref_axis',(1.,0.,0.));
#1433=DIRECTION('',(3.32169388897111E-7,1.49411573485705E-7,0.999999999999934));
#1434=DIRECTION('center_axis',(0.,-1.,0.));
#1435=DIRECTION('ref_axis',(-1.,0.,0.));
#1436=DIRECTION('center_axis',(1.,0.,0.));
#1437=DIRECTION('ref_axis',(0.,-1.,0.));
#1438=DIRECTION('',(0.,0.,1.));
#1439=DIRECTION('',(0.,1.,0.));
#1440=DIRECTION('center_axis',(0.,0.,-1.));
#1441=DIRECTION('ref_axis',(1.,0.,0.));
#1442=DIRECTION('',(1.,0.,0.));
#1443=DIRECTION('',(0.,-1.,0.));
#1444=DIRECTION('center_axis',(-1.,0.,0.));
#1445=DIRECTION('ref_axis',(0.,1.,0.));
#1446=DIRECTION('',(0.,0.,1.));
#1447=DIRECTION('center_axis',(0.,-0.948683298050164,0.316227766017888));
#1448=DIRECTION('ref_axis',(-1.,0.,0.));
#1449=DIRECTION('',(0.301511344578391,-0.301511344578391,-0.904534033732873));
#1450=DIRECTION('',(1.,0.,0.));
#1451=DIRECTION('',(0.301511344578391,0.301511344578391,0.904534033732873));
#1452=DIRECTION('center_axis',(-0.948683298050164,0.,0.316227766017888));
#1453=DIRECTION('ref_axis',(0.,-1.,0.));
#1454=DIRECTION('',(0.,-1.,0.));
#1455=DIRECTION('',(-0.301511344578391,0.301511344578391,-0.904534033732873));
#1456=DIRECTION('center_axis',(0.,-0.948683298050164,-0.316227766017888));
#1457=DIRECTION('ref_axis',(-1.,0.,0.));
#1458=DIRECTION('',(-1.,-4.662936703429E-14,0.));
#1459=DIRECTION('',(-0.301511344578391,-0.301511344578391,0.904534033732873));
#1460=DIRECTION('center_axis',(-0.948683298050164,0.,-0.316227766017888));
#1461=DIRECTION('ref_axis',(0.,-1.,0.));
#1462=DIRECTION('',(-4.662936703429E-14,-1.,0.));
#1463=DIRECTION('center_axis',(0.,-1.,0.));
#1464=DIRECTION('ref_axis',(-1.,0.,0.));
#1465=DIRECTION('center_axis',(0.,0.,-1.));
#1466=DIRECTION('ref_axis',(1.,0.,0.));
#1467=DIRECTION('center_axis',(0.,0.,1.));
#1468=DIRECTION('ref_axis',(1.,0.,0.));
#1469=DIRECTION('',(0.,0.,1.));
#1470=DIRECTION('center_axis',(0.,0.,-1.));
#1471=DIRECTION('ref_axis',(1.,0.,0.));
#1472=DIRECTION('center_axis',(0.,0.,-1.));
#1473=DIRECTION('ref_axis',(1.,0.,0.));
#1474=DIRECTION('',(-1.,0.,0.));
#1475=DIRECTION('',(0.,-1.,0.));
#1476=DIRECTION('',(1.,0.,0.));
#1477=DIRECTION('',(0.,1.,0.));
#1478=DIRECTION('center_axis',(0.,-1.,0.));
#1479=DIRECTION('ref_axis',(1.,0.,0.));
#1480=DIRECTION('',(-1.,0.,0.));
#1481=DIRECTION('',(7.308439568813E-14,7.308439568813E-14,-1.));
#1482=DIRECTION('',(-7.283063042533E-14,7.308439568813E-14,-1.));
#1483=DIRECTION('center_axis',(1.,0.,0.));
#1484=DIRECTION('ref_axis',(0.,1.,0.));
#1485=DIRECTION('',(-6.394884621841E-13,-1.,3.900213485508E-12));
#1486=DIRECTION('',(-7.30843956882E-14,7.30843956882E-14,-1.));
#1487=DIRECTION('center_axis',(0.,-1.,0.));
#1488=DIRECTION('ref_axis',(1.,0.,0.));
#1489=DIRECTION('',(1.,0.,0.));
#1490=DIRECTION('',(7.3338160951E-14,7.32112783196E-14,-1.));
#1491=DIRECTION('center_axis',(-1.,0.,0.));
#1492=DIRECTION('ref_axis',(0.,-1.,0.));
#1493=DIRECTION('',(-6.383782391595E-13,1.,-3.900213485508E-12));
#1494=DIRECTION('center_axis',(0.,-0.948683298049894,0.316227766018698));
#1495=DIRECTION('ref_axis',(-1.,0.,0.));
#1496=DIRECTION('',(0.301511344579191,0.301511344578491,0.904534033732573));
#1497=DIRECTION('',(1.,0.,0.));
#1498=DIRECTION('',(0.301511344579191,-0.301511344578491,-0.904534033732573));
#1499=DIRECTION('center_axis',(-0.948683298049924,-2.04627981226205E-14,
-0.316227766018608));
#1500=DIRECTION('ref_axis',(-1.95653122782655E-17,-1.,6.47677453041705E-14));
#1501=DIRECTION('',(0.,1.,-2.664535259103E-14));
#1502=DIRECTION('',(0.3015113445784,0.3015113445792,-0.9045340337326));
#1503=DIRECTION('center_axis',(0.,-0.948683298049964,-0.316227766018488));
#1504=DIRECTION('ref_axis',(-1.,0.,0.));
#1505=DIRECTION('',(-1.,-2.753353101073E-13,0.));
#1506=DIRECTION('',(-0.301511344578391,0.301511344579291,-0.904534033732573));
#1507=DIRECTION('center_axis',(-0.948683298049924,2.04558592287205E-14,
0.316227766018608));
#1508=DIRECTION('ref_axis',(2.54898437521336E-17,-1.,6.47635761894259E-14));
#1509=DIRECTION('',(-3.77475828373E-14,-1.,2.664535259104E-14));
#1510=DIRECTION('center_axis',(0.,-6.472600233565E-14,-1.));
#1511=DIRECTION('ref_axis',(-1.,0.,0.));
#1512=CARTESIAN_POINT('',(0.,0.,0.));
#1513=CARTESIAN_POINT('Origin',(5.71500000000003,0.,-4.02788416717391E-15));
#1514=CARTESIAN_POINT('',(5.71500000000003,7.04999999809308,-9.199999999758));
#1515=CARTESIAN_POINT('',(5.71500000000003,0.05000000000018,-9.19999999976));
#1516=CARTESIAN_POINT('',(5.71500000000003,0.0249999999997923,-9.19999999976));
#1517=CARTESIAN_POINT('',(5.71500000000003,7.10000000000008,-6.20000000028));
#1518=CARTESIAN_POINT('',(5.71500000000003,7.12566648255854,-4.66001111042187));
#1519=CARTESIAN_POINT('',(5.71500000000003,7.289999998,-6.20000000028));
#1520=CARTESIAN_POINT('',(5.71500000000003,3.5499999999998,-6.20000000027977));
#1521=CARTESIAN_POINT('',(5.71500000000003,7.289999998,-5.99999999896));
#1522=CARTESIAN_POINT('',(5.71500000000003,7.28999999800019,-3.10000000014022));
#1523=CARTESIAN_POINT('',(5.71500000000003,7.089999999222,-5.800000000181));
#1524=CARTESIAN_POINT('Origin',(5.71500000000003,7.08999999922,-5.99999999896));
#1525=CARTESIAN_POINT('',(5.71500000000003,7.050000000253,-5.800000000181));
#1526=CARTESIAN_POINT('',(5.71500000000003,3.54499999960955,-5.80000000018046));
#1527=CARTESIAN_POINT('',(5.71500000000003,7.050000001045,-0.499999983444253));
#1528=CARTESIAN_POINT('',(5.71500000000003,7.050000000002,-4.5999999998805));
#1529=CARTESIAN_POINT('',(5.71500000000003,6.55000000174189,7.224155367357E-14));
#1530=CARTESIAN_POINT('Origin',(5.71500000000003,6.550000001782,-0.5000000007603));
#1531=CARTESIAN_POINT('',(5.71500000000003,0.05000000000018,2.855566489306E-14));
#1532=CARTESIAN_POINT('',(5.71500000000003,3.2750000008915,2.25601153846625E-13));
#1533=CARTESIAN_POINT('',(5.71500000000003,0.05000000000018,8.10510374825724E-16));
#1534=CARTESIAN_POINT('Origin',(13.72999999994,0.05000000000018,-9.19999999976));
#1535=CARTESIAN_POINT('',(1.51000000006,0.05000000000018,-9.19999999976));
#1536=CARTESIAN_POINT('',(1.51000000006,0.05000000000018,-9.19999999976));
#1537=CARTESIAN_POINT('',(1.51000000006,7.049999998093,-9.199999999758));
#1538=CARTESIAN_POINT('',(1.51000000006,7.049999998093,-9.199999999758));
#1539=CARTESIAN_POINT('',(1.51000000006,7.049999998093,-9.199999999758));
#1540=CARTESIAN_POINT('',(2.234999999294,2.849999999281,-9.19999999976));
#1541=CARTESIAN_POINT('',(1.81000000006,2.849999999281,-9.19999999976));
#1542=CARTESIAN_POINT('',(2.234999999294,2.849999999281,-9.19999999976));
#1543=CARTESIAN_POINT('',(2.23499999913928,0.449999912863854,-9.20000001874206));
#1544=CARTESIAN_POINT('',(2.234999999124,0.4499999120901,-9.200000019296));
#1545=CARTESIAN_POINT('',(3.08888924531521,0.449999846039184,-9.20000002436772));
#1546=CARTESIAN_POINT('',(3.088888181978,0.4499996146587,-9.200000019296));
#1547=CARTESIAN_POINT('',(4.53146008539329,0.44977645039542,-9.20000004390016));
#1548=CARTESIAN_POINT('Origin',(3.809988910661,-0.7499856582499,-9.19999999976));
#1549=CARTESIAN_POINT('',(5.38499999110422,0.44977661821397,-9.2000000325461));
#1550=CARTESIAN_POINT('',(5.384999991117,0.4497766176705,-9.200000032949));
#1551=CARTESIAN_POINT('',(5.384999990827,5.19977676784,-9.19999999976));
#1552=CARTESIAN_POINT('',(5.384999990827,5.19977676784,-9.19999999976));
#1553=CARTESIAN_POINT('',(4.56000000114,5.19977676784,-9.19999999976));
#1554=CARTESIAN_POINT('',(5.384999990827,5.19977676784,-9.19999999976));
#1555=CARTESIAN_POINT('',(4.56000000114,5.649776767,-9.19999999976));
#1556=CARTESIAN_POINT('',(4.56000000114,5.19977676784,-9.19999999976));
#1557=CARTESIAN_POINT('',(4.86000000058,5.649776767,-9.19999999976));
#1558=CARTESIAN_POINT('',(4.56000000114,5.649776767,-9.19999999976));
#1559=CARTESIAN_POINT('',(5.21000000162,6.54977676786,-9.19999999976));
#1560=CARTESIAN_POINT('',(5.21000000162,6.54977676786,-9.19999999976));
#1561=CARTESIAN_POINT('',(2.41000000092,6.54977676786,-9.19999999976));
#1562=CARTESIAN_POINT('',(5.21000000162,6.54977676786,-9.19999999976));
#1563=CARTESIAN_POINT('',(2.75999999942,5.649776767,-9.19999999976));
#1564=CARTESIAN_POINT('',(2.75999999942,5.649776767,-9.19999999976));
#1565=CARTESIAN_POINT('',(3.0600000014,5.649776767,-9.19999999976));
#1566=CARTESIAN_POINT('',(2.75999999942,5.649776767,-9.19999999976));
#1567=CARTESIAN_POINT('',(3.0600000014,5.19977676784,-9.19999999976));
#1568=CARTESIAN_POINT('',(3.0600000014,5.649776767,-9.19999999976));
#1569=CARTESIAN_POINT('',(2.234999999294,5.19977676784,-9.19999999976));
#1570=CARTESIAN_POINT('',(3.0600000014,5.19977676784,-9.19999999976));
#1571=CARTESIAN_POINT('',(2.234999999294,4.650000001001,-9.19999999976));
#1572=CARTESIAN_POINT('',(2.234999999294,4.650000001001,-9.19999999976));
#1573=CARTESIAN_POINT('',(1.81000000006,4.650000001001,-9.19999999976));
#1574=CARTESIAN_POINT('',(1.81000000006,4.650000001001,-9.19999999976));
#1575=CARTESIAN_POINT('',(1.81000000006,4.650000001001,-9.19999999976));
#1576=CARTESIAN_POINT('Origin',(13.72999999994,0.05000000000018,0.));
#1577=CARTESIAN_POINT('',(1.51000000006,0.05000000000018,2.855566489306E-14));
#1578=CARTESIAN_POINT('',(1.51000000006,0.05000000000018,2.855566489306E-14));
#1579=CARTESIAN_POINT('',(1.51000000006,0.05000000000018,-9.19999999976));
#1580=CARTESIAN_POINT('Origin',(13.72999999994,6.550000001783,4.547E-13));
#1581=CARTESIAN_POINT('',(1.51000000006,6.550000001741,7.224155367357E-14));
#1582=CARTESIAN_POINT('',(13.72999999994,6.550000001743,7.224155367357E-14));
#1583=CARTESIAN_POINT('',(1.51000000006,0.05000000000018,2.855566489306E-14));
#1584=CARTESIAN_POINT('',(4.20999999994,2.65,1.820110506757E-13));
#1585=CARTESIAN_POINT('',(3.40999999994,2.65,1.820110506757E-13));
#1586=CARTESIAN_POINT('',(4.20999999994,2.65,1.820110506757E-13));
#1587=CARTESIAN_POINT('',(3.40999999994,3.45,2.379689032724E-13));
#1588=CARTESIAN_POINT('',(3.40999999994,2.65,1.820110506757E-13));
#1589=CARTESIAN_POINT('',(4.20999999994,3.45,2.379689032724E-13));
#1590=CARTESIAN_POINT('',(3.40999999994,3.45,2.379689032724E-13));
#1591=CARTESIAN_POINT('',(4.20999999994,3.45,2.379689032724E-13));
#1592=CARTESIAN_POINT('Origin',(13.72999999994,6.550000001782,-0.5000000007603));
#1593=CARTESIAN_POINT('',(1.51000000006,7.050000001544,-0.4999999816669));
#1594=CARTESIAN_POINT('',(1.51000000006,7.050000001045,-0.4999999816669));
#1595=CARTESIAN_POINT('Origin',(1.51000000006,6.550000001782,-0.5000000007603));
#1596=CARTESIAN_POINT('Origin',(13.72999999994,7.050000000002,-9.199999999761));
#1597=CARTESIAN_POINT('',(1.51000000006,7.050000000253,-5.800000000181));
#1598=CARTESIAN_POINT('',(1.51000000006,7.050000000253,-5.800000000181));
#1599=CARTESIAN_POINT('',(1.51000000006,7.050000001045,-0.4999999816669));
#1600=CARTESIAN_POINT('Origin',(1.95000000006,7.08999999922,-5.800000000181));
#1601=CARTESIAN_POINT('',(1.51000000006,7.089999999222,-5.800000000181));
#1602=CARTESIAN_POINT('',(13.72999999994,7.089999999222,-5.800000000181));
#1603=CARTESIAN_POINT('',(1.51000000006,7.089999999222,-5.800000000181));
#1604=CARTESIAN_POINT('Origin',(1.95000000006,7.08999999922,-5.99999999896));
#1605=CARTESIAN_POINT('',(1.51000000006,7.289999998,-5.99999999896));
#1606=CARTESIAN_POINT('',(1.51000000006,7.289999998,-5.99999999896));
#1607=CARTESIAN_POINT('Origin',(1.51000000006,7.08999999922,-5.99999999896));
#1608=CARTESIAN_POINT('Origin',(1.95000000006,7.289999998,-6.20000000028));
#1609=CARTESIAN_POINT('',(1.51000000006,7.289999998,-6.20000000028));
#1610=CARTESIAN_POINT('',(1.51000000006,7.289999998,-6.20000000028));
#1611=CARTESIAN_POINT('',(1.51000000006,7.289999998,-6.20000000028));
#1612=CARTESIAN_POINT('Origin',(1.95000000006,7.1,-6.20000000028));
#1613=CARTESIAN_POINT('',(1.51000000006,7.1,-6.20000000028));
#1614=CARTESIAN_POINT('',(1.51000000006,7.1,-6.20000000028));
#1615=CARTESIAN_POINT('',(1.51000000006,7.1,-6.20000000028));
#1616=CARTESIAN_POINT('Origin',(1.95000000006,7.04999999794,-9.19999999976));
#1617=CARTESIAN_POINT('',(1.51000000006,7.049999998093,-9.199999999758));
#1618=CARTESIAN_POINT('Origin',(1.51000000006,0.,0.));
#1619=CARTESIAN_POINT('Origin',(1.8199999995,2.849999999281,-9.19999999976));
#1620=CARTESIAN_POINT('',(1.99500000006,2.849999999281,-8.09999999976));
#1621=CARTESIAN_POINT('',(1.99500000006,2.849999999281,-7.59999999976));
#1622=CARTESIAN_POINT('',(1.99500000006,2.849999999281,-8.09999999976));
#1623=CARTESIAN_POINT('',(2.24896298776,2.849999999281,-7.59999999976));
#1624=CARTESIAN_POINT('',(2.24896298776,2.849999999281,-7.59999999976));
#1625=CARTESIAN_POINT('',(2.234999999294,2.849999999281,-9.19999999976));
#1626=CARTESIAN_POINT('',(1.99500000006,2.849999999281,-8.09999999976));
#1627=CARTESIAN_POINT('Origin',(2.308300137042,-0.8850886355328,-0.8006361609796));
#1628=CARTESIAN_POINT('',(2.294342700264,0.650000052082431,-2.4000000006));
#1629=CARTESIAN_POINT('',(2.294342700264,5.19977676784,-2.4000000006));
#1630=CARTESIAN_POINT('',(2.294342700264,0.6500000527163,-2.4000000006));
#1631=CARTESIAN_POINT('',(2.24198151676712,0.650000315214367,-8.39999734935052));
#1632=CARTESIAN_POINT('',(2.294342700264,0.6500000527163,-2.4000000006));
#1633=CARTESIAN_POINT('',(2.234999999124,0.4499999120901,-9.200000019296));
#1634=CARTESIAN_POINT('',(2.24896298776,4.650000001001,-7.59999999976));
#1635=CARTESIAN_POINT('',(2.24896298776,4.650000001001,-7.59999999976));
#1636=CARTESIAN_POINT('',(2.24896298776,4.650000001001,-7.59999999976));
#1637=CARTESIAN_POINT('',(2.234999999294,5.19977676784,-9.19999999976));
#1638=CARTESIAN_POINT('Origin',(2.635403330175,0.5500000000002,-8.79999999976));
#1639=CARTESIAN_POINT('',(3.03540200588133,0.650000368049519,-8.39999837750686));
#1640=CARTESIAN_POINT('',(3.035403773115,0.6500013822496,-8.399993891489));
#1641=CARTESIAN_POINT('Ctrl Pts',(3.08888929966673,0.449999986040407,-9.20000005559922));
#1642=CARTESIAN_POINT('Ctrl Pts',(3.06214463729862,0.546423920442659,-8.81430431799017));
#1643=CARTESIAN_POINT('Ctrl Pts',(3.03539953525618,0.650000394460947,-8.39999842191697));
#1644=CARTESIAN_POINT('Origin',(3.809988910661,-0.7499856582499,-8.799995610761));
#1645=CARTESIAN_POINT('',(4.58499186166916,0.64977919228293,-8.39997964296408));
#1646=CARTESIAN_POINT('Ctrl Pts',(4.58499321315708,0.649780526874145,-8.39996417991676));
#1647=CARTESIAN_POINT('Ctrl Pts',(4.53243441840544,0.678879881000729,-8.39996668028539));
#1648=CARTESIAN_POINT('Ctrl Pts',(4.47801014216207,0.705128661132328,-8.39996913017408));
#1649=CARTESIAN_POINT('Ctrl Pts',(4.22519003491303,0.809850178405254,-8.3999798936496));
#1650=CARTESIAN_POINT('Ctrl Pts',(4.0108995721259,0.85000000132,-8.39998727395092));
#1651=CARTESIAN_POINT('Ctrl Pts',(3.60910042799022,0.85000000132,-8.39999841317649));
#1652=CARTESIAN_POINT('Ctrl Pts',(3.39480996523826,0.809850178446553,-8.40000291458175));
#1653=CARTESIAN_POINT('Ctrl Pts',(3.14212967569734,0.70518657559199,-8.40000616732667));
#1654=CARTESIAN_POINT('Ctrl Pts',(3.0878387469363,0.679011680468168,-8.40000673403029));
#1655=CARTESIAN_POINT('Ctrl Pts',(3.0354025712182,0.649999581135876,-8.40000714759387));
#1656=CARTESIAN_POINT('Ctrl Pts',(4.53145987144641,0.449776741502265,-9.20000010183259));
#1657=CARTESIAN_POINT('Ctrl Pts',(4.55822115421356,0.546202662396378,-8.81429641825609));
#1658=CARTESIAN_POINT('Ctrl Pts',(4.58498287644853,0.649782031352759,-8.39997894243052));
#1659=CARTESIAN_POINT('Origin',(4.985000001853,0.5497767670204,-8.79999999976));
#1660=CARTESIAN_POINT('',(5.37801845352066,0.649777317389103,-8.39999510498029));
#1661=CARTESIAN_POINT('',(5.378018453492,0.6497773175882,-8.399995103363));
#1662=CARTESIAN_POINT('',(5.378018453492,0.6497773175882,-8.399995103363));
#1663=CARTESIAN_POINT('Origin',(5.311699883795,6.634865401132,-0.80063968062));
#1664=CARTESIAN_POINT('',(5.325657289857,5.19977676784,-2.4000000006));
#1665=CARTESIAN_POINT('',(5.32565728985694,0.649776912960471,-2.4000000006));
#1666=CARTESIAN_POINT('',(5.325657289857,5.19977676784,-2.4000000006));
#1667=CARTESIAN_POINT('',(5.325657289857,5.19977676784,-2.4000000006));
#1668=CARTESIAN_POINT('',(5.378018453492,0.6497773175882,-8.399995103363));
#1669=CARTESIAN_POINT('Origin',(4.56000000114,5.19977676784,-9.19999999976));
#1670=CARTESIAN_POINT('',(4.56000000114,5.19977676784,-2.4000000006));
#1671=CARTESIAN_POINT('',(5.325657289857,5.19977676784,-2.4000000006));
#1672=CARTESIAN_POINT('',(4.56000000114,5.19977676784,-2.4000000006));
#1673=CARTESIAN_POINT('Origin',(4.56000000114,5.59977676588,-9.19999999976));
#1674=CARTESIAN_POINT('',(4.56000000114,5.649776767,-2.4000000006));
#1675=CARTESIAN_POINT('',(4.56000000114,5.19977676784,-2.4000000006));
#1676=CARTESIAN_POINT('',(4.56000000114,5.649776767,-2.4000000006));
#1677=CARTESIAN_POINT('Origin',(4.86000000058,5.649776767,-9.19999999976));
#1678=CARTESIAN_POINT('',(4.86000000058,5.649776767,-2.4000000006));
#1679=CARTESIAN_POINT('',(4.56000000114,5.649776767,-2.4000000006));
#1680=CARTESIAN_POINT('',(4.86000000058,5.649776767,-2.4000000006));
#1681=CARTESIAN_POINT('Origin',(5.21000000162,6.54977676786,-9.19999999976));
#1682=CARTESIAN_POINT('',(5.21000000162,6.54977676786,-2.4000000006));
#1683=CARTESIAN_POINT('',(4.86000000058,5.649776767,-2.4000000006));
#1684=CARTESIAN_POINT('',(5.21000000162,6.54977676786,-2.4000000006));
#1685=CARTESIAN_POINT('Origin',(2.41000000092,6.54977676786,-9.19999999976));
#1686=CARTESIAN_POINT('',(3.4099999999,6.54977676786,-2.4000000006));
#1687=CARTESIAN_POINT('',(2.41000000092,6.54977676786,-2.4000000006));
#1688=CARTESIAN_POINT('',(3.4099999999,6.54977676786,-2.4000000006));
#1689=CARTESIAN_POINT('',(2.41000000092,6.54977676786,-2.4000000006));
#1690=CARTESIAN_POINT('',(4.2100000001,6.54977676786,-2.4000000006));
#1691=CARTESIAN_POINT('',(5.21000000162,6.54977676786,-2.4000000006));
#1692=CARTESIAN_POINT('',(4.2100000001,6.54977676786,-3.6000000009));
#1693=CARTESIAN_POINT('',(4.2100000001,6.54977676786,-3.6000000009));
#1694=CARTESIAN_POINT('',(3.4099999999,6.54977676786,-3.6000000009));
#1695=CARTESIAN_POINT('',(4.2100000001,6.54977676786,-3.6000000009));
#1696=CARTESIAN_POINT('',(3.4099999999,6.54977676786,-3.6000000009));
#1697=CARTESIAN_POINT('Origin',(2.75999999942,5.649776767,-9.19999999976));
#1698=CARTESIAN_POINT('',(2.75999999942,5.649776767,-2.4000000006));
#1699=CARTESIAN_POINT('',(2.41000000092,6.54977676786,-2.4000000006));
#1700=CARTESIAN_POINT('',(2.75999999942,5.649776767,-2.4000000006));
#1701=CARTESIAN_POINT('Origin',(3.0600000014,5.649776767,-9.19999999976));
#1702=CARTESIAN_POINT('',(3.0600000014,5.649776767,-2.4000000006));
#1703=CARTESIAN_POINT('',(2.75999999942,5.649776767,-2.4000000006));
#1704=CARTESIAN_POINT('',(3.0600000014,5.649776767,-2.4000000006));
#1705=CARTESIAN_POINT('Origin',(3.0600000014,5.14977676672,-9.19999999976));
#1706=CARTESIAN_POINT('',(3.0600000014,5.19977676784,-2.4000000006));
#1707=CARTESIAN_POINT('',(3.0600000014,5.649776767,-2.4000000006));
#1708=CARTESIAN_POINT('',(3.0600000014,5.19977676784,-2.4000000006));
#1709=CARTESIAN_POINT('Origin',(2.23540333208,5.19977676784,-9.19999999976));
#1710=CARTESIAN_POINT('',(3.0600000014,5.19977676784,-2.4000000006));
#1711=CARTESIAN_POINT('Origin',(2.25896298746,4.650000001001,-9.19999999976));
#1712=CARTESIAN_POINT('',(1.99500000006,4.650000001001,-7.59999999976));
#1713=CARTESIAN_POINT('',(1.99500000006,4.650000001001,-7.59999999976));
#1714=CARTESIAN_POINT('',(1.99500000006,4.650000001001,-8.09999999976));
#1715=CARTESIAN_POINT('',(1.99500000006,4.650000001001,-8.09999999976));
#1716=CARTESIAN_POINT('',(1.81000000006,4.650000001001,-9.19999999976));
#1717=CARTESIAN_POINT('Origin',(1.90250000006,3.699999999021,-8.64999999976));
#1718=CARTESIAN_POINT('',(1.99500000006,4.650000001001,-8.09999999976));
#1719=CARTESIAN_POINT('Origin',(3.80999999994,2.65,-3.54999999976));
#1720=CARTESIAN_POINT('',(3.40999999994,2.65,2.800000000241));
#1721=CARTESIAN_POINT('',(4.20999999994,2.65,2.800000000241));
#1722=CARTESIAN_POINT('',(3.40999999994,2.65,2.800000000241));
#1723=CARTESIAN_POINT('',(3.40999999994,2.65,1.820110506757E-13));
#1724=CARTESIAN_POINT('',(4.20999999994,2.65,1.820110506757E-13));
#1725=CARTESIAN_POINT('Origin',(3.40999999994,3.05,-3.54999999976));
#1726=CARTESIAN_POINT('',(3.40999999994,3.45,2.800000000241));
#1727=CARTESIAN_POINT('',(3.40999999994,3.45,2.800000000241));
#1728=CARTESIAN_POINT('',(3.40999999994,3.45,2.379689032724E-13));
#1729=CARTESIAN_POINT('Origin',(3.80999999994,3.45,-3.54999999976));
#1730=CARTESIAN_POINT('',(4.20999999994,3.45,2.800000000241));
#1731=CARTESIAN_POINT('',(4.20999999994,3.45,2.800000000241));
#1732=CARTESIAN_POINT('',(4.20999999994,3.45,2.379689032724E-13));
#1733=CARTESIAN_POINT('Origin',(4.20999999994,3.05,-3.54999999976));
#1734=CARTESIAN_POINT('',(4.20999999994,2.65,2.800000000241));
#1735=CARTESIAN_POINT('Origin',(1.99500000006,2.799999998161,-7.59999999976));
#1736=CARTESIAN_POINT('',(1.99500000006,4.650000001001,-7.59999999976));
#1737=CARTESIAN_POINT('Origin',(1.52000000006,-4.918000530628E-13,-7.59999999976));
#1738=CARTESIAN_POINT('Origin',(22.86,0.,-2.4000000006));
#1739=CARTESIAN_POINT('',(4.58499862727469,0.649777262458688,-2.40000000059995));
#1740=CARTESIAN_POINT('',(5.325657289857,0.6497769135565,-2.4000000006));
#1741=CARTESIAN_POINT('',(3.03540365320099,0.650000140045761,-2.4000000006));
#1742=CARTESIAN_POINT('Origin',(3.81,-0.74999999908,-2.4000000006));
#1743=CARTESIAN_POINT('',(3.035403683112,0.6500001265239,-2.4000000006));
#1744=CARTESIAN_POINT('',(3.4099999999,6.34977676908,-2.4000000006));
#1745=CARTESIAN_POINT('',(3.4099999999,6.54977676786,-2.4000000006));
#1746=CARTESIAN_POINT('',(4.2100000001,6.34977676908,-2.4000000006));
#1747=CARTESIAN_POINT('',(3.4099999999,6.34977676908,-2.4000000006));
#1748=CARTESIAN_POINT('',(4.2100000001,6.34977676908,-2.4000000006));
#1749=CARTESIAN_POINT('',(2.86000000008,3.05,-2.4000000006));
#1750=CARTESIAN_POINT('Origin',(3.81,3.05,-2.4000000006));
#1751=CARTESIAN_POINT('Origin',(3.03540333228,0.6500000000002,-9.19999999976));
#1752=CARTESIAN_POINT('',(3.035403683112,0.6500001265239,-2.4000000006));
#1753=CARTESIAN_POINT('Origin',(3.81,-0.74999999908,-9.19999999976));
#1754=CARTESIAN_POINT('',(4.584996433149,0.6497762752377,-8.399992740793));
#1755=CARTESIAN_POINT('Origin',(5.3849999996,0.6497767670204,-9.19999999976));
#1756=CARTESIAN_POINT('Origin',(4.2100000001,6.49977676674,-0.8000000002003));
#1757=CARTESIAN_POINT('',(4.2100000001,6.34977676908,-3.6000000009));
#1758=CARTESIAN_POINT('',(4.2100000001,6.34977676908,-3.6000000009));
#1759=CARTESIAN_POINT('',(4.2100000001,6.34977676908,-3.6000000009));
#1760=CARTESIAN_POINT('Origin',(-7.62,0.,-3.6000000009));
#1761=CARTESIAN_POINT('',(3.4099999999,6.34977676908,-3.6000000009));
#1762=CARTESIAN_POINT('',(3.4099999999,6.34977676908,-3.6000000009));
#1763=CARTESIAN_POINT('',(3.4099999999,6.54977676786,-3.6000000009));
#1764=CARTESIAN_POINT('Origin',(3.4099999999,6.29977676796,-0.8000000002003));
#1765=CARTESIAN_POINT('',(3.4099999999,6.34977676908,-3.6000000009));
#1766=CARTESIAN_POINT('Origin',(3.80999999994,2.75,3.10000000024));
#1767=CARTESIAN_POINT('',(4.00999999994,2.85,3.40000000024));
#1768=CARTESIAN_POINT('',(4.00999999994,2.85,3.40000000024));
#1769=CARTESIAN_POINT('',(3.60999999994,2.85,3.40000000024));
#1770=CARTESIAN_POINT('',(3.60999999994,2.85,3.40000000024));
#1771=CARTESIAN_POINT('',(3.40999999994,2.65,2.800000000241));
#1772=CARTESIAN_POINT('Origin',(3.50999999994,3.05,3.10000000024));
#1773=CARTESIAN_POINT('',(3.60999999994,3.25,3.40000000024));
#1774=CARTESIAN_POINT('',(3.60999999994,3.25,3.40000000024));
#1775=CARTESIAN_POINT('',(3.60999999994,3.25,3.40000000024));
#1776=CARTESIAN_POINT('Origin',(3.80999999994,3.35,3.10000000024));
#1777=CARTESIAN_POINT('',(4.00999999994,3.25,3.40000000024));
#1778=CARTESIAN_POINT('',(4.00999999994,3.25,3.40000000024));
#1779=CARTESIAN_POINT('',(4.20999999994,3.45,2.800000000241));
#1780=CARTESIAN_POINT('Origin',(4.10999999994,3.05,3.10000000024));
#1781=CARTESIAN_POINT('',(4.00999999994,3.25,3.40000000024));
#1782=CARTESIAN_POINT('Origin',(4.2100000001,6.34977676908,-0.8000000002003));
#1783=CARTESIAN_POINT('Origin',(3.81,3.05,-2.4000000006));
#1784=CARTESIAN_POINT('',(2.86000000008,3.05,-3.50000000024));
#1785=CARTESIAN_POINT('Origin',(3.81,3.05,-3.50000000024));
#1786=CARTESIAN_POINT('',(2.86000000008,3.05,-2.4000000006));
#1787=CARTESIAN_POINT('Origin',(3.80999999994,3.05,3.40000000024));
#1788=CARTESIAN_POINT('Origin',(-7.62,0.,-3.50000000024));
#1789=CARTESIAN_POINT('',(4.20999999994,3.45,-3.50000000024));
#1790=CARTESIAN_POINT('',(3.40999999994,3.45,-3.50000000024));
#1791=CARTESIAN_POINT('',(4.20999999994,3.45,-3.50000000024));
#1792=CARTESIAN_POINT('',(3.40999999994,2.65,-3.50000000024));
#1793=CARTESIAN_POINT('',(3.40999999994,3.45,-3.50000000024));
#1794=CARTESIAN_POINT('',(4.20999999994,2.65,-3.50000000024));
#1795=CARTESIAN_POINT('',(3.40999999994,2.65,-3.50000000024));
#1796=CARTESIAN_POINT('',(4.20999999994,2.65,-3.50000000024));
#1797=CARTESIAN_POINT('Origin',(3.80999999994,3.45,-3.54999999976));
#1798=CARTESIAN_POINT('',(4.20999999994,3.45,-6.999999999763));
#1799=CARTESIAN_POINT('',(3.40999999994,3.45,-6.999999999763));
#1800=CARTESIAN_POINT('',(4.20999999994,3.45,-6.999999999763));
#1801=CARTESIAN_POINT('',(3.40999999994,3.45,-3.50000000024));
#1802=CARTESIAN_POINT('',(4.20999999994,3.45,-3.50000000024));
#1803=CARTESIAN_POINT('Origin',(3.40999999994,3.05,-3.54999999976));
#1804=CARTESIAN_POINT('',(3.40999999994,2.65,-6.99999999976));
#1805=CARTESIAN_POINT('',(3.40999999994,3.45,-6.999999999763));
#1806=CARTESIAN_POINT('',(3.40999999994,2.65,-3.50000000024));
#1807=CARTESIAN_POINT('Origin',(3.80999999994,2.65,-3.54999999976));
#1808=CARTESIAN_POINT('',(4.20999999994,2.65,-6.99999999976));
#1809=CARTESIAN_POINT('',(3.40999999994,2.65,-6.99999999976));
#1810=CARTESIAN_POINT('',(4.20999999994,2.65,-3.50000000024));
#1811=CARTESIAN_POINT('Origin',(4.20999999994,3.05,-3.54999999976));
#1812=CARTESIAN_POINT('',(4.20999999994,2.65,-6.99999999976));
#1813=CARTESIAN_POINT('Origin',(3.80999999994,3.350000000001,-7.29999999976));
#1814=CARTESIAN_POINT('',(4.00999999994,3.250000000001,-7.59999999976));
#1815=CARTESIAN_POINT('',(4.00999999994,3.250000000001,-7.59999999976));
#1816=CARTESIAN_POINT('',(3.60999999994,3.250000000001,-7.59999999976));
#1817=CARTESIAN_POINT('',(3.60999999994,3.250000000001,-7.59999999976));
#1818=CARTESIAN_POINT('',(3.40999999994,3.45,-6.999999999763));
#1819=CARTESIAN_POINT('Origin',(3.50999999994,3.050000000001,-7.29999999976));
#1820=CARTESIAN_POINT('',(3.60999999994,2.850000000001,-7.59999999976));
#1821=CARTESIAN_POINT('',(3.60999999994,2.850000000001,-7.59999999976));
#1822=CARTESIAN_POINT('',(3.40999999994,2.65,-6.99999999976));
#1823=CARTESIAN_POINT('Origin',(3.80999999994,2.750000000001,-7.29999999976));
#1824=CARTESIAN_POINT('',(4.00999999994,2.850000000001,-7.59999999976));
#1825=CARTESIAN_POINT('',(4.00999999994,2.850000000001,-7.59999999976));
#1826=CARTESIAN_POINT('',(4.20999999994,2.65,-6.99999999976));
#1827=CARTESIAN_POINT('Origin',(4.10999999994,3.050000000001,-7.29999999976));
#1828=CARTESIAN_POINT('',(4.00999999994,3.250000000001,-7.59999999976));
#1829=CARTESIAN_POINT('Origin',(3.80999999994,3.050000000001,-7.59999999976));
#1830=UNCERTAINTY_MEASURE_WITH_UNIT(LENGTH_MEASURE(0.01),#1834,
'DISTANCE_ACCURACY_VALUE',
'Maximum model space distance between geometric entities at asserted c
onnectivities');
#1831=UNCERTAINTY_MEASURE_WITH_UNIT(LENGTH_MEASURE(0.01),#1834,
'DISTANCE_ACCURACY_VALUE',
'Maximum model space distance between geometric entities at asserted c
onnectivities');
#1832=(
GEOMETRIC_REPRESENTATION_CONTEXT(3)
GLOBAL_UNCERTAINTY_ASSIGNED_CONTEXT((#1830))
GLOBAL_UNIT_ASSIGNED_CONTEXT((#1834,#1836,#1837))
REPRESENTATION_CONTEXT('','3D')
);
#1833=(
GEOMETRIC_REPRESENTATION_CONTEXT(3)
GLOBAL_UNCERTAINTY_ASSIGNED_CONTEXT((#1831))
GLOBAL_UNIT_ASSIGNED_CONTEXT((#1834,#1836,#1837))
REPRESENTATION_CONTEXT('','3D')
);
#1834=(
LENGTH_UNIT()
NAMED_UNIT(*)
SI_UNIT(.MILLI.,.METRE.)
);
#1835=(
LENGTH_UNIT()
NAMED_UNIT(*)
SI_UNIT(.CENTI.,.METRE.)
);
#1836=(
NAMED_UNIT(*)
PLANE_ANGLE_UNIT()
SI_UNIT($,.RADIAN.)
);
#1837=(
NAMED_UNIT(*)
SI_UNIT($,.STERADIAN.)
SOLID_ANGLE_UNIT()
);
#1838=SHAPE_DEFINITION_REPRESENTATION(#1839,#1840);
#1839=PRODUCT_DEFINITION_SHAPE('',$,#1842);
#1840=SHAPE_REPRESENTATION('',(#1170),#1832);
#1841=PRODUCT_DEFINITION_CONTEXT('part definition',#1846,'design');
#1842=PRODUCT_DEFINITION('15EDGVC-3_81-03P-1Y-00A_H_',
'15EDGVC-3.81-03P-14-00A&Z(H)',#1843,#1841);
#1843=PRODUCT_DEFINITION_FORMATION('1LAST_VERSION',$,#1848);
#1844=PRODUCT_RELATED_PRODUCT_CATEGORY('15EDGVC-3.81-03P-14-00A&Z(H)',
'15EDGVC-3.81-03P-14-00A&Z(H)',(#1848));
#1845=APPLICATION_PROTOCOL_DEFINITION('international standard',
'automotive_design',2009,#1846);
#1846=APPLICATION_CONTEXT(
'Core Data for Automotive Mechanical Design Process');
#1847=PRODUCT_CONTEXT('part definition',#1846,'mechanical');
#1848=PRODUCT('15EDGVC-3_81-03P-1Y-00A_H_',
'15EDGVC-3.81-03P-14-00A&Z(H)',$,(#1847));
#1849=PRESENTATION_STYLE_ASSIGNMENT((#1852));
#1850=PRESENTATION_STYLE_ASSIGNMENT((#1853));
#1851=PRESENTATION_STYLE_ASSIGNMENT((#1854));
#1852=SURFACE_STYLE_USAGE(.BOTH.,#1861);
#1853=SURFACE_STYLE_USAGE(.BOTH.,#1862);
#1854=SURFACE_STYLE_USAGE(.BOTH.,#1863);
#1855=SURFACE_STYLE_RENDERING_WITH_PROPERTIES($,#1873,(#1858));
#1856=SURFACE_STYLE_RENDERING_WITH_PROPERTIES($,#1874,(#1859));
#1857=SURFACE_STYLE_RENDERING_WITH_PROPERTIES($,#1875,(#1860));
#1858=SURFACE_STYLE_TRANSPARENT(0.);
#1859=SURFACE_STYLE_TRANSPARENT(0.);
#1860=SURFACE_STYLE_TRANSPARENT(0.);
#1861=SURFACE_SIDE_STYLE('',(#1864,#1855));
#1862=SURFACE_SIDE_STYLE('',(#1865,#1856));
#1863=SURFACE_SIDE_STYLE('',(#1866,#1857));
#1864=SURFACE_STYLE_FILL_AREA(#1867);
#1865=SURFACE_STYLE_FILL_AREA(#1868);
#1866=SURFACE_STYLE_FILL_AREA(#1869);
#1867=FILL_AREA_STYLE('',(#1870));
#1868=FILL_AREA_STYLE('',(#1871));
#1869=FILL_AREA_STYLE('',(#1872));
#1870=FILL_AREA_STYLE_COLOUR('',#1873);
#1871=FILL_AREA_STYLE_COLOUR('',#1874);
#1872=FILL_AREA_STYLE_COLOUR('',#1875);
#1873=COLOUR_RGB('',0.749019607843137,0.749019607843137,0.749019607843137);
#1874=COLOUR_RGB('',0.388235294117647,0.592156862745098,0.0823529411764706);
#1875=COLOUR_RGB('',0.8,0.8,0.8);
ENDSEC;
END-ISO-10303-21;
